<?xml version="1.0" encoding="UTF-8"?><svg id="Layer_2" xmlns="http://www.w3.org/2000/svg" viewBox="0 0 1879 1023"><defs><style>.cls-1{stroke-dasharray:0 0 0 0 24.98 11.99 14.99 24.98;}.cls-1,.cls-2,.cls-3,.cls-4{fill:none;stroke-miterlimit:10;stroke-width:2px;}.cls-1,.cls-2,.cls-4{stroke:#ccc;stroke-linecap:round;}.cls-3{stroke:#e6e6e6;}.cls-4{stroke-dasharray:0 0 0 0 0 0 11.99 14.99 24.98 11.99 14.99 24.98;}</style></defs><g id="Layer_1-2"><g><path class="cls-2" d="M4,1019c1.15-1.43,2.4-2.99,3.76-4.67"/><path class="cls-1" d="M17.17,1002.67c2.45-3.03,5.06-6.26,7.83-9.67,11.04-13.61,21.95-27.08,32.75-40.41"/><path class="cls-4" d="M65.61,942.88C575.84,312.77,816,2.76,1104,2c381-1,773,386,774,680,.68,198.51-289,340-516,340-117.45,0-257-106-257-199,0-71.04,76.98-141,165-141,46.28,0,73.73,48.1,85.39,74.74"/><path class="cls-2" d="M1360.05,768.33c1.31,3.57,1.95,5.67,1.95,5.67"/></g><rect class="cls-3" x="1105" y="1" width="773" height="681"/><rect class="cls-3" x="43" y="-40" width="1020" height="1104" transform="translate(41 1065) rotate(-90)"/><rect class="cls-3" x="1105" y="682" width="257" height="340"/><rect class="cls-3" x="1105" y="682" width="257" height="141"/><rect class="cls-3" x="1270" y="682" width="92" height="141"/><rect class="cls-3" x="1270" y="774" width="92" height="49"/><path class="cls-3" d="M1878,1022H2V2H1878V1022Z"/></g></svg>