<?xml version="1.0" encoding="UTF-8"?><svg id="Layer_2" xmlns="http://www.w3.org/2000/svg" viewBox="0 0 1876 1022"><defs><style>.cls-1,.cls-2,.cls-3{stroke:#666;stroke-linecap:round;}.cls-1,.cls-2,.cls-3,.cls-4{fill:none;stroke-miterlimit:10;stroke-width:2px;}.cls-2{stroke-dasharray:0 0 0 0 24.98 11.99 14.99 24.98;}.cls-3{stroke-dasharray:0 0 0 0 0 0 11.99 14.99 24.98 11.99 14.99 24.98;}.cls-4{stroke:#e6e6e6;}</style></defs><g id="Layer_1-2"><g><path class="cls-1" d="M1,1018c1.15-1.43,2.4-2.99,3.76-4.67"/><path class="cls-2" d="M14.17,1001.67c2.45-3.03,5.06-6.26,7.83-9.67,11.04-13.61,21.95-27.08,32.75-40.41"/><path class="cls-3" d="M62.61,941.88C572.84,311.77,813,1.76,1101,1,1482,0,1874,387,1875,681c.68,198.51-289,340-516,340-117.45,0-257-106-257-199,0-71.04,76.98-141,165-141,46.28,0,73.73,48.1,85.39,74.74"/><path class="cls-1" d="M1357.05,767.33c1.31,3.57,1.95,5.67,1.95,5.67"/></g><polyline class="cls-4" points="1875 681 1102 681 1102 0"/><polyline class="cls-4" points="1102 681 1359 681 1359 1021"/><rect class="cls-4" x="1102" y="681" width="257" height="141"/><rect class="cls-4" x="1267" y="681" width="92" height="141"/><rect class="cls-4" x="1267" y="773" width="92" height="49"/></g></svg>