<?xml version="1.0" encoding="UTF-8"?><svg id="Layer_2" xmlns="http://www.w3.org/2000/svg" viewBox="0 0 362.07 320.46"><defs><style>.cls-1{fill:#4d4d4d;}.cls-2{fill:#9b423f;}</style></defs><g id="Layer_1-2"><g><path class="cls-2" d="M174.6,119.24c-.09,.18-.19,.36-.28,.53l-.25-.45c-17.11-31.06-43.55-55.95-75.58-71.17L.31,1.51C.31,54.47,27.78,103.64,72.88,131.4l44.59,27.45c13.37,8.23,24.32,27.82,24.32,43.52v34.61l72.3-36.12c0-28.91,19.1-38.75,43.36-52.67l25.94-14.52C331.78,106.58,361.76,55.46,361.76,0l-101.13,41.34c-36.89,15.08-67.41,42.66-86.03,77.9Z"/><path class="cls-1" d="M344.07,241.45H18C-3.82,241.45,.31,259.14,.31,280.95s17.69,39.5,39.5,39.5H322.25c21.82,0,39.5-17.69,39.5-39.5s4.13-39.5-17.69-39.5Z"/></g></g></svg>