<?xml version="1.0" encoding="UTF-8"?><svg id="Layer_2" xmlns="http://www.w3.org/2000/svg" xmlns:xlink="http://www.w3.org/1999/xlink" viewBox="0 0 169.23 13.23"><defs><style>.cls-1{opacity:.6;}.cls-2{fill:url(#linear-gradient);}</style><linearGradient id="linear-gradient" x1="0" y1="6.62" x2="169.23" y2="6.62" gradientTransform="matrix(1, 0, 0, 1, 0, 0)" gradientUnits="userSpaceOnUse"><stop offset="0" stop-color="#cdd400"/><stop offset=".19" stop-color="#c3cd00"/><stop offset=".46" stop-color="#aebf00"/><stop offset=".87" stop-color="#ff0"/><stop offset=".99" stop-color="#d4c300"/></linearGradient></defs><g id="Layer_1-2"><g class="cls-1"><g><path class="cls-2" d="M5.16,3.55c1.1,0,1.95,.43,2.57,1.28,.62,.85,.93,2.03,.93,3.52s-.32,2.72-.96,3.56c-.64,.84-1.51,1.26-2.61,1.26s-1.95-.4-2.57-1.19h-.17l-.42,1.02H0V.09H2.53V3.1c0,.38-.03,.99-.1,1.83h.1c.59-.92,1.47-1.38,2.63-1.38Zm-.81,2.03c-.62,0-1.08,.19-1.37,.58-.29,.38-.44,1.02-.45,1.91v.27c0,1,.15,1.71,.44,2.14s.77,.65,1.41,.65c.52,0,.93-.24,1.24-.72,.31-.48,.46-1.17,.46-2.09s-.15-1.6-.46-2.05c-.31-.46-.73-.69-1.27-.69Z"/><path class="cls-2" d="M15.3,13.17c-1.49,0-2.66-.41-3.5-1.24s-1.26-1.99-1.26-3.5,.39-2.76,1.17-3.61c.78-.85,1.85-1.27,3.22-1.27s2.33,.37,3.06,1.12,1.1,1.78,1.1,3.1v1.23h-5.99c.03,.72,.24,1.28,.64,1.69s.96,.61,1.68,.61c.56,0,1.09-.06,1.59-.17s1.02-.3,1.56-.56v1.96c-.44,.22-.92,.39-1.42,.49-.5,.11-1.12,.16-1.84,.16Zm-.36-7.82c-.54,0-.96,.17-1.26,.51-.3,.34-.48,.82-.52,1.45h3.55c-.01-.63-.17-1.11-.49-1.45-.31-.34-.74-.51-1.28-.51Z"/><path class="cls-2" d="M27.38,13.01l-.49-1.26h-.07c-.43,.54-.87,.91-1.32,1.12-.45,.21-1.04,.31-1.76,.31-.89,0-1.59-.25-2.1-.76s-.77-1.23-.77-2.17,.34-1.71,1.03-2.18c.69-.47,1.73-.73,3.12-.78l1.61-.05v-.41c0-.94-.48-1.41-1.44-1.41-.74,0-1.61,.22-2.61,.67l-.84-1.71c1.07-.56,2.25-.84,3.55-.84s2.2,.27,2.86,.81,1,1.37,1,2.47v6.18h-1.77Zm-.75-4.3l-.98,.03c-.74,.02-1.28,.15-1.64,.4s-.54,.61-.54,1.11c0,.71,.41,1.07,1.23,1.07,.59,0,1.05-.17,1.41-.51s.53-.79,.53-1.34v-.76Z"/><path class="cls-2" d="M38.66,13.01l-.34-1.19h-.13c-.27,.43-.66,.77-1.15,1-.5,.23-1.07,.35-1.7,.35-1.09,0-1.91-.29-2.47-.88-.55-.58-.83-1.42-.83-2.52V3.73h2.53v5.42c0,.67,.12,1.17,.36,1.51,.24,.33,.62,.5,1.14,.5,.71,0,1.22-.24,1.54-.71,.32-.47,.47-1.26,.47-2.35V3.73h2.53V13.01h-1.94Z"/><path class="cls-2" d="M47.51,11.16c.44,0,.97-.1,1.59-.29v1.88c-.63,.28-1.41,.42-2.32,.42-1.01,0-1.75-.26-2.21-.77-.46-.51-.69-1.28-.69-2.3V5.63h-1.21v-1.07l1.39-.85,.73-1.96h1.62v1.98h2.6v1.9h-2.6v4.47c0,.36,.1,.63,.3,.8s.47,.26,.8,.26Z"/><path class="cls-2" d="M51.21,1.33c0-.82,.46-1.24,1.38-1.24s1.38,.41,1.38,1.24c0,.39-.12,.7-.34,.92-.23,.22-.57,.33-1.03,.33-.92,0-1.38-.42-1.38-1.25Zm2.64,11.68h-2.53V3.73h2.53V13.01Z"/><path class="cls-2" d="M61.98,5.63h-2.19v7.38h-2.53V5.63h-1.39v-1.22l1.39-.68v-.68c0-1.06,.26-1.83,.78-2.32,.52-.49,1.35-.73,2.5-.73,.87,0,1.65,.13,2.33,.39l-.65,1.86c-.51-.16-.98-.24-1.41-.24-.36,0-.62,.11-.78,.32-.16,.21-.24,.49-.24,.82v.58h2.19v1.9Z"/><path class="cls-2" d="M70.35,13.01l-.34-1.19h-.13c-.27,.43-.66,.77-1.15,1-.5,.23-1.07,.35-1.7,.35-1.09,0-1.91-.29-2.47-.88-.55-.58-.83-1.42-.83-2.52V3.73h2.53v5.42c0,.67,.12,1.17,.36,1.51,.24,.33,.62,.5,1.14,.5,.71,0,1.22-.24,1.54-.71,.32-.47,.47-1.26,.47-2.35V3.73h2.53V13.01h-1.94Z"/><path class="cls-2" d="M77.82,13.01h-2.53V.09h2.53V13.01Z"/><path class="cls-2" d="M92.04,10.25c0,.95-.33,1.68-.99,2.17s-1.65,.75-2.97,.75c-.68,0-1.25-.05-1.73-.14-.48-.09-.92-.23-1.34-.4v-2.09c.47,.22,1,.41,1.59,.56,.59,.15,1.11,.22,1.56,.22,.92,0,1.38-.27,1.38-.8,0-.2-.06-.36-.18-.49-.12-.12-.33-.27-.63-.42-.3-.16-.7-.34-1.2-.55-.71-.3-1.24-.58-1.57-.83s-.58-.55-.73-.88c-.15-.33-.23-.73-.23-1.22,0-.82,.32-1.46,.96-1.91,.64-.45,1.54-.68,2.72-.68s2.21,.24,3.26,.73l-.76,1.83c-.46-.2-.9-.36-1.3-.49-.4-.13-.82-.19-1.24-.19-.75,0-1.12,.2-1.12,.61,0,.23,.12,.42,.36,.59,.24,.17,.77,.41,1.58,.74,.73,.29,1.26,.57,1.59,.82,.34,.25,.59,.55,.75,.88,.16,.33,.24,.73,.24,1.19Z"/><path class="cls-2" d="M102.79,8.35c0,1.51-.4,2.69-1.2,3.54s-1.91,1.28-3.33,1.28c-.89,0-1.68-.2-2.36-.58-.68-.39-1.2-.95-1.57-1.68s-.55-1.58-.55-2.56c0-1.52,.4-2.69,1.19-3.54,.79-.84,1.9-1.26,3.34-1.26,.89,0,1.68,.19,2.36,.58,.68,.39,1.2,.94,1.57,1.67s.55,1.57,.55,2.55Zm-6.42,0c0,.92,.15,1.61,.45,2.08s.79,.71,1.47,.71,1.16-.23,1.46-.7c.3-.47,.44-1.16,.44-2.09s-.15-1.61-.45-2.07-.79-.69-1.47-.69-1.16,.23-1.46,.69c-.3,.46-.45,1.15-.45,2.07Z"/><path class="cls-2" d="M107.76,13.01h-2.53V.09h2.53V13.01Z"/><path class="cls-2" d="M117.33,13.01l-.34-1.19h-.13c-.27,.43-.66,.77-1.15,1-.5,.23-1.07,.35-1.7,.35-1.09,0-1.91-.29-2.47-.88-.55-.58-.83-1.42-.83-2.52V3.73h2.53v5.42c0,.67,.12,1.17,.36,1.51,.24,.33,.62,.5,1.14,.5,.71,0,1.22-.24,1.54-.71,.32-.47,.47-1.26,.47-2.35V3.73h2.53V13.01h-1.94Z"/><path class="cls-2" d="M126.18,11.16c.44,0,.97-.1,1.59-.29v1.88c-.63,.28-1.41,.42-2.32,.42-1.01,0-1.75-.26-2.21-.77-.46-.51-.69-1.28-.69-2.3V5.63h-1.21v-1.07l1.39-.85,.73-1.96h1.62v1.98h2.6v1.9h-2.6v4.47c0,.36,.1,.63,.3,.8s.47,.26,.8,.26Z"/><path class="cls-2" d="M129.88,1.33c0-.82,.46-1.24,1.38-1.24s1.38,.41,1.38,1.24c0,.39-.12,.7-.34,.92-.23,.22-.57,.33-1.03,.33-.92,0-1.38-.42-1.38-1.25Zm2.64,11.68h-2.53V3.73h2.53V13.01Z"/><path class="cls-2" d="M143.95,8.35c0,1.51-.4,2.69-1.2,3.54s-1.91,1.28-3.33,1.28c-.89,0-1.68-.2-2.36-.58-.68-.39-1.2-.95-1.57-1.68s-.55-1.58-.55-2.56c0-1.52,.4-2.69,1.19-3.54,.79-.84,1.9-1.26,3.34-1.26,.89,0,1.68,.19,2.36,.58,.68,.39,1.2,.94,1.57,1.67s.55,1.57,.55,2.55Zm-6.42,0c0,.92,.15,1.61,.45,2.08s.79,.71,1.47,.71,1.16-.23,1.46-.7c.3-.47,.44-1.16,.44-2.09s-.15-1.61-.45-2.07-.79-.69-1.47-.69-1.16,.23-1.46,.69c-.3,.46-.45,1.15-.45,2.07Z"/><path class="cls-2" d="M154.95,13.01h-2.53V7.59c0-.67-.12-1.17-.36-1.51-.24-.33-.62-.5-1.14-.5-.71,0-1.22,.24-1.54,.71-.32,.47-.47,1.26-.47,2.35v4.37h-2.53V3.73h1.93l.34,1.19h.14c.28-.45,.67-.79,1.17-1.02,.5-.23,1.06-.34,1.69-.34,1.08,0,1.9,.29,2.46,.88,.56,.58,.84,1.43,.84,2.53v6.05Z"/><path class="cls-2" d="M164.37,10.25c0,.95-.33,1.68-.99,2.17s-1.65,.75-2.97,.75c-.68,0-1.25-.05-1.73-.14-.48-.09-.92-.23-1.34-.4v-2.09c.47,.22,1,.41,1.59,.56,.59,.15,1.11,.22,1.56,.22,.92,0,1.38-.27,1.38-.8,0-.2-.06-.36-.18-.49-.12-.12-.33-.27-.63-.42-.3-.16-.7-.34-1.2-.55-.71-.3-1.24-.58-1.57-.83s-.58-.55-.73-.88c-.15-.33-.23-.73-.23-1.22,0-.82,.32-1.46,.96-1.91,.64-.45,1.54-.68,2.72-.68s2.21,.24,3.26,.73l-.76,1.83c-.46-.2-.9-.36-1.3-.49-.4-.13-.82-.19-1.24-.19-.75,0-1.12,.2-1.12,.61,0,.23,.12,.42,.36,.59,.24,.17,.77,.41,1.58,.74,.73,.29,1.26,.57,1.59,.82,.34,.25,.59,.55,.75,.88,.16,.33,.24,.73,.24,1.19Z"/><path class="cls-2" d="M166.32,11.82c0-.46,.12-.82,.37-1.05s.61-.36,1.09-.36,.82,.12,1.07,.37,.38,.59,.38,1.05-.13,.78-.38,1.03c-.25,.25-.61,.38-1.06,.38s-.82-.12-1.08-.37c-.25-.25-.38-.59-.38-1.04Z"/></g></g></g></svg>