<?xml version="1.0" encoding="UTF-8"?><svg id="Layer_2" xmlns="http://www.w3.org/2000/svg" viewBox="0 0 3203.67 3208.15"><defs><style>.cls-1{opacity:.5;}.cls-2{fill:#680000;}</style></defs><g id="Layer_1-2"><g class="cls-1"><path class="cls-2" d="M1098.76,3035.36l1.58,.99,1.63,.88,1.69,.77c.54,.22,1.44,.53,2.15,.75,6.04,1.92,12.5,2.15,18.69,3.29,3.12,.53,6.14,1.35,9.19,2.12,60.32,15.75,120.17,34.22,182.71,38.29,58.84,5.19,118.14-.61,176.8-3.85,27.15-1.35,54.55-1.86,81.73-1.35,12.06,.21,24.06,.51,36.06,2.07,49.12,5.7,97.59,29.81,147.37,28.14,12.33-.24,24.64-1.4,36.63-4.46,12.14-3.22,24.04-8.21,34.97-14.56,21.97-12.27,43.34-28.25,66.28-37.95,5.57-2.58,11.44-3.55,17.57-3.45,9.07,.38,19.2,.83,28.27,1.73,13.03,1.36,26.05,3.42,39.1,4.61,22.32,1.72,44.96-1.06,65.95-8.73,17.53-6.47,34.1-15.43,51.73-21.63,2.93-1.02,5.99-1.65,8.99-2.49,2.99-.84,5.81-2.18,8.45-3.98,7.41-4.46,14.5-10.33,21.39-15.75,8.96-7.78,18.74-16.43,27.83-23.96,8.45-6.84,17.85-12.78,27.56-17.45,16.83-8.3,35.41-12.08,54.01-13.75,40.31-3.61,58.29-6.8,91.59-32.74,11.22-8.74,21.59-18.83,31.19-29.3,14.84-16.68,28.79-35.02,43.22-52.03,8-9.3,16.65-18.36,25.71-26.52,17.76-16.04,37.77-29.34,59.15-40.08,27.46-13.92,58.45-22.85,86.71-34.93,8.7-3.69,17.16-7.68,25.4-12.23,27.22-14.62,50.11-35.52,70.44-58.25,18.31-20.62,33.64-43.81,47.57-67.55,15.19-25.69,30.16-53.07,46.29-78.21,2.36-3.58,4.88-7.68,7.34-11.25,4.02-6.22,8.17-12.52,12.91-18.21,11.06-14.02,25.46-26.33,38.08-39.25,8.43-8.77,15.99-18.27,21.92-28.87,3.04-5.2,5.53-10.72,8-16.24,3.01-6.8,6.08-14.01,8.53-21.06,3.67-10.16,7.28-21.71,10.49-31.99,7.12-24.14,12.09-48.66,17.74-73.06,3.84-17.71,9.01-35.66,14.82-52.63,10.91-31.3,25.22-61.49,46.1-87.51l1.4-1.86,1.49-1.83,2.97-3.67,2.97-3.67c23.36-27.58,49.15-55.05,64.36-88.15,6.59-13.88,10.25-22.2,6.88-38.56-1.62-7.52-4.08-15.29-5.51-22.84-1.03-4.71-1.59-9.74-1.35-14.44,.08-5.48,2.31-12.31,3.51-17.76l4.25-17.55c21.48-92.62,49.63-188.91,58.12-283.91,1.31-12.09,3.04-24.18,4.29-36.3,2.55-24.31,4.62-48.8,6.78-73.16,1.99-24.55,3.65-49.25,3.56-73.91-.06-49.32-7.83-98.46-21.61-145.78-22.6-76.45-61.35-146.83-92.44-219.8-14.89-33.23-26.97-68.27-41.11-101.8-9.47-22.58-20.39-44.57-33.08-65.53-12.59-21.19-27.72-40.71-44.53-58.73-21.12-22.33-44.42-43.49-63.45-66.99-11.37-14.2-22.04-28.91-30.97-44.8-3.69-6.65-7.14-13.92-10.17-20.9-1.67-4.29-3.66-9.01-5.17-13.37-6.8-18.32-11.77-38.07-18.3-56.52-12.23-37.97-34.2-68.6-66.08-90.62-6.4-4.46-13.38-8.87-20.38-12.56-4.35-2.21-8.74-4.38-13.14-6.5-3.75-1.59-7.55-3.39-11.34-4.93l-2.34-.9-4.69-1.78c-17.69-7.07-38.26-13.47-55.96-20.51-6.58-2.53-15.52-6.67-21.88-9.54-6.88-3.32-13.75-7.24-20.28-11.12-7.75-4.73-15.2-9.91-22.25-15.61-9.46-7.81-17.51-16.97-24.46-27.27-14.47-21.03-24.85-46.83-41.48-66.39-3.95-4.76-8.32-9.5-13.01-13.52-4.64-4.09-9.59-7.76-14.71-11.16-20.52-13.58-42.32-25.27-65.41-34.48-51.47-20.74-106.98-30.36-158.49-50.85-23.65-9.48-47.61-19.12-68.26-34.34-1.27-.85-2.46-1.87-3.7-2.8l-3.69-2.85-1.85-1.43c-.61-.48-1.2-1.03-1.8-1.54-2.39-2.09-4.82-4.11-7.2-6.26-6.39-5.39-14.95-14.43-21.23-20.4l-14.29-13.92-1.8-1.75-1.83-1.66c-1.22-1.12-2.46-2.18-3.7-3.26l-7.45-6.48-3.74-3.23-3.85-2.97-3.86-2.97c-3.9-2.79-7.91-5.4-11.93-8-7.79-4.83-16.56-9.43-25.04-12.91-22.77-9.89-47.08-15.9-71.74-18.61-5.82-.7-12.73-1.45-18.56-1.91-24.6-2.09-49.22-3.9-73.61-7.77-42.42-5.95-84.79-13.18-127.41-17.65-42.85-4.56-86.12-4.58-128.87,1.47-21.46,2.72-42.97,8.17-63.44,15.39-55.16,20-106.33,53.36-163.16,66.87-14.32,3.92-29.24,6.11-44.1,4.8-6.46-.39-12.4-1.29-18.75-2.51l-4.76-.84c-.8-.15-1.59-.26-2.39-.43l-2.42-.55c-15.26-3.55-30.83-6.81-46.32-9.13l-2.42-.28c-3.22-.36-6.47-.79-9.65-.94l-9.61-.63c-9.76-.46-19.51-1.74-29.31-2.65-13.18-1.38-25.87-.69-37.74,2.56-7.39,2.17-13.3,9.76-19.07,15.44-5.74,5.53-12.94,9.45-19.24,14.28-7.57,5.67-15.25,11.96-22.56,17.81-9.91,8.04-20.23,14.72-31.39,19.31-10.88,4.47-23.4,7.71-34.81,10.77-39.76,10.43-81.03,13.75-121.21,22.67-46.01,10.23-89.52,30.85-125.23,61.53-32.09,27.65-58.37,61.59-89.72,90.02-46.18,41.29-92.72,82.38-138.53,123.82-20.15,18.37-43.09,43.31-62.43,63.14-37.89,39.62-77.51,79.79-112.59,123.06-8.39,10.13-26.31,33.43-34.69,43.99-7.69,9.83-15.4,19.68-22.56,29.88-14.43,20.36-26.18,42.38-36.28,65.17-15.41,34.2-25.9,70.59-36.3,106.51-10.39,35.88-22.44,70.34-37.94,104.02-7.76,16.78-17.03,33.12-27.53,48.54-21.42,31.76-46.99,61.56-62.9,96.66-3.96,8.57-7.46,17.34-10.41,26.3-2.13,6.06-3.1,12.28-2.39,18.79l.24,2.48c.14,.84,.35,1.7,.53,2.56l1.1,5.11c1.75,6.91,4.41,14.04,6.56,20.83,1.3,4.98,2.99,10.06,3.34,15.06,1.2,7.28-.9,15.95-2.13,23.16-12.43,76.39-33.93,159.35-40.1,236.52-2.06,24.6-2.64,49.32-1.92,73.99,.23,6.94,1.9,13.96,4.58,20.68,.98,2.28,1.91,4.55,2.94,6.81l4.5,9.06c.35,.75,.8,1.5,1.08,2.26l.91,2.26,.91,2.26c.32,.75,.6,1.51,.82,2.26,.96,2.93,1.75,6.1,2.44,9.08,4.39,18.08,9.98,36.17,15.68,53.88,5.75,17.09,12.42,35.76,18.04,52.74,9.69,28.51,16.84,57.92,21.65,87.62,6.08,35.6,7.1,73.21,6.17,109.77-.33,12.14-.5,25.94-.4,38.11-.1,38.16,4.49,75.5,17.86,110.95,4.32,11.64,9.32,23.04,16.07,33.51,19.1,30.83,49.71,51.8,77.2,74.66,1.24,1.05,2.53,2.07,3.72,3.14l3.55,3.22,3.54,3.21c1.23,1.04,2.35,2.14,3.5,3.22,25.64,24.05,43.99,54.35,52.89,88.55,2.14,6.99,3.98,16.14,5.48,23.31,2.12,8.8,4.2,19.69,6.35,28.58,3,12.33,6.62,25.03,11.72,36.58,4.85,11.41,11.17,22.16,18.57,32.09,11.64,15.56,25.61,28.85,41.48,40.34,9.88,6.81,20.08,13.02,30.6,18.87,20.65,11.51,41.86,22.29,61.41,35.59,20.39,14.63,43.23,29.59,64.99,42.32,15.23,9.01,31.42,18.83,45.62,29.04,14.45,10.41,27.94,22,40.51,34.63,8.64,8.75,17.08,17.11,23.25,28.12,1.48,2.96,3.13,5.72,4.61,8.71l2.07,4.7,1.04,2.35c.36,.76,.69,1.58,.96,2.46l3.52,10.34c1.15,3.5,2.48,6.78,3.48,10.52,2.16,7.27,4.3,14.66,6.63,21.87l1.73,5.45,1.79,5.4c.29,.92,.61,1.79,.96,2.62l1.01,2.55,2.03,5.11,2.26,4.81c4.78,10.37,11.73,20.55,20.04,28.16,4.54,4.33,9.71,7.76,14.89,11.23,5.17,3.43,10.45,6.7,15.84,9.78,22,12.35,46.11,20.93,70.66,26.71,15.54,3.71,31.84,6.49,47.56,9.53,9.37,1.66,19.31,3.24,28.44,5.21,21.28,4.14,42.53,9.66,62.77,17.38,20.18,7.51,40,16.29,55.38,31.96,4.42,4.04,9.59,9.95,13.4,14.78,9.1,11.32,17.29,21.87,25.87,32.87,1.07,1.43,2.21,2.69,3.35,3.97l3.11,3.66,6.31,7.36c2.22,2.25,4.46,4.54,6.74,6.79l7.06,6.36h0Zm-17.03,51.96l-10.38-.84-10.71-.41-11.13,.16-5.61,.05c-1.75,.04-3.5,.06-5.32,.24l-21.7,1.68c-5.09,.47-16.2,1.11-21.64,1.1-11.22,.45-22.65-.26-33.58-2.57-18.58-3.8-35.32-13.02-51.45-22.66-28.56-17.39-53.33-40.39-76-64.83-6.85-7.29-13.95-15.16-20.74-22.33-6.56-6.98-13.69-15.3-20.58-22.08-15.76-16.38-32.72-31.69-51.14-44.91-10.36-7.47-20.88-14.75-32.32-20.47-16.16-7.9-38.04-10.59-57.28-10.35l-5.9-.1c-11.66-.35-23.95,.14-35.59-1.01l-11.54-1.02c-.98-.06-1.91-.19-2.81-.38l-2.73-.49-5.47-.98c-.94-.13-1.75-.42-2.63-.63l-2.6-.68c-15.17-3.64-28.42-11.51-41.16-20.05-16.75-10.96-32.4-23.61-46.4-37.92-11.93-11.66-22.41-25.19-32.7-38.32-11.15-14.94-24.63-34.09-35.47-49.23-13.72-19.26-27.61-37.94-37.94-59.48-6.05-12.28-11.75-24.83-17.08-37.41-10.63-24.53-21.5-48.92-36.8-70.52-13.9-20.1-30.56-38.33-50.07-53.18-4.85-4.04-11.15-8.48-16.33-12.28l-4.3-2.95c-2.9-1.95-5.68-3.99-8.53-5.99-10.55-7.66-23.44-16.49-33.41-25.03-52.85-44.35-65.71-97.44-67.64-164.61-.51-10.31-.84-21.02-1.99-31.28-1.09-13.69-3.47-26.65-6.59-39.24-6.72-24.92-17.56-48.15-29.25-71.02-28.2-54.74-69.3-102.9-92.02-160.51-6.78-16.86-12.29-34.41-16.16-52.16C.03,1903.88-1.96,1863.65,1.81,1824.07c2.4-30.77,8.08-68.07,11.51-98.82,.39-3.08,.87-6.71,1.56-9.77,.15-.81,.36-1.63,.61-2.45l.69-2.45,.69-2.45c2.4-6.73,5.78-15.15,7.63-22.01,1.83-6.27,2.92-12.81,2.87-19.33,.06-40.62-.14-84.59,.31-125.11,.49-67.6,5.47-135.61,22.57-201.22,2.03-7.87,3.67-15.97,8.22-22.87,.8-1.46,1.85-2.87,2.87-4.27,.94-1.43,2.25-2.76,3.42-4.13l3.59-4.07c6.34-6.65,13.45-12.76,19.12-19.82,.57-.67,1.17-1.33,1.7-2.01,2.42-3.36,4.65-6.96,6.13-10.65,2.43-5.89,3.28-12.21,4.61-18.4,4.22-21.94,6.33-44.93,7.18-67.43,1.08-29.74,1.44-59.89,7.17-89.18,4.86-25.52,14.07-49.9,24.92-73.42,21.43-47.28,54.18-88.58,84.18-130.41,14.92-20.85,29.22-42,42.48-63.86,13.36-21.76,24.3-44.83,35.53-67.77,9.94-20.88,25.19-47.48,36.1-67.94,24.55-44.71,50.13-91.71,79.46-133.45,19.03-27.29,39.86-53.48,62.97-77.75,40.93-42.84,87.89-79.11,137.58-110.93,21.67-14.4,45.02-26.6,69.16-36.43,23.98-10.17,49.04-18.59,72.76-29.09,38.26-16.86,73.23-39.07,105.53-65.99,17.85-14.83,34.6-31.08,51.94-46.59,19.76-18.02,40.51-34.87,63.26-48.9,11.23-6.78,22.61-13.49,34.8-18.4,12.16-4.84,25.23-7.42,38.86-8.28,14.97-.97,30.62-1.64,45.56-3.12,3.25-.35,6.93-.39,10.24-.1,5.23,.54,10.77,1.57,15.9,1.69,9.33,.58,17.24-4.39,25.17-8.5,9.7-5.56,18.34-12.37,27.08-19.2,9.63-7.72,15.71-11.27,25.36-17.81,11.59-7.86,23.04-16.57,34.07-25.24,6.38-5.04,12.89-9.89,19.38-14.84,.73-.52,1.47-.99,2.21-1.49l4.43-2.96,4.44-2.96c1.49-.96,2.96-2.02,4.48-2.83,14.6-8.7,30.79-14.81,47.57-17.39,37.08-5.77,74.15-4.53,111.61,2.34,53.14,9.68,106.11,25.43,159.33,29.54,54.58,5.65,109.29,7.69,164.04,10.53,54.7,3.57,109.92,10.09,161.77,28.76,12.19,4.38,24.29,9.05,36.36,13.69,30.1,11.5,60.63,20.42,92.92,24.64,78.09,8.57,120.73-16.12,199.47,25.68,20.71,10.41,40.44,22.75,58.97,36.69,28.88,21.71,56.14,47.67,82.94,71.95,24.05,21.64,49.32,42.37,75.93,60.78,10.39,7.59,21.76,13.72,34.09,18.63,20.19,8.09,43.48,12.45,64.72,18.92,11.15,3.58,22.66,8.12,32.73,13.97,17.2,10.04,31.31,24.19,43.87,39.51,2.9,3.73,6.31,8.21,9.02,12.08,2.7,4.21,5.76,8.5,8.32,12.79l5.13,8.93,1.28,2.23c12.6,23.24,22.97,49.18,34.57,72.81,17.57,35.08,40.6,66.52,72.64,89.51,21.51,15.69,47.4,27.35,70.76,40.69l8.94,5.23,8.68,5.49c1.45,.91,2.82,1.9,4.18,2.89l4.11,2.95c1.36,.99,2.76,1.96,4.1,2.97l3.96,3.09c15.6,12.28,28.6,27.2,40.34,43.08,11.71,15.83,21.53,32.97,30.02,50.74,16.53,35.56,29.55,73.75,47.64,108.13,29.15,57.93,67.66,110.72,94.79,169.75,16.25,35.65,28.32,73.08,37.55,111.13,12.16,50.68,18.49,102.41,26.34,153.79,6.56,44.36,14,89.14,22.2,133.18,5.65,29.58,13.35,66.06,18.27,95.64,8.49,51.03,12.72,104.5,12.38,156.13,.23,91.52-3.83,184.52-26.06,273.83-1.54,6.38-3.16,12.74-4.83,19.08-1,3.5-2.79,10.9-4.04,14.2-2.05,5.56-5.15,10.73-8.96,15.39l-1.76,2.06-3.53,4.1c-3.9,4.12-9.86,9.92-13.53,13.91-5.2,5.83-9.82,12.32-12.12,19.2-2.08,6.14-2.97,12.63-4.23,18.99-7.06,38.28-5.14,77.73-7.44,116.59l-.44,5.12-.46,5.12-.24,2.56-.33,2.53-1.35,10.11c-8.31,53.01-35.4,101.21-69.18,142.23-16.97,20.67-35.5,40.26-53.04,60.26-3,3.32-6.08,7.19-9.04,10.48-5.09,6.15-10.33,13.01-15.06,19.5-11.64,15.93-23.62,31.79-32.2,49.64-6.06,11.82-10.44,24.6-15.53,36.91-4.79,12.48-10.45,24.74-17.44,36.11-7.07,11.23-15.54,21.49-24.18,31.55-42.78,50.57-99.96,86.84-148.16,131.29-14.29,13.23-28.46,26.55-41.48,41.06-17.9,19.76-33.19,41.75-48.23,64-13.49,19.5-27.3,39.48-43.72,56.65-25.24,26.67-56.44,47.7-91.1,60.03-12.58,4.48-26.42,8.26-39.56,10.92-21.54,4.84-43.98,8.12-65.48,13.13-4.52,1.18-10.04,2.43-14.51,3.66-15.63,4.3-31.11,9.56-45.8,16.32-10.16,4.85-19.83,11.17-28.52,18.35-13.58,11.06-27.6,26.2-41.76,36.55-15.74,11.73-33.87,19.97-53.18,23.72-12.76,2.62-27.06,3.1-40.21,3.4-3.27,.1-11.98,.2-15.26,.44-4.74,.24-10.32,.49-14.99,.96-6.4,.79-13.17,.84-19.11,3.47-8.63,4.22-17.88,6.83-27.15,9.25-12.33,3.22-24.96,5.57-37.2,9.09-18.56,5.37-36.13,13.6-51.94,24.83-16.83,11.97-32.43,26.6-50.24,37.17-11.79,6.86-23.39,15.41-36.95,15.58-27.17,1.91-54.94-4.32-81.8-8.75-12.99-2.28-26.56-3.71-39.67-3.35-12.94,.19-25.63,2.12-38.31,4.49-31.66,5.71-63.79,18.86-95.32,29.46-19.07,6.5-38.71,11.26-58.71,13.32-13.11,1.34-26.27,1.29-39.4,.66-39.34-1.56-78.51-8.06-116.54-18.21-74.72-20.66-148.68-48.74-223.38-66.02-37.04-8.86-74.38-16.17-111.09-26.07-6.15-1.45-12.09-3.63-17.93-6-4.59-1.94-9.33-3.06-14.29-3.63l-2.94-.29-2.99-.18h0Z"/></g></g></svg>