<?xml version="1.0" encoding="UTF-8"?><svg id="Layer_2" xmlns="http://www.w3.org/2000/svg" viewBox="0 0 3170.22 3148.35"><defs><style>.cls-1{fill:#4d4d4d;}.cls-2{opacity:.71;}</style></defs><g id="Layer_1-2"><g class="cls-2"><path class="cls-1" d="M2369.41,2837.73c5.48-1.48,10.11-4.66,14.19-8.53,4.48-4.24,9.23-8.09,14.29-11.59,8.99-6.25,20.96-15.24,29.75-21.5,34.78-24.96,68.58-51.58,98.5-82.33,56.21-55.86,103-121.46,146.7-186.82,20.14-29.84,40.31-59.63,60.8-89.21,6.76-9.43,13.69-19.98,20.45-29.36l2.59-3.64,2.53-3.69c2.43-3.87,6.28-6.9,10.28-9.22,.68-.44,1.54-.76,2.3-1.14l2.36-1.11,5.42-1.76,2.72-.89c.87-.32,1.87-.56,2.88-.78,4-.94,7.92-1.96,11.9-2.95l5.96-1.51,5.43-1.89c6.37-2,12.88-5.68,17.01-10.79,7.25-10.05,12.09-21.69,15.04-33.71,2.77-12.72,3.95-26.07,5.03-39.15,.48-8.06,1.52-16.18,3.11-24.06,2.18-10.35,5.27-20.8,10.41-30.02,.42-.62,1.34-.98,2.21-1.37,1.27-.18,2.65-.31,3.98-.46,1.46-.09,3.88,.32,5.77,.45l6.05,.58,12.26,1.17c2.11,.22,3.02-.17,4.59-.23,1.6-.04,2.3-.54,3.2-.94,15.06-19.74,27.9-40.84,38.55-62.95,15.17-31.98,23.74-66.71,31.24-101.18,.2-.74,.09-1.59-.25-2.53-.22-.89-1.24-2.07-1.82-3.1-.54-1.01-2.29-2.45-3.38-3.65l-3.73-3.76-3.65-3.72c-1.14-1.21-2.59-2.53-3.48-3.64-.59-1.01-1.35-2.08-1.79-3.03-.24-.88-.45-1.75-.18-2.45,2.41-7.05,5.01-14.21,7.76-21.14,16.38-42.85,42.7-81.49,58.36-124.69,10.82-30.21,17.06-62.45,15-94.62-1.84-27.09-9.09-53.47-15.32-79.82-2.79-11.99-5.18-24.41-6.61-36.55-3.64-31.12-.62-62.3,7.11-92.66,8.9-34.44,23.63-67.72,29.96-102.78,4.81-24.07,4.06-48.45,2.82-72.73-3.23-72.63-17.78-144.52-41.71-213.12-3.8-11.04-8.22-23.11-12.43-34.05-13.22-33.7-26.09-67.68-44.76-98.76-7.56-12.74-16.75-25.24-25.79-37-13.05-16.59-26.84-33.07-39.61-49.73-27.89-36.99-51.59-76.83-61.81-122.2-4.58-19.86-7.96-40.49-12.64-60.36-4.24-18.1-10.27-36.27-18.48-52.73-6.78-13.54-11.05-21.89-25.63-28.98-5.48-2.56-11.13-5.03-16.74-7.28-5.2-2.39-10.49-4.83-14.99-8.38-3.08-2.22-5.8-4.95-8.11-7.87-20.39-25.41-40.79-51.49-60.99-77.05-44.32-56.55-89.03-113.34-140.91-163.38-29.58-30.34-60.06-60.24-90.83-89.38-17.67-16.67-36.25-33.18-55.64-47.83-29.19-22.08-60.94-40.84-93.92-56.67-65.98-31.6-137.94-47.74-207.37-69.71-23.02-6.85-45.93-14.45-68.52-22.63-33.76-12.33-68.05-26.33-102.94-35.13-17.59-4.43-35.43-7.99-53.45-10.17-18.12-2-36.54-2.34-54.81-1.54-18.18,.78-36.7,2.41-54.88,3.05-23.96,.84-47.89-.46-71.52-4.48-26.46-4.26-53.74-16.21-79.88-28.68-10.47-4.73-21.02-9.45-31.8-13.27-28.29-10.44-57.97-12.5-87.51-6.46-12.3,2.53-24.58,6.35-36.11,11.39l-4.45,1.9-2.22,.95-2.21,1.05c-29.27,13.84-56.47,33.11-85.84,46.15-11.06,4.97-22.53,9.05-34.22,12.16-8.64,2.24-17.33,4.11-26.29,4.56-9.01,.52-18.4,.12-27.46-1.26-10.14-1.39-18.79-3.44-28.61-5.47-11.96-2.35-26.21-5.62-38.47-6.01l-4.72-.19-2.36-.08-2.33,.03-2.34,.03c-11.47,.41-22.77,2.73-33.67,6.17-8.72,2.67-17.39,5.47-25.88,8.85-55.97,21.06-103.14,60.52-153.57,91.16-16.53,9.95-33.57,18.97-51.05,27.09-9.44,4.28-18.99,8.49-29.01,11.29-13.29,3.83-27.35,6.18-41.18,7.6-14.98,.98-25.14,2.18-39.3,3.2l-2.48,.21c-.82,.09-1.61,.21-2.42,.32l-4.84,.67-9.71,1.35c-1.62,.23-3.25,.44-4.86,.69l-4.73,.94c-3.13,.68-6.29,1.31-9.3,2.2l-4.58,1.25c-16.42,4.45-31.97,11.93-46.56,20.57-37.34,21.62-64.78,56.18-97.01,84.19-22.61,19.38-46.6,39.57-69.18,59.06-36.54,31.74-73.49,64.09-106.65,99.4-20.63,22.27-40.17,45.84-57.28,70.94-13.79,20.08-26.26,41.05-37.45,62.69-1.04,2.04-3.17,6.07-4.15,8.14-1.38,2.71-2.16,5.83-2.35,9.33-.11,.83,.03,1.83,.06,2.75l.16,2.81c.15,1.39,.79,4.58,1.07,6.11l2.52,7.02c2.69,7.26,5.11,13.97,8.11,21.12l2.99,7.12,2.11,6.52c.59,1.99,1.61,4.44,1.83,6.3,1.09,4.85,1.43,10.83-.39,15.07-1.11,2.69-2.8,5.04-4.4,7.45-4.19,6.02-8.93,11.82-14.56,16.57-6.08,5.29-12.01,9.82-19.48,14.01l-8.89,5.11c-1.45,.88-3.08,1.66-4.62,2.49l-4.69,2.48-18.86,10.09-2.33,1.3c-.77,.44-1.49,.91-2.23,1.36l-4.44,2.74-8.9,5.54-4.18,2.94c-4.18,2.82-7.92,6.1-11.83,9.26l-3.73,3.23c-3.45,3.13-6.82,6.71-8.57,10.99-24.32,55.51-40.14,114.23-55.26,172.74-.74,2.92-1.57,5.81-2.63,8.63-22.77,53.62-52.24,105-67.78,161.44-9.77,35.61-15.38,72.54-13.56,109.52,1.72,37,8.99,74.45,11.43,110.97,1.31,16.66,1.73,37.7,2.67,54.5,3.64,66.03,5.67,133.5,6.29,199.61,1.4,82.25-2.34,165.96,10.54,247.56,8.46,51.62,20.32,103.13,46.75,148.94,13.72,24.44,29.21,47.61,43.43,71.41,10.72,18.27,20.37,37.11,28.7,56.57,15.15,33.23,21.51,71.32,28.12,107.81,1.04,4.65,2.59,14.05,3.9,18.83,5,21.4,12.32,42.45,22.82,61.66,2.83,5.63,6.37,10.72,11.37,14.73,1.31,.99,2.63,1.97,3.98,2.93l4.53,2.56c1.56,.84,3.08,1.77,4.7,2.42l5.04,2.18c8.03,3.51,16.52,6.56,23.83,11.45,3.79,2.69,7.48,5.8,10.17,9.52,20.54,26.21,40.82,52.52,60.82,79.17,14.48,18.97,29.56,39.02,44.59,57.65,17.15,21.33,35.42,42,54.77,61.37,10.86,10.6,22.12,21.13,33.67,30.94,4.66,3.99,9.14,8.13,14.59,11.07,1.34,.77,2.79,1.42,4.19,2.12l4.46,1.78c7.76,3.14,17.81,4.97,25.58,8.17,3.67,1.31,7.06,3.24,10.45,5.01l8.17,4.21,4.08,2.1c30.71,15.56,64.59,28.62,96.5,41.61,38.4,15.85,75.11,34.97,109.88,57.84,20.26,13.18,39.4,28.16,58.11,43.45,13.76,11.35,29.42,24.62,43.62,35.41,29.06,23.13,61.25,42.98,96.39,55.35,80.76,30.88,129.55-5.18,205.64-3.21,23.99,.92,47.55,5.86,69.78,15.03,7.08,3.01,14.33,6.06,21.32,9.57,15.67,7.93,31.37,16.29,47.4,23.48,53.49,25.13,108.84,21.08,163.19,1.69,11.99-4.22,23.96-8.14,35.91-12.41,7.34-2.54,14.89-4.59,22.24-6.85,21.89-6.25,44.38-9.96,66.18-16.61,34.44-9.59,68.79-21.74,104.22-26.76,11.67-1.87,23.46-2.82,35.26-3.56,13.29-.57,27.22-1.59,40.86,1.89l4.73,1.09c.79,.2,1.57,.32,2.38,.59l2.41,.76c2.42,.79,4.83,1.42,7.24,2.24l2.46,.98,4.94,1.95,9.92,3.9c.82,.3,1.66,.66,2.51,1.07l2.53,1.16,5.07,2.32,10.16,4.47,10.19,4.31,5.12,2.15c3.39,1.52,6.73,2.58,10.17,3.81l2.53,.86,2.5,.69,5,1.38c.83,.22,1.68,.48,2.5,.66l2.46,.47,4.93,.94c.82,.15,1.65,.33,2.46,.46l2.43,.29,2.43,.29c1.86,.1,5.19,.44,7.17,.35,12.57,.24,24.49-2.79,36.43-6.09,11.81-3.31,23.56-7.45,34.79-12.41,22.75-9.79,44.88-23.7,64.98-38.24,17.7-12.31,36.05-26.86,53.71-39.21,6.34-4.3,12.77-8.89,19.23-13.01,11.49-7.17,23.39-14.33,35.52-20.29,16.11-7.98,32.58-15.85,50.47-18.91,7.58-1.33,15.91-1.92,23.62-2.14,20.12-.18,40.59,2.05,60.85,1.91h9.4c1.57-.04,3.2,.04,4.73-.11,3.08-.24,6.24-.4,9.33-.72l9.25-1.18h0Zm27.58,47.21c-4.24,3.87-10.95,10.23-14.97,14.43-4.8,5.25-9.8,10.72-14.48,16.02-11.01,13.72-21.96,28-33.86,40.93-5.63,6.15-12.08,12.31-18.71,17.37-6.48,4.84-13.53,9.54-20.71,13.11-35.36,16.55-74.32,24.74-113.55,27.45-19.11,1.49-40.81,1.64-59.94,2.19-20.94,.18-43,.96-63.62,3.17-17.2,1.79-34.7,4.82-51.48,8.9-12.33,3.17-24.58,5.93-35.93,12.13-4.34,2.34-8.8,4.8-12.76,7.77-13.34,9.26-25.13,21.72-36.56,33.45-9.03,9.59-15.23,15.73-24.66,24.02l-4.21,3.76-2.11,1.88c-2.12,1.71-4.32,3.28-6.5,4.89l-2.18,1.59c-.72,.55-1.48,.94-2.21,1.42l-4.45,2.74c-15.68,9.98-33.72,13.98-51.44,18.42-19.19,4.26-38.7,6.9-58.35,7.55-39.32,1.37-79.26-4.34-118.43-8-9.61-.93-19.83-1.64-29.34-3-3.57-.46-11.21-1.76-14.65-2.29-31.08-5.57-61.41-16.5-91.79-24.92-47.22-13.15-94.88-15.71-143.48-3.96-26.19,6.04-52.89,13.67-79.59,16.4-43.44,4.25-85.98-6.9-123.05-29.44-19.07-11.41-47.18-32.71-65.87-45.33-8.78-5.62-18.37-11.59-27.61-16.28-16.98-8.85-34.94-15.03-53.29-20.2-12.22-3.38-24.45-6.63-36.92-9.11-22.15-4.78-44.69-8.05-67.2-10.78-19.06-2.33-40.24-5.34-59.22-8.26-29.33-5.07-58.42-12.22-85.99-23.45-42.52-17.43-82.01-42.22-115.87-73.31-23.77-21.64-47.16-47.41-68.88-71.11-4.43-4.82-8.74-9.77-13.19-14.51-4.94-5.4-10.19-10.6-14.37-16.73-1.45-2.11-2.84-4.15-4.1-6.38l-5.05-8.96-2.48-4.5c-.82-1.5-1.62-3.03-2.55-4.4l-2.68-4.22c-4.47-6.75-10.83-11.74-16.7-17.08-4.73-4.22-9.49-8.41-14.28-12.56-21.07-18.71-43.13-38.12-64.15-56.89-50.02-44.52-97.75-92.54-134.57-148.82-3.49-5.35-7.39-10.42-9.62-16.65-.78-2.3-1.65-4.86-2.1-7.27l-.52-2.54c-.19-.83-.22-1.78-.33-2.66l-.27-2.7c-.14-1.82-.37-3.59-.44-5.45-.1-3.76-.14-7.54-.26-11.25-.11-3.43-.12-7.65-.65-10.89-.48-6.58-1.96-13.37-5.16-19.06-4.87-8.05-10.77-15.45-16.67-22.79-8.97-11.3-18.96-21.79-29.06-32.09-24.48-24.24-50.84-47.49-70.2-76.24-10.82-16.01-19.58-33.35-26.68-51.29-17.3-41.91-22.66-87.73-29.02-132.17-6.78-50.79-22.18-98.35-36.93-147.01-21.94-72.54-48.47-145.76-63.21-220.85-9.72-50.2-15.53-101.02-17.54-152.08-1.41-51.34,2.23-102.86,10.34-153.57,6.64-38.07,20.31-74.91,31.29-111.98,4.43-15.17,8.22-30.7,11.29-46.18,5.37-27.81,9.24-56.11,11.82-84.33,3.54-38.22,4.46-77.25,9.09-115.38,2.04-16.01,4.34-32.04,7.74-47.81,2.67-9.26,6.7-18.08,10.14-27.07,4.79-11.72,9.97-23.87,15.17-35.45,11.46-26.04,24.93-52.48,37.45-78.05,7.06-14.09,14.49-28.75,21.56-42.8,2.96-5.89,3.54-12.84,3.88-19.4l.44-10.5,.11-10.74-.43-11.09c-.53-13.37-1.65-29.72-2.27-42.68-.07-.97-.07-1.91-.04-2.83l.22-11.17,.06-2.8c.03-.93,.02-1.88,.13-2.77l.51-5.41c1.42-13.64,5.42-27.14,11.94-39.2,1.67-2.89,3.19-5.88,5.34-8.46,2.2-2.56,4.94-4.79,8.56-6.46,.9-.42,1.6-.97,2.67-1.28l3-1.06c.96-.38,2.01-.7,3.27-.89,1.49-.32,8.9-1.66,10.72-2.02,7.94-.74,16-1.42,23.58-2.35,3.9-.48,11.47-1.18,15.35-1.56,2-.58,4.43-1,6.27-1.64l2.75-1.06c7.87-2.62,12.15-9.23,17.09-14.54,8.63-9.58,16.97-19.31,25.52-28.86,25.03-28.54,50.25-57.86,74.83-86.81,32.72-38.63,66.17-77.89,102.25-113.47,18.03-17.89,37.2-35.06,56.78-51.24,17.31-14.1,34.98-27.85,54.33-39.09,19.04-11.59,39.49-21.22,58.77-32.35,16.44-9.37,32.38-19.99,47.17-31.83,8.82-6.96,17.35-14.48,25.11-22.61,4.51-4.51,9.11-9.97,13.4-14.77l3.2-3.99,6.42-8.02c8.73-10.77,16.94-22.12,25.85-32.8,10.53-13.12,22.74-25.81,36.06-36.08,22.39-16.94,48.35-27.5,74.52-36.92,10.79-3.57,22.07-6.91,33.11-9.53,50.77-12.33,104.72-14.41,155.61-23.88,12.7-2.08,25.15-4.9,37.57-7.73,12.36-3.09,24.8-5.78,36.63-10.91,3.86-1.71,7.31-3.23,11.04-5.11l2.17-1.19,4.34-2.4,2.17-1.2c.72-.42,1.43-.89,2.15-1.33,7.1-4.3,14.62-9.39,21.36-14.27,7.08-5.05,18.36-12.87,25.87-17.71,17.39-11.04,35.5-18.42,55.5-20.97,19.57-2.48,39.77-1.75,59.29,1.38,29.91,4.79,60.23,16.2,89.57,24.22,40.36,11.18,82.94,14.19,123.53,2.48,9.61-2.84,19.2-5.8,28.49-9.63,15.86-5.74,32.21-12.65,48.33-17.78,12.71-3.95,26-7.22,39.14-8.75,32.39-3.62,65.04,.32,96.54,8.72,18.96,5.08,37.48,11.97,55.99,18.45,8.78,3.07,18.73,6.71,27.69,9.47,45.8,15.02,93.08,23.41,140.41,32.32,34.77,6.3,69.39,14.19,102.62,26.34,51.5,18.57,99.98,44.54,146.38,73.41,37.68,23.69,75.63,47.57,113.83,70.35,27.23,16.24,54.82,32.02,82.76,47.04,8.28,4.31,17.12,9.13,25.38,13.54,7.81,4.11,17.74,9.32,25.45,13.65,22.51,12.18,45.03,25.31,66.44,39.36,9.25,6.09,23.01,15.39,32.05,21.63,5.31,3.67,10.66,7.3,15.77,11.22,86.87,66.71,173.31,137.69,239.35,226.12,3.52,4.73,8.45,10.77,10.9,16.14,.38,.73,.7,1.5,.99,2.29l.92,2.35c4.14,11.46,4.31,25.21,6.67,37.11,1.98,10.35,6.43,18.54,13.3,25.89,19.41,22.93,42.29,41.78,65.9,60.5,16.97,13.81,34.55,28.12,49.11,44.52,12.1,13.58,22.61,28.57,31.11,44.64,15.88,29.14,26.93,60.83,33.77,93.3,4.89,22.43,8.52,47.2,12.27,69.9,4.21,25.97,8.7,52.14,15.11,77.62,24.24,103.1,37.32,208.44,52.12,313.14,2.57,18.74,4.79,38.36,7.27,57.1,6.53,51.87,30.85,102.48,38.37,154.76,6.07,42.8,.42,86.81-17.84,126.11-12.48,27.9-29.1,53.82-41.47,81.72-21.39,46.92-28.55,98.62-32.23,149.59-1.56,19.41-3.13,38.97-6.28,58.16-3.36,20.71-8.6,41.08-15.84,60.76-.24,.77-.97,1.37-1.73,1.95-.95,.51-2.24,.91-3.34,1.37-1.4,.35-3.39,.49-5.06,.75-2.68,.37-7.87,.98-10.55,1.3-1.62,.26-3.89,.28-4.96,.74-1.11,.44-2.66,.72-3.41,1.29-.88,.52-1.5,1.14-1.84,1.86l-2.24,4.24c-10.12,19.26-21.56,39.67-31.19,59.04-11.32,22.63-21.33,45.79-29.69,69.67-2.97,8.9-8,22.91-10.72,31.7l-.74,2.28c-.23,.77-.58,1.48-.49,2.41,.2,.99,.21,1.88,1.12,3.23,.88,1.34,1.09,2.34,2.51,3.95,2.68,3.15,5.44,6.36,8.05,9.5l3.88,4.7c1.17,1.51,2.86,3.28,3.59,4.57,.6,1.22,1.25,2.47,1.8,3.66,.15,.99,.34,2,.04,2.75-5.15,10.15-12.17,19.57-20.35,27.58-.6,.59-1.16,1.2-1.78,1.78l-1.89,1.72-3.78,3.43c-15.48,13.47-34.07,24.27-48.31,38.46-3.52,3.27-6.93,6.89-9.98,10.62-3.97,4.97-7.73,10.09-10.62,15.77-2.1,4.41-3.32,9.65-3.45,14.73-.08,.89-.12,1.81-.02,2.83l.17,2.96,.34,5.93,.87,6.31c.57,4.21,1.17,8.45,1.67,12.65,.14,1.06,.26,2.11,.25,3.07l.09,2.97,.16,5.94-.27,2.74c-.11,.9-.13,1.86-.33,2.71l-.56,2.55c-.21,.84-.33,1.73-.63,2.51-1.9,6.46-6.16,11.4-9.88,16.78-11.14,15.7-23.18,31.42-35.39,46.29-22.69,27.4-47.29,53.34-73.38,77.52-54.06,50.07-113.66,94.68-171.95,139.48-19.83,15.15-40.84,30.81-60.3,46.27-24.86,19.49-49.23,39.64-74.73,58.3-10.28,7.37-20.24,15.31-31.63,20.93-6.23,3.22-11.85,7.23-16.56,12.6h0Z"/></g></g></svg>