<?xml version="1.0" encoding="UTF-8"?><svg id="Layer_2" xmlns="http://www.w3.org/2000/svg" viewBox="0 0 3162.58 3191.16"><defs><style>.cls-1{opacity:.5;}.cls-2{fill:#680000;}</style></defs><g id="Layer_1-2"><g class="cls-1"><path class="cls-2" d="M1175.62,3053.64c4.75,3.12,10.19,4.47,15.8,4.95,6.14,.54,12.18,1.54,18.16,3,10.64,2.58,25.31,5.57,35.82,8,41.75,9.47,84.1,17.1,126.94,19.09,79.09,5,159.21-3.5,237.11-14.16,35.69-4.73,71.36-9.39,107.09-13.69,11.54-1.2,24.03-3.01,35.53-4.18l4.45-.48,4.44-.55c4.51-.75,9.33,.12,13.72,1.57,.78,.22,1.59,.65,2.38,.96l2.4,1.03,4.91,2.89,2.46,1.44c.82,.44,1.65,1.03,2.5,1.64,3.36,2.37,6.72,4.62,10.1,6.95l5.09,3.46,5.01,2.81c5.72,3.44,12.79,5.87,19.36,5.57,12.32-1.24,24.25-5.35,35.2-11.1,11.35-6.36,22.13-14.34,32.63-22.21,6.35-4.99,13.11-9.6,20.07-13.63,9.19-5.23,19.06-9.86,29.37-12.13,.74-.1,1.63,.35,2.49,.75,.98,.83,1.99,1.78,2.98,2.67,1.03,1.04,2.33,3.11,3.49,4.61l3.58,4.91,7.25,9.95c1.23,1.73,2.13,2.15,3.21,3.28,1.09,1.16,1.93,1.36,2.83,1.77,24.76-1.83,49.07-6.21,72.68-12.91,33.99-9.86,65.67-26.48,96.44-43.74,.69-.34,1.25-.98,1.73-1.86,.52-.76,.73-2.31,1.11-3.42,.39-1.08,.31-3.34,.49-4.95l.34-5.28,.36-5.19c.15-1.66,.17-3.62,.42-5.02,.37-1.11,.66-2.39,1.08-3.35,.5-.77,1.01-1.5,1.72-1.76,6.88-2.87,13.96-5.68,20.97-8.21,42.93-16.16,89.31-22.11,132.02-39.04,29.78-11.94,58.05-28.67,80.75-51.54,20.18-20.47,35.65-44.98,52.33-68.27,9.84-13.6,20.57-26.74,32.69-38.24,18.28-17.44,39.04-31.63,61.56-43.25,31.68-16.19,66.35-27.24,96.78-45.77,21.21-12.36,38.95-29.1,56.29-46.14,52.2-50.6,96.35-109.17,131.8-172.59,5.74-10.17,11.84-21.48,17.24-31.89,16.45-32.25,33.33-64.42,44.21-99.01,4.52-14.11,7.78-29.28,10.58-43.84,3.75-20.77,6.94-42.02,10.93-62.63,9.18-45.41,23.27-89.57,50.44-127.32,11.83-16.6,25.01-32.82,36.79-49.5,10.73-15.18,20.33-31.74,27.2-48.81,5.63-14.03,9.05-22.82,4.68-38.4-1.72-5.8-3.62-11.67-5.65-17.35-1.66-5.47-3.34-11.05-3.67-16.77-.39-3.78-.15-7.62,.51-11.29,5.49-32.12,11.47-64.68,17.19-96.75,12.91-70.68,25.75-141.81,28.78-213.82,3.08-42.26,5.23-84.9,6.63-127.26,.75-24.28,.78-49.14-1.12-73.36-2.84-36.49-9.86-72.69-19.9-107.87-20.12-70.33-55.78-134.89-85.4-201.42-10.15-21.78-19.65-43.95-28.52-66.29-13.17-33.44-25.44-68.39-42-100.33-8.35-16.1-17.52-31.82-27.85-46.74-10.52-14.88-22.49-28.89-35.21-42.03-12.65-13.09-26.15-25.86-38.69-39.04-16.52-17.38-31.42-36.14-44.09-56.49-14.36-22.63-23.52-50.96-31.53-78.8-3.41-10.97-6.87-22-11.16-32.59-10.97-28.11-29.08-51.65-53.22-69.76-10.05-7.53-21.06-14.18-32.47-19.46l-4.37-2.07-2.18-1.03-2.25-.96c-38.34-16.17-80.2-24.35-115.72-46.34-5.12-3.08-10.03-6.44-14.87-9.91-9.8-7.01-18.08-15.61-25.45-25.25-3.79-5.23-7.15-10.27-10.5-15.72-5.36-9.25-9.52-16.65-14.69-25.52-4.82-8.17-10.08-17.04-16.08-24.26l-2.99-3.65-1.5-1.82-1.57-1.73-1.57-1.73-1.62-1.66c-7.53-7.63-16.2-13.93-25.33-19.44-7.78-4.76-15.63-9.38-23.79-13.5-52.89-27.91-113.71-37.03-170.08-54.44-18.41-5.77-36.47-12.54-54.14-20.22-9.46-4.22-18.95-8.58-27.69-14.22-11.68-7.4-22.77-16.37-33.01-25.77-10.67-10.56-18.31-17.37-28.47-27.28l-1.8-1.72c-.61-.55-1.23-1.07-1.85-1.6l-3.71-3.18-7.45-6.37c-1.25-1.06-2.49-2.14-3.75-3.18l-3.84-2.91c-2.58-1.89-5.15-3.84-7.82-5.5l-3.97-2.6c-14.22-9.33-30.13-16.01-46.28-21.19-40.94-13.6-85.02-11.2-127.35-16.74-29.5-4.06-60.52-8.61-90.09-12.59-47.99-6.29-96.71-12.48-145.13-13.86-30.35-.67-60.95,.35-91.08,4.19-24.18,3-48.14,7.59-71.75,13.57-2.22,.57-6.65,1.65-8.84,2.3-2.95,.77-5.8,2.25-8.54,4.43-.7,.47-1.35,1.24-2.02,1.87l-2,1.98c-.94,1.04-2.9,3.63-3.86,4.85l-3.58,6.54c-3.65,6.83-7.06,13.09-10.42,20.08l-3.35,6.96-3.48,5.9c-1.1,1.76-2.25,4.15-3.5,5.55-2.89,4.09-7.17,8.21-11.53,9.7-2.75,.96-5.63,1.25-8.49,1.65-7.28,.86-14.76,1.16-22.06,.09-7.99-1.04-15.31-2.47-23.4-5.28l-9.72-3.26c-1.62-.5-3.29-1.21-4.93-1.81l-4.97-1.87-20.06-7.42-2.52-.88c-.84-.28-1.66-.51-2.5-.77l-5-1.5-10.05-2.99-4.97-1.18c-4.89-1.26-9.82-1.88-14.78-2.71l-4.89-.65c-4.63-.51-9.54-.65-13.91,.88-23.05,7.51-45.69,16.28-67.93,25.89-27.77,12.14-54.84,25.57-81.87,39.12-10.85,5.28-21.18,11.75-32.94,14.84-34.99,11.08-71.05,20.6-105.77,32.46-29.16,9.92-57.41,22.7-83.72,38.75-21.16,12.63-40.93,27.61-58.61,44.81-26.55,25.83-49.74,56.11-75.46,82.17-11.6,12.03-27.07,26.3-39.01,38.15-47,46.52-96.13,92.81-145.2,137.13-60.62,55.61-125.73,108.34-178.25,172.12-33.01,40.58-63.69,83.62-80.44,133.79-9.19,26.48-16.25,53.44-24.62,79.88-6.56,20.14-14.26,39.86-23.3,59-14.81,33.38-39.1,63.4-62.02,92.56-2.79,3.86-8.79,11.26-11.5,15.41-12.7,17.94-23.59,37.38-31,57.98-2.34,5.85-3.79,11.88-3.48,18.29,.13,1.64,.27,3.28,.45,4.92l1.09,5.08c.41,1.73,.72,3.48,1.31,5.13l1.71,5.21c2.71,8.34,6.05,16.71,7.24,25.42,.5,4.62,.62,9.45-.38,13.93-5.98,32.75-12.21,65.39-18.9,98.03-4.59,23.42-9.59,48-13.56,71.61-4.59,26.99-7.93,54.36-9.59,81.69-.73,15.16-1.14,30.57-.82,45.72,.1,6.13-.03,12.23,1.39,18.27,.31,1.52,.79,3.03,1.19,4.54l1.62,4.52c2.8,7.89,8.1,16.62,10.85,24.57,1.45,3.62,2.26,7.43,3.18,11.14l2.27,8.9,1.13,4.44c8.72,33.3,21.43,67.32,32.88,99.81,13.61,39.24,23.66,79.41,29.61,120.59,3.57,23.9,5.06,48.16,6.04,72.31,.64,17.82,1.09,38.34,2.43,56.13,1.97,37.09,8.47,74.34,22.52,108.84,30.47,80.91,89.82,93.5,138.82,151.75,15.22,18.56,27.16,39.46,35.05,62.18,2.45,7.29,4.97,14.74,6.98,22.3,4.46,16.99,8.63,34.28,13.87,51.04,16.68,56.7,56.43,95.43,106.99,123.24,11.11,6.17,21.99,12.53,33.11,18.64,6.77,3.81,13.31,8.1,19.88,12.1,19.2,12.23,36.9,26.6,56.33,38.5,30.02,19.4,61.9,37.05,89.17,60.24,9.14,7.49,17.68,15.69,26.05,24.02,9.24,9.56,19.25,19.31,25.69,31.82l2.32,4.26c.37,.73,.8,1.38,1.13,2.17l1.03,2.31c1.02,2.33,2.14,4.56,3.13,6.91l.9,2.49,1.81,4.99,3.66,10.01c.32,.82,.61,1.68,.86,2.59l.81,2.66,1.63,5.33,3.39,10.57,3.53,10.48,1.79,5.26c1.11,3.55,2.53,6.75,3.9,10.14l1.03,2.47,1.14,2.32,2.29,4.66c.39,.77,.75,1.57,1.16,2.31l1.28,2.15,2.56,4.31c.43,.71,.85,1.45,1.29,2.15l1.39,2.01,1.39,2.01,1.47,1.91,1.47,1.91c6.52,7.88,14.27,14.23,22.61,19.92,8.8,6.15,18.14,11.61,27.56,16.77,15.21,7.84,31.04,14.5,47.4,19.6,32.1,10.07,66.75,15.96,99.52,23.37,8.14,2.25,16.65,3.94,24.75,6.33,12.99,3.84,26.24,8,38.75,13.12,16.66,6.76,33.47,13.86,47.63,25.22,6.02,4.79,11.99,10.63,17.27,16.26,13.48,14.93,25.39,31.73,38.94,46.8l3.1,3.5,3.14,3.53c1.06,1.15,2.09,2.43,3.22,3.46,2.22,2.15,4.43,4.4,6.73,6.5l7.02,6.14h0Zm-17.03,51.96c-5.71-.6-14.92-1.41-20.73-1.62-7.11-.11-14.52-.23-21.59-.21-17.56,.86-35.52,2.14-53.09,1.82-8.33-.13-17.22-.88-25.41-2.48-7.92-1.64-16.12-3.79-23.55-6.81-35.84-15.48-67.82-39.19-95.87-66.76-13.79-13.32-28.29-29.45-41.4-43.39-14.03-15.55-29.24-31.54-44.58-45.5-12.75-11.68-26.62-22.77-40.81-32.62-10.55-7.12-20.74-14.46-32.91-18.84-4.63-1.7-9.43-3.4-14.27-4.39-15.78-3.84-32.92-4.4-49.29-5.17-13.16-.39-21.88-.96-34.34-2.52l-5.61-.66-2.81-.33c-2.69-.45-5.31-1.06-7.97-1.62l-2.63-.58c-.89-.18-1.68-.48-2.53-.72l-5.01-1.51c-17.87-5.12-32.83-15.95-47.91-26.27-15.91-11.53-30.84-24.38-44.36-38.65-27.11-28.52-49.33-62.19-72.57-93.92-5.68-7.81-11.93-15.93-17.22-23.95-2.02-2.98-6.11-9.55-8.01-12.49-16.45-26.95-28.39-56.9-42.24-85.22-21.49-44.05-51.19-81.42-92.21-109.99-21.89-15.6-45.32-30.51-65.07-48.68-32-29.68-51.87-68.91-59.6-111.6-4.11-21.84-6.82-57-9.78-79.36-1.62-10.29-3.52-21.43-6.14-31.46-4.64-18.57-11.93-36.12-20.24-53.28-5.58-11.39-11.26-22.69-17.67-33.67-11.12-19.74-23.62-38.78-36.51-57.43-10.9-15.81-22.7-33.65-33.11-49.79-15.66-25.31-29.61-51.82-39.49-79.9C6.9,1892.63-.75,1846.64,.06,1800.67c.42-32.14,4.19-66.74,7.51-98.71,.67-6.51,1.52-13.02,2.11-19.5,.76-7.28,1.17-14.66,2.98-21.85,.61-2.48,1.22-4.88,2.05-7.3l3.36-9.72,1.72-4.84c.58-1.61,1.19-3.22,1.6-4.83l1.38-4.81c2.08-7.82,1.6-15.89,1.7-23.83,.02-6.34,0-12.68-.08-19.02,.02-28.17-.08-57.56,.01-85.74,.14-66.97,4.4-134.54,22.09-199.42,1.69-6.16,2.9-12.44,6.08-18.24,1.2-2.11,2.55-4.46,4.05-6.39l1.56-2.07c.49-.7,1.19-1.34,1.77-2.02l1.84-1.99c1.27-1.32,2.44-2.66,3.79-3.95,2.75-2.57,5.55-5.11,8.25-7.66,2.49-2.36,5.64-5.16,7.72-7.72,4.61-4.73,8.7-10.34,10.83-16.51,2.79-8.98,4.42-18.31,5.99-27.59,2.51-14.21,3.73-28.64,4.74-43.03,1.9-34.4,1.81-69.55,10.47-103.11,4.8-18.71,11.96-36.77,20.67-53.99,19.89-40.75,50.62-75.15,79.65-109.4,33.51-38.77,58.88-81.84,85.51-125.16,39.73-64.54,76.92-132.97,123.33-193.8,31.11-40.58,65.29-78.63,102.17-114.01,37.48-35.11,78.45-66.57,121.77-94.14,32.89-20.29,69.53-34.49,104.55-50.87,14.29-6.75,28.42-14.21,42.05-22.19,24.37-14.43,48.12-30.31,70.94-47.1,30.95-22.7,60.76-47.92,92.37-69.74,13.34-9.09,26.85-18.01,40.91-25.93,8.7-4.14,17.98-6.98,26.98-10.37,11.95-4.2,24.48-8.38,36.59-12.17,27.09-8.7,55.81-16.16,83.24-23.75,15.23-4.06,31.13-8.23,46.33-12.26,6.37-1.69,11.96-5.87,17.1-9.96l8.15-6.63,8.1-7.04,8.01-7.68c9.65-9.27,21.14-20.95,30.44-30.01,.68-.7,1.38-1.32,2.09-1.91l8.5-7.25,2.14-1.81c.71-.6,1.42-1.24,2.16-1.74l4.39-3.21c11.15-7.98,23.9-13.95,37.26-17.07,3.27-.67,6.52-1.51,9.88-1.61,3.38-.05,6.86,.52,10.51,2.12,.91,.39,1.78,.55,2.72,1.15l2.78,1.54c.92,.46,1.86,1.04,2.83,1.85l2.88,2.22,5.74,4.46c5.82,5.45,11.67,11.03,17.4,16.08,2.94,2.6,8.49,7.8,11.35,10.45,1.76,1.12,3.69,2.65,5.39,3.6l2.62,1.36c7.18,4.15,14.97,2.97,22.21,3.14,12.89,.11,25.71-.12,38.52-.05,37.96-.2,76.63-.78,114.6-1.59,50.61-1.14,102.18-2.15,152.74,1.24,25.35,1.63,50.91,4.58,76.01,8.5,22.04,3.6,44.05,7.7,65.29,14.72,21.3,6.56,42.07,15.47,63.2,22.52,17.92,6.09,36.44,10.96,55.11,14.18,11.05,1.98,22.34,3.38,33.58,3.79,6.37,.39,13.51,.2,19.94,.23l5.11-.25,10.26-.51c13.85-.61,27.79-2,41.69-2.42,30.01-1.7,60.97,2.45,88.39,14.92,30.29,12.56,58.68,29.56,84.68,49.51,12.78,9.75,26.03,21.16,38.23,31.61,31.88,28.28,62.99,56.22,97.6,80.31,11.79,8.12,23.5,16.58,36.88,22.18,2.74,1.28,6.21,2.69,9.06,3.69l4.68,1.66,2.34,.83c.79,.26,1.61,.48,2.42,.73l4.86,1.43c10.06,2.97,20.09,5.09,30.19,7.47,3.89,.98,13.66,3.49,17.71,4.53,14.01,3.89,27.59,9.28,39.33,16.67,11.13,6.96,20.79,15.75,29.72,25.33,8.92,9.42,17.21,20.61,24.26,31.6,16.26,25.56,27.83,55.82,41.3,83.09,18.41,37.62,44.41,71.48,80.09,94.08,8.5,5.31,17.07,10.52,26.11,14.94,14.81,8.06,30.84,15.71,45.37,24.37,11.39,6.89,22.65,14.66,32.52,23.48,24.2,21.84,42.91,48.88,57.52,78.03,8.78,17.56,15.91,35.98,23.33,54.14,3.53,8.61,7.4,18.46,11.28,27,19.14,44.23,44.22,85.18,68.96,126.51,18.35,30.2,35.42,61.34,48.37,94.26,20.26,50.86,32.99,104.36,42.17,158.23,7.27,43.91,14.58,88.15,22.87,131.85,5.92,31.15,12.41,62.26,19.7,93.14,2.27,9.05,4.53,18.86,6.7,27.97,2.1,8.57,4.79,19.46,6.66,28.1,5.82,24.93,10.94,50.49,14.62,75.83,1.58,10.96,3.74,27.43,5.08,38.34,.77,6.41,1.61,12.82,2.07,19.24,7.7,109.26,11.94,221.03-10.42,329.1-1.2,5.77-2.45,13.47-4.84,18.86-.29,.77-.67,1.52-1.06,2.27l-1.15,2.24c-5.83,10.7-16.01,19.95-23.34,29.61-6.43,8.34-9.61,17.11-10.55,27.12-4.28,29.74-3.21,59.36-1.56,89.45,.92,21.86,1.88,44.51-.73,66.28-2.14,18.06-6.38,35.88-12.77,52.89-12.36,34.44-31.16,66.31-53.44,95.28-18.24,23.71-38.56,47.54-57.13,70.97-12.2,15.19-23.48,31.26-34.72,47.17-59.69,83.54-127.69,160.74-194.1,238.82-12.31,14.35-25.53,29.04-37.91,43.32-34.48,39.29-56.22,91.07-90.35,131.38-27.99,32.94-64.68,57.9-106.2,70.31-29.16,9.17-59.57,13.93-88.66,23.18-49.3,15.12-92.74,44.06-133.32,75.12-15.56,11.7-31.24,23.51-47.68,33.88-17.72,11.22-36.45,20.81-55.97,28.46-.74,.33-1.66,.18-2.6,0-1.02-.37-2.17-1.07-3.24-1.59-1.19-.81-2.62-2.21-3.91-3.29-2.06-1.76-5.96-5.24-7.97-7.03-1.27-1.03-2.79-2.72-3.84-3.22-1.07-.54-2.3-1.51-3.23-1.7-.97-.31-1.85-.36-2.61-.15l-4.66,1.13c-21.13,5.21-43.99,10.19-64.87,15.82-24.44,6.54-48.42,14.42-71.83,24-8.63,3.68-22.45,9.21-30.83,13.01l-2.2,.96c-.73,.34-1.49,.54-2.13,1.23-.61,.81-1.27,1.41-1.68,2.98-.42,1.54-1.02,2.37-1.29,4.5-.58,4.1-1.15,8.29-1.77,12.33l-.95,6.02c-.35,1.87-.56,4.32-1.04,5.72-.51,1.25-1.01,2.57-1.55,3.77-.64,.76-1.27,1.58-2.04,1.85-11.02,2.88-22.72,3.88-34.13,3.07-.84-.05-1.67-.07-2.51-.15l-2.54-.28-5.07-.56c-20.35-2.65-40.76-9.39-60.82-10.64-4.78-.47-9.75-.62-14.56-.43-6.35,.33-12.68,.91-18.84,2.52-4.69,1.36-9.42,3.92-13.31,7.19-.72,.53-1.44,1.11-2.13,1.86l-2.1,2.09-4.21,4.19-4.14,4.84c-2.77,3.21-5.55,6.48-8.36,9.64-.7,.8-1.4,1.59-2.13,2.23l-2.16,2.03-4.34,4.07-2.23,1.62c-.75,.51-1.48,1.14-2.24,1.55l-2.28,1.27c-6.54,3.81-14.1,4.17-21.41,4.93-6.44,.66-12.89,1.28-19.34,1.86-14.23,1.35-29.39,1.95-43.63,2.56-33.95,.8-68.04-.3-101.83-3.68-73.33-7.24-146.25-22.24-218.44-36.14-10.74-2.02-26.74-5.36-37.33-7.42-52.64-10.72-106.13-17.34-158.17-30.81-4.59-1.47-8.98-3.37-13.6-4.84-5.14-1.65-10.27-2.37-15.79-2.42h0Z"/></g></g></svg>