<?xml version="1.0" encoding="UTF-8"?><svg id="Layer_2" xmlns="http://www.w3.org/2000/svg" viewBox="0 0 3221.05 3236.19"><defs><style>.cls-1{opacity:.5;}.cls-2{fill:#4d4d4d;}.cls-3{fill:#680000;}.cls-4{fill:#940000;}.cls-5{opacity:.82;}.cls-6{opacity:.71;}</style></defs><g id="Layer_1-2"><g class="cls-5"><g class="cls-6"><path class="cls-2" d="M2420.24,2896.79c5.48-1.48,10.11-4.66,14.19-8.53,4.48-4.24,9.23-8.09,14.29-11.59,8.99-6.25,20.96-15.24,29.75-21.5,34.78-24.96,68.58-51.58,98.5-82.33,56.21-55.86,103-121.46,146.7-186.82,20.14-29.84,40.31-59.63,60.8-89.21,6.76-9.43,13.69-19.98,20.45-29.36l2.59-3.64,2.53-3.69c2.43-3.87,6.28-6.9,10.28-9.22,.68-.44,1.54-.76,2.3-1.14l2.36-1.11,5.42-1.76,2.72-.89c.87-.32,1.87-.56,2.88-.78,4-.94,7.92-1.96,11.9-2.95l5.96-1.51,5.43-1.89c6.37-2,12.88-5.68,17.01-10.79,7.25-10.05,12.09-21.69,15.04-33.71,2.77-12.72,3.95-26.07,5.03-39.15,.48-8.06,1.52-16.18,3.11-24.06,2.18-10.35,5.27-20.8,10.41-30.02,.42-.62,1.34-.98,2.21-1.37,1.27-.18,2.65-.31,3.98-.46,1.46-.09,3.88,.32,5.77,.45l6.05,.58,12.26,1.17c2.11,.22,3.02-.17,4.59-.23,1.6-.04,2.3-.54,3.2-.94,15.06-19.74,27.9-40.84,38.55-62.95,15.17-31.98,23.74-66.71,31.24-101.18,.2-.74,.09-1.59-.25-2.53-.22-.89-1.24-2.07-1.82-3.1-.54-1.01-2.29-2.45-3.38-3.65l-3.73-3.76-3.65-3.72c-1.14-1.21-2.59-2.53-3.48-3.64-.59-1.01-1.35-2.08-1.79-3.03-.24-.88-.45-1.75-.18-2.45,2.41-7.05,5.01-14.21,7.76-21.14,16.38-42.85,42.7-81.49,58.36-124.69,10.82-30.21,17.06-62.45,15-94.62-1.84-27.09-9.09-53.47-15.32-79.82-2.79-11.99-5.18-24.41-6.61-36.55-3.64-31.12-.62-62.3,7.11-92.66,8.9-34.44,23.63-67.72,29.96-102.78,4.81-24.07,4.06-48.45,2.82-72.73-3.23-72.63-17.78-144.52-41.71-213.12-3.8-11.04-8.22-23.11-12.43-34.05-13.22-33.7-26.09-67.68-44.76-98.76-7.56-12.74-16.75-25.24-25.79-37-13.05-16.59-26.84-33.07-39.61-49.73-27.89-36.99-51.59-76.83-61.81-122.2-4.58-19.86-7.96-40.49-12.64-60.36-4.24-18.1-10.27-36.27-18.48-52.73-6.78-13.54-11.05-21.89-25.63-28.98-5.48-2.56-11.13-5.03-16.74-7.28-5.2-2.39-10.49-4.83-14.99-8.38-3.08-2.22-5.8-4.95-8.11-7.87-20.39-25.41-40.79-51.49-60.99-77.05-44.32-56.55-89.03-113.34-140.91-163.38-29.58-30.34-60.06-60.24-90.83-89.38-17.67-16.67-36.25-33.18-55.64-47.83-29.19-22.08-60.94-40.84-93.92-56.67-65.98-31.6-137.94-47.74-207.37-69.71-23.02-6.85-45.93-14.45-68.52-22.63-33.76-12.33-68.05-26.33-102.94-35.13-17.59-4.43-35.43-7.99-53.45-10.17-18.12-2-36.54-2.34-54.81-1.54-18.18,.78-36.7,2.41-54.88,3.05-23.96,.84-47.89-.46-71.52-4.48-26.46-4.26-53.74-16.21-79.88-28.68-10.47-4.73-21.02-9.45-31.8-13.27-28.29-10.44-57.97-12.5-87.51-6.46-12.3,2.53-24.58,6.35-36.11,11.39l-4.45,1.9-2.22,.95-2.21,1.05c-29.27,13.84-56.47,33.11-85.84,46.15-11.06,4.97-22.53,9.05-34.22,12.16-8.64,2.24-17.33,4.11-26.29,4.56-9.01,.52-18.4,.12-27.46-1.26-10.14-1.39-18.79-3.44-28.61-5.47-11.96-2.35-26.21-5.62-38.47-6.01l-4.72-.19-2.36-.08-2.33,.03-2.34,.03c-11.47,.41-22.77,2.73-33.67,6.17-8.72,2.67-17.39,5.47-25.88,8.85-55.97,21.06-103.14,60.52-153.57,91.16-16.53,9.95-33.57,18.97-51.05,27.09-9.44,4.28-18.99,8.49-29.01,11.29-13.29,3.83-27.35,6.18-41.18,7.6-14.98,.98-25.14,2.18-39.3,3.2l-2.48,.21c-.82,.09-1.61,.21-2.42,.32l-4.84,.67-9.71,1.35c-1.62,.23-3.25,.44-4.86,.69l-4.73,.94c-3.13,.68-6.29,1.31-9.3,2.2l-4.58,1.25c-16.42,4.45-31.97,11.93-46.56,20.57-37.34,21.62-64.78,56.18-97.01,84.19-22.61,19.38-46.6,39.57-69.18,59.06-36.54,31.74-73.49,64.09-106.65,99.4-20.63,22.27-40.17,45.84-57.28,70.94-13.79,20.08-26.26,41.05-37.45,62.69-1.04,2.04-3.17,6.07-4.15,8.14-1.38,2.71-2.16,5.83-2.35,9.33-.11,.83,.03,1.83,.06,2.75l.16,2.81c.15,1.39,.79,4.58,1.07,6.11l2.52,7.02c2.69,7.26,5.11,13.97,8.11,21.12l2.99,7.12,2.11,6.52c.59,1.99,1.61,4.44,1.83,6.3,1.09,4.85,1.43,10.83-.39,15.07-1.11,2.69-2.8,5.04-4.4,7.45-4.19,6.02-8.93,11.82-14.56,16.57-6.08,5.29-12.01,9.82-19.48,14.01l-8.89,5.11c-1.45,.88-3.08,1.66-4.62,2.49l-4.69,2.48-18.86,10.09-2.33,1.3c-.77,.44-1.49,.91-2.23,1.36l-4.44,2.74-8.9,5.54-4.18,2.94c-4.18,2.82-7.92,6.1-11.83,9.26l-3.73,3.23c-3.45,3.13-6.82,6.71-8.57,10.99-24.32,55.51-40.14,114.23-55.26,172.74-.74,2.92-1.57,5.81-2.63,8.63-22.77,53.62-52.24,105-67.78,161.44-9.77,35.61-15.38,72.54-13.56,109.52,1.72,37,8.99,74.45,11.43,110.97,1.31,16.66,1.73,37.7,2.67,54.5,3.64,66.03,5.67,133.5,6.29,199.61,1.4,82.25-2.34,165.96,10.54,247.56,8.46,51.62,20.32,103.13,46.75,148.94,13.72,24.44,29.21,47.61,43.43,71.41,10.72,18.27,20.37,37.11,28.7,56.57,15.15,33.23,21.51,71.32,28.12,107.81,1.04,4.65,2.59,14.05,3.9,18.83,5,21.4,12.32,42.45,22.82,61.66,2.83,5.63,6.37,10.72,11.37,14.73,1.31,.99,2.63,1.97,3.98,2.93l4.53,2.56c1.56,.84,3.08,1.77,4.7,2.42l5.04,2.18c8.03,3.51,16.52,6.56,23.83,11.45,3.79,2.69,7.48,5.8,10.17,9.52,20.54,26.21,40.82,52.52,60.82,79.17,14.48,18.97,29.56,39.02,44.59,57.65,17.15,21.33,35.42,42,54.77,61.37,10.86,10.6,22.12,21.13,33.67,30.94,4.66,3.99,9.14,8.13,14.59,11.07,1.34,.77,2.79,1.42,4.19,2.12l4.46,1.78c7.76,3.14,17.81,4.97,25.58,8.17,3.67,1.31,7.06,3.24,10.45,5.01l8.17,4.21,4.08,2.1c30.71,15.56,64.59,28.62,96.5,41.61,38.4,15.85,75.11,34.97,109.88,57.84,20.26,13.18,39.4,28.16,58.11,43.45,13.76,11.35,29.42,24.62,43.62,35.41,29.06,23.13,61.25,42.98,96.39,55.35,80.76,30.88,129.55-5.18,205.64-3.21,23.99,.92,47.55,5.86,69.78,15.03,7.08,3.01,14.33,6.06,21.32,9.57,15.67,7.93,31.37,16.29,47.4,23.48,53.49,25.13,108.84,21.08,163.19,1.69,11.99-4.22,23.96-8.14,35.91-12.41,7.34-2.54,14.89-4.59,22.24-6.85,21.89-6.25,44.38-9.96,66.18-16.61,34.44-9.59,68.79-21.74,104.22-26.76,11.67-1.87,23.46-2.82,35.26-3.56,13.29-.57,27.22-1.59,40.86,1.89l4.73,1.09c.79,.2,1.57,.32,2.38,.59l2.41,.76c2.42,.79,4.83,1.42,7.24,2.24l2.46,.98,4.94,1.95,9.92,3.9c.82,.3,1.66,.66,2.51,1.07l2.53,1.16,5.07,2.32,10.16,4.47,10.19,4.31,5.12,2.15c3.39,1.52,6.73,2.58,10.17,3.81l2.53,.86,2.5,.69,5,1.38c.83,.22,1.68,.48,2.5,.66l2.46,.47,4.93,.94c.82,.15,1.65,.33,2.46,.46l2.43,.29,2.43,.29c1.86,.1,5.19,.44,7.17,.35,12.57,.24,24.49-2.79,36.43-6.09,11.81-3.31,23.56-7.45,34.79-12.41,22.75-9.79,44.88-23.7,64.98-38.24,17.7-12.31,36.05-26.86,53.71-39.21,6.34-4.3,12.77-8.89,19.23-13.01,11.49-7.17,23.39-14.33,35.52-20.29,16.11-7.98,32.58-15.85,50.47-18.91,7.58-1.33,15.91-1.92,23.62-2.14,20.12-.18,40.59,2.05,60.85,1.91h9.4c1.57-.04,3.2,.04,4.73-.11,3.08-.24,6.24-.4,9.33-.72l9.25-1.18h0Zm27.58,47.21c-4.24,3.87-10.95,10.23-14.97,14.43-4.8,5.25-9.8,10.72-14.48,16.02-11.01,13.72-21.96,28-33.86,40.93-5.63,6.15-12.08,12.31-18.71,17.37-6.48,4.84-13.53,9.54-20.71,13.11-35.36,16.55-74.32,24.74-113.55,27.45-19.11,1.49-40.81,1.64-59.94,2.19-20.94,.18-43,.96-63.62,3.17-17.2,1.79-34.7,4.82-51.48,8.9-12.33,3.17-24.58,5.93-35.93,12.13-4.34,2.34-8.8,4.8-12.76,7.77-13.34,9.26-25.13,21.72-36.56,33.45-9.03,9.59-15.23,15.73-24.66,24.02l-4.21,3.76-2.11,1.88c-2.12,1.71-4.32,3.28-6.5,4.89l-2.18,1.59c-.72,.55-1.48,.94-2.21,1.42l-4.45,2.74c-15.68,9.98-33.72,13.98-51.44,18.42-19.19,4.26-38.7,6.9-58.35,7.55-39.32,1.37-79.26-4.34-118.43-8-9.61-.93-19.83-1.64-29.34-3-3.57-.46-11.21-1.76-14.65-2.29-31.08-5.57-61.41-16.5-91.79-24.92-47.22-13.15-94.88-15.71-143.48-3.96-26.19,6.04-52.89,13.67-79.59,16.4-43.44,4.25-85.98-6.9-123.05-29.44-19.07-11.41-47.18-32.71-65.87-45.33-8.78-5.62-18.37-11.59-27.61-16.28-16.98-8.85-34.94-15.03-53.29-20.2-12.22-3.38-24.45-6.63-36.92-9.11-22.15-4.78-44.69-8.05-67.2-10.78-19.06-2.33-40.24-5.34-59.22-8.26-29.33-5.07-58.42-12.22-85.99-23.45-42.52-17.43-82.01-42.22-115.87-73.31-23.77-21.64-47.16-47.41-68.88-71.11-4.43-4.82-8.74-9.77-13.19-14.51-4.94-5.4-10.19-10.6-14.37-16.73-1.45-2.11-2.84-4.15-4.1-6.38l-5.05-8.96-2.48-4.5c-.82-1.5-1.62-3.03-2.55-4.4l-2.68-4.22c-4.47-6.75-10.83-11.74-16.7-17.08-4.73-4.22-9.49-8.41-14.28-12.56-21.07-18.71-43.13-38.12-64.15-56.89-50.02-44.52-97.75-92.54-134.57-148.82-3.49-5.35-7.39-10.42-9.62-16.65-.78-2.3-1.65-4.86-2.1-7.27l-.52-2.54c-.19-.83-.22-1.78-.33-2.66l-.27-2.7c-.14-1.82-.37-3.59-.44-5.45-.1-3.76-.14-7.54-.26-11.25-.11-3.43-.12-7.65-.65-10.89-.48-6.58-1.96-13.37-5.16-19.06-4.87-8.05-10.77-15.45-16.67-22.79-8.97-11.3-18.96-21.79-29.06-32.09-24.48-24.24-50.84-47.49-70.2-76.24-10.82-16.01-19.58-33.35-26.68-51.29-17.3-41.91-22.66-87.73-29.02-132.17-6.78-50.79-22.18-98.35-36.93-147.01-21.94-72.54-48.47-145.76-63.21-220.85-9.72-50.2-15.53-101.02-17.54-152.08-1.41-51.34,2.23-102.86,10.34-153.57,6.64-38.07,20.31-74.91,31.29-111.98,4.43-15.17,8.22-30.7,11.29-46.18,5.37-27.81,9.24-56.11,11.82-84.33,3.54-38.22,4.46-77.25,9.09-115.38,2.04-16.01,4.34-32.04,7.74-47.81,2.67-9.26,6.7-18.08,10.14-27.07,4.79-11.72,9.97-23.87,15.17-35.45,11.46-26.04,24.93-52.48,37.45-78.05,7.06-14.09,14.49-28.75,21.56-42.8,2.96-5.89,3.54-12.84,3.88-19.4l.44-10.5,.11-10.74-.43-11.09c-.53-13.37-1.65-29.72-2.27-42.68-.07-.97-.07-1.91-.04-2.83l.22-11.17,.06-2.8c.03-.93,.02-1.88,.13-2.77l.51-5.41c1.42-13.64,5.42-27.14,11.94-39.2,1.67-2.89,3.19-5.88,5.34-8.46,2.2-2.56,4.94-4.79,8.56-6.46,.9-.42,1.6-.97,2.67-1.28l3-1.06c.96-.38,2.01-.7,3.27-.89,1.49-.32,8.9-1.66,10.72-2.02,7.94-.74,16-1.42,23.58-2.35,3.9-.48,11.47-1.18,15.35-1.56,2-.58,4.43-1,6.27-1.64l2.75-1.06c7.87-2.62,12.15-9.23,17.09-14.54,8.63-9.58,16.97-19.31,25.52-28.86,25.03-28.54,50.25-57.86,74.83-86.81,32.72-38.63,66.17-77.89,102.25-113.47,18.03-17.89,37.2-35.06,56.78-51.24,17.31-14.1,34.98-27.85,54.33-39.09,19.04-11.59,39.49-21.22,58.77-32.35,16.44-9.37,32.38-19.99,47.17-31.83,8.82-6.96,17.35-14.48,25.11-22.61,4.51-4.51,9.11-9.97,13.4-14.77l3.2-3.99,6.42-8.02c8.73-10.77,16.94-22.12,25.85-32.8,10.53-13.12,22.74-25.81,36.06-36.08,22.39-16.94,48.35-27.5,74.52-36.92,10.79-3.57,22.07-6.91,33.11-9.53,50.77-12.33,104.72-14.41,155.61-23.88,12.7-2.08,25.15-4.9,37.57-7.73,12.36-3.09,24.8-5.78,36.63-10.91,3.86-1.71,7.31-3.23,11.04-5.11l2.17-1.19,4.34-2.4,2.17-1.2c.72-.42,1.43-.89,2.15-1.33,7.1-4.3,14.62-9.39,21.36-14.27,7.08-5.05,18.36-12.87,25.87-17.71,17.39-11.04,35.5-18.42,55.5-20.97,19.57-2.48,39.77-1.75,59.29,1.38,29.91,4.79,60.23,16.2,89.57,24.22,40.36,11.18,82.94,14.19,123.53,2.48,9.61-2.84,19.2-5.8,28.49-9.63,15.86-5.74,32.21-12.65,48.33-17.78,12.71-3.95,26-7.22,39.14-8.75,32.39-3.62,65.04,.32,96.54,8.72,18.96,5.08,37.48,11.97,55.99,18.45,8.78,3.07,18.73,6.71,27.69,9.47,45.8,15.02,93.08,23.41,140.41,32.32,34.77,6.3,69.39,14.19,102.62,26.34,51.5,18.57,99.98,44.54,146.38,73.41,37.68,23.69,75.63,47.57,113.83,70.35,27.23,16.24,54.82,32.02,82.76,47.04,8.28,4.31,17.12,9.13,25.38,13.54,7.81,4.11,17.74,9.32,25.45,13.65,22.51,12.18,45.03,25.31,66.44,39.36,9.25,6.09,23.01,15.39,32.05,21.63,5.31,3.67,10.66,7.3,15.77,11.22,86.87,66.71,173.31,137.69,239.35,226.12,3.52,4.73,8.45,10.77,10.9,16.14,.38,.73,.7,1.5,.99,2.29l.92,2.35c4.14,11.46,4.31,25.21,6.67,37.11,1.98,10.35,6.43,18.54,13.3,25.89,19.41,22.93,42.29,41.78,65.9,60.5,16.97,13.81,34.55,28.12,49.11,44.52,12.1,13.58,22.61,28.57,31.11,44.64,15.88,29.14,26.93,60.83,33.77,93.3,4.89,22.43,8.52,47.2,12.27,69.9,4.21,25.97,8.7,52.14,15.11,77.62,24.24,103.1,37.32,208.44,52.12,313.14,2.57,18.74,4.79,38.36,7.27,57.1,6.53,51.87,30.85,102.48,38.37,154.76,6.07,42.8,.42,86.81-17.84,126.11-12.48,27.9-29.1,53.82-41.47,81.72-21.39,46.92-28.55,98.62-32.23,149.59-1.56,19.41-3.13,38.97-6.28,58.16-3.36,20.71-8.6,41.08-15.84,60.76-.24,.77-.97,1.37-1.73,1.95-.95,.51-2.24,.91-3.34,1.37-1.4,.35-3.39,.49-5.06,.75-2.68,.37-7.87,.98-10.55,1.3-1.62,.26-3.89,.28-4.96,.74-1.11,.44-2.66,.72-3.41,1.29-.88,.52-1.5,1.14-1.84,1.86l-2.24,4.24c-10.12,19.26-21.56,39.67-31.19,59.04-11.32,22.63-21.33,45.79-29.69,69.67-2.97,8.9-8,22.91-10.72,31.7l-.74,2.28c-.23,.77-.58,1.48-.49,2.41,.2,.99,.21,1.88,1.12,3.23,.88,1.34,1.09,2.34,2.51,3.95,2.68,3.15,5.44,6.36,8.05,9.5l3.88,4.7c1.17,1.51,2.86,3.28,3.59,4.57,.6,1.22,1.25,2.47,1.8,3.66,.15,.99,.34,2,.04,2.75-5.15,10.15-12.17,19.57-20.35,27.58-.6,.59-1.16,1.2-1.78,1.78l-1.89,1.72-3.78,3.43c-15.48,13.47-34.07,24.27-48.31,38.46-3.52,3.27-6.93,6.89-9.98,10.62-3.97,4.97-7.73,10.09-10.62,15.77-2.1,4.41-3.32,9.65-3.45,14.73-.08,.89-.12,1.81-.02,2.83l.17,2.96,.34,5.93,.87,6.31c.57,4.21,1.17,8.45,1.67,12.65,.14,1.06,.26,2.11,.25,3.07l.09,2.97,.16,5.94-.27,2.74c-.11,.9-.13,1.86-.33,2.71l-.56,2.55c-.21,.84-.33,1.73-.63,2.51-1.9,6.46-6.16,11.4-9.88,16.78-11.14,15.7-23.18,31.42-35.39,46.29-22.69,27.4-47.29,53.34-73.38,77.52-54.06,50.07-113.66,94.68-171.95,139.48-19.83,15.15-40.84,30.81-60.3,46.27-24.86,19.49-49.23,39.64-74.73,58.3-10.28,7.37-20.24,15.31-31.63,20.93-6.23,3.22-11.85,7.23-16.56,12.6h0Z"/></g><path class="cls-4" d="M970.55,235.06c-4.1,.67-7.95,2.12-11.43,4.33-3.8,2.48-7.55,5.37-11.36,7.81-39.92,22.92-81.29,44.09-118.74,71-6.96,4.79-15.44,11.4-22.25,16.51-16.84,13.3-33.64,27.12-49.5,41.58-75.01,67.67-136.23,147.64-203.58,222.14-5.78,6.59-12.05,13.77-17.91,20.21-4.74,4.91-8.57,10.87-15.14,13.66l-2.21,1.06c-.73,.36-1.63,.58-2.43,.87l-2.48,.83-5.61,1.13-2.81,.57c-.9,.22-1.93,.34-2.96,.45-4.12,.45-8.13,1.02-12.22,1.55l-6.12,.81-5.63,1.25-2.82,.63c-.98,.18-1.83,.47-2.64,.78l-2.51,.91c-.88,.27-1.53,.72-2.31,1.07-9.05,3.9-13.82,12.39-18.92,20.21-1.58,2.63-3.08,5.49-4.42,8.24-5.52,11.49-8.7,24.84-11.45,37.42-.57,2.47-1.64,7.3-2.12,9.78-3.59,18.42-9.26,37.01-20.15,52.36-.5,.57-1.45,.82-2.37,1.11-1.29,.03-2.67,0-4.01,0-1.46-.09-3.81-.78-5.68-1.13l-5.94-1.29-12.08-2.66c-2.07-.47-3.02-.19-4.59-.32-1.59-.15-2.35,.27-3.29,.56-.84,.36-1.26,1.01-1.8,1.57l-1.56,1.73c-15.73,17.06-30.38,35.28-42.84,54.85-18.26,28.76-30.94,60.68-42.34,92.69l-1.56,4.38c-.29,.71-.3,1.57-.08,2.55,.1,.92,.96,2.22,1.4,3.31,.41,1.07,1.96,2.73,2.89,4.06,1.71,2.2,4.72,6.2,6.37,8.38,.98,1.35,2.26,2.85,2.99,4.07,.45,1.08,1.07,2.24,1.38,3.24,.13,.91,.21,1.8-.15,2.46-5.91,12.27-12.49,24.23-19.53,35.9-22.1,37-50.78,70.31-69.21,109.54-12.46,26.43-21.39,54.89-23.37,84.17-1.81,27.23,1.75,54.59,4.36,81.68,1.66,18.45,2.31,37.06,.44,55.45-2.81,26.75-10,53-20.61,77.7-13.39,31.59-31.65,61.35-42.38,94.13-10.15,29.05-12.31,59.88-14.82,90.31-1.95,25.71-2.55,51.91-1.92,77.67,1.71,63.96,12.55,127.34,27.46,189.43,6.12,24.8,12.36,50.49,22.21,74.09,4.62,11.08,9.85,22.58,15.46,33.14,8.39,16.08,18.01,31.9,26.85,47.67,14.9,25.89,27.83,52.72,37.41,80.94,5.92,16.86,10.05,34.48,12.19,52.24,3.69,31.03,2.21,63.76,6.55,94.67,2.17,15.61,5.76,30.49,10.96,45.09,2.4,7.38,6.24,14.2,12.09,19.45,9.53,8.53,21.7,13.74,31.38,22.06,1.69,1.48,3.51,3.32,5,4.99,3.74,3.9,6.8,10.52,9.58,15.27,35.78,62.49,69.21,126.64,106.84,188.13,18.81,31.08,40.25,60.39,61.34,89.96,13.6,19.57,29.01,39.85,43.2,58.98,29.15,39.36,59.49,78.71,96.25,111.29,27.34,24.59,57.24,46.51,88.84,65.32,36.64,21.98,76.08,39.96,114.71,58.07,32.79,15.54,65.76,30.85,97.87,47.76,21.36,11.24,42.57,23.4,63.8,34.9,37.43,20.14,76.91,37.27,118.68,45.84,42.03,8.47,85.27,6.86,127.05,15.73,23.91,4.96,46.78,11.57,68.59,23.36,16.88,8.46,33.54,20.47,50.08,30.39l8.5,5.1c2.85,1.67,5.68,3.49,8.56,4.97,28.94,15.72,57.5,22.63,90.6,20.43,35.72-1.94,69.54-17.01,102.29-30.65,4.16-1.81,9.37-3.55,13.61-5.36,2.26-.78,6.76-2.46,9.02-3.25,4.44-1.64,8.97-2.83,13.46-4.3,8.74-2.76,17.81-4.7,26.75-6.31,14.78-2.55,29.77-3.88,44.65-1.54,28.73,3.86,55.12,18.65,83.53,23.67l4.68,.76,2.34,.37,2.33,.26c15.31,1.88,30.72-.27,45.68-3.28,21.1-3.96,41.73-10.24,61.73-18,36.94-14.69,72.71-35.16,108.18-52.12,27.36-12.81,54.76-23.67,83.58-31.55,5.77-1.44,11.79-2.61,17.69-3.42,25.09-3.75,51.73-1.26,77.04-.66l2.5,.08c.83,0,1.63-.03,2.45-.04l4.9-.1,9.84-.21c9.55-.13,19.34-1.46,28.72-3.1,15.23-2.88,30.07-8.01,44.19-14.32,28.48-12.21,52.76-31.93,77.14-50.78,14.55-11.42,29.43-21.98,44.81-32.09,27.53-18.35,56.21-37.44,83.43-56.23,16.65-11.57,36.06-25.08,52.24-37.25l14.64-11.08,3.65-2.78c5.18-4.07,12.71-10.25,17.86-14.4,30.74-25.22,59.26-53.26,84.54-83.97,11.64-14.21,22.63-28.99,32.96-44.18,1.35-1.84,3.85-5.73,5.12-7.63,2.2-3.14,3.55-7.61,3.75-11.78l.19-2.82c.11-1.37-.29-4.68-.32-6.21-2.22-9.88-4.43-19.52-7.13-29.29l-2.1-7.45-1.3-6.75c-.32-2.03-1.08-4.63-1.04-6.49l-.2-2.97c-.08-4.21,.6-8.81,2.44-12.02,1.43-2.56,3.41-4.71,5.29-6.93,2.95-3.22,5.99-6.5,9.35-9.32,3.37-3.03,7.26-5.57,11.01-8.13,5.48-3.19,10.85-6.51,17.31-9.08l9.47-4.06c.78-.35,1.59-.68,2.44-.98l2.49-.95,4.97-1.92,20-7.85,2.5-1.01c.82-.35,1.59-.73,2.39-1.09l4.75-2.22,9.53-4.47c7.67-3.8,14.5-8.29,21.55-13.03,3.82-2.71,7.59-5.89,9.91-9.93,24.89-41.96,44.76-86.75,63.25-131.78,4.23-10.18,9.63-23.74,13.63-33.81,1.11-2.82,2.28-5.62,3.73-8.29,4.39-7.63,9.63-16.04,14.34-23.49,19.29-31.56,40.72-62.65,58.09-95.33,17.33-32.84,30.8-67.79,38.67-104.12,3.82-18.3,6-36.91,6.77-55.61,1.42-31.12,.45-62.87,2.59-93.45,4.13-48.51,8.45-97.01,13.52-145.36,7.34-66.16,16.16-134.2,25.66-200.28,7.25-51.96,13.43-104.47,13.02-157.06-.73-52.63-4.73-105.62-23.92-155.26-8.75-23.45-19.11-46.36-28.56-69.2-8.16-19.78-15.26-39.92-20.79-60.56-5.81-20.61-9.72-41.66-11.28-63.06-2.77-36.39,.02-73.7-7.18-109.74-1.47-7.62-3.35-15.42-5.65-22.83-1.9-5.93-3.56-11.99-6.38-17.55-3.03-5.75-7.64-10.8-12.95-14.65l-2.06-1.62c-.66-.55-1.4-1.07-2.19-1.56l-4.62-2.99c-7.36-4.82-15.3-9.21-21.73-15.27-3.32-3.29-6.45-6.99-8.51-11.13-34.35-61-64.21-124.76-100.99-184.67-12.85-20.81-27.02-41.04-42.2-60.22-3.83-4.78-7.71-9.53-11.62-14.26-4.85-5.94-9.97-11.86-16.47-16.16l-4.11-2.51c-1.33-.87-2.81-1.61-4.3-2.33l-4.45-2.19c-3.45-1.85-10.13-4.59-13.18-6.6-4.06-2.32-8.01-4.98-11.66-7.84-7.21-5.54-14.9-11.2-22.32-16.34-19.84-13.69-41.38-26.95-62.05-39.49-36.51-21.52-70.05-45.14-101.92-72.5-18.18-15.67-35.51-32.57-51.69-50.36-25.39-27.46-49.21-56.92-77.03-82.17-9.2-8.32-18.96-16.25-29.09-23.4-4.76-3.48-10.39-7.26-15.39-10.36-18.43-11.21-37.66-21.52-58.57-27.21-16.74-4.85-34.3-6.55-52.05-7.02-7.77-.09-16.97,.18-24.69,.22-15.78,.38-32.88,1.4-48.64,.86-30.63-.85-60.12-6.92-87.63-20.11-19.8-9.28-37.54-22.18-55.67-34.89-10.37-7-21.32-15.08-32.32-21.07l-4.15-2.33c-1.39-.78-2.77-1.58-4.17-2.27-21.88-11.54-46.12-18.17-70.71-20.25-6.87-.64-13.86-.82-20.8-.87-2.35,0-4.69,.14-7,.25l-9.36,.59-9.39,.94c-4.43,.44-14.03,2.14-18.85,2.88-24.84,4.15-49.44,10.43-74.43,13.41-12.02,1.87-24.35,2.39-36.35,3.67-7.18,.87-15.51,1.7-22.61,2.71-26.92,3.65-53.65,8.89-80.65,11.69-25.12,2.65-50.4,2.44-75.53,.11-9.83-.82-19.85-2.34-29.22-5.54l-2.28-.84-4.57-1.67c-.76-.3-1.52-.51-2.29-.88l-2.3-1.06-4.61-2.11c-.77-.37-1.54-.66-2.31-1.1l-2.33-1.28-4.67-2.55-9.38-5.1c-10.42-6.42-18.33-11.18-28.64-17.09-8.97-5.19-19.29-10.7-28.9-13.76l-4.79-1.54c-.8-.25-1.6-.53-2.4-.76l-2.38-.59-2.38-.59-2.37-.46-2.37-.46c-13.29-2.31-26.5-.71-39.46,1.13-15.29,2.3-30.5,5.89-45.17,10.84-20.54,6.62-41.65,16.77-60.64,27.17-16.16,8.44-34.14,19.12-50.1,27.91-32.37,17.79-66.01,33.14-101.5,41.32-33.61,7.63-68.4-3.67-102.34-7.33l-4.66-.55-4.7-.54c-1.57-.15-3.19-.42-4.72-.45-3.1-.13-6.26-.34-9.38-.38l-9.36,.09h0Zm-21.83-50.13c4.65-3.28,12.22-8.95,16.69-12.6,5.44-4.67,11.07-9.48,16.38-14.22,11.35-10.98,26.56-26.49,38.77-36.69,7.67-6.64,16.25-12.66,25.15-17.51,11.55-6.42,23.91-10.5,36.69-13.45,15.78-3.89,32.03-6.42,48.29-7.78,9.77-.71,19.92-1.21,29.71-1.12,9.4-.05,20.52,.57,30.01,1.06,3.35,.23,6.7,.5,10.05,.82l20.07,1.85c18.96,1.62,40.6,4.34,59.55,5.58,31.94,2.11,64.04,1.08,95.64-4.06,23.72-3.96,44.62-16.8,63.95-32.56l9.09-7.16c3.03-2.45,6.09-4.84,9.15-7.22l4.6-3.58,2.31-1.79c.77-.62,1.54-1.19,2.32-1.7l9.33-6.41,4.69-3.21,2.35-1.6c.78-.52,1.58-.89,2.37-1.35l4.75-2.61,2.38-1.3c.79-.46,1.6-.75,2.39-1.13l4.8-2.17,2.4-1.08c2.38-1.05,4.82-1.9,7.25-2.75l4.86-1.54,4.88-1.22c4.86-1.16,9.79-1.81,14.7-2.62C1550.6,1.33,1567.12,.03,1583.61,0c26.48-.02,52.93,3.75,78.82,9.28,26,5.41,51.84,12.13,77.67,17.88,19.5,4.3,38.57,10.13,57.15,17.54,14.01,5.9,27.94,11.97,41.68,18.49,5.11,2.27,13.22,5.85,18.33,8.12,22.1,9.91,45.55,17.56,69.27,22.25,20.57,4.16,41.73,5.63,62.73,4.66,23.68-1.09,47.48-4.38,71.27-5.66,41.81-2.57,83.62,7.01,118.95,29.34,11.2,6.76,22.72,15.91,32.73,24.45,3.78,3.31,11.41,10.45,15.38,14.19,8.33,7.81,18.13,17.27,26.28,25.19,2.96,2.65,6.5,5.92,9.39,8.64,3.56,3.16,9.67,8.43,13.35,11.36,13.76,11.12,28.69,20.92,44.49,28.84,37.54,18.76,76.63,32.71,117.62,44.07,9.36,2.65,19.33,5.74,28.75,8.51l4.82,1.42,4.78,1.51c5.94,2.01,17.81,5.48,23.96,7.71,64.75,21.66,122.85,60.08,167.67,111.42,17.21,19.63,33.27,42.2,47.79,63.9,12.63,18.52,25.72,39.16,38.03,57.86,1.78,2.65,3.64,5.57,5.1,8.43,1.45,3.03,2.94,6.11,4.11,9.28l3.53,9.73,1.78,4.83c1.62,4.54,3.7,9.56,6.08,13.74,3.16,5.65,7.54,10.28,11.5,15.32,14.12,17.09,34.18,42.29,48.29,59.39,46.54,57.02,92.16,116.07,123.07,183.31,2.13,4.32,5.94,13.17,7.98,17.53,2.06,4.38,3.05,9.42,3.61,14.27,1.2,11.82-1.95,23.78-2.93,35.51l-.12,2.65c-.92,9.05,.36,16.58,3.89,24.08,7.65,15.63,16.43,31.07,26.32,45.43,15.65,23.22,33.95,45.13,49.04,68.75,7.87,12.43,15.02,25.47,20.61,39.06,10.59,25.34,16.82,52.34,20.32,79.53,4.11,33.86,2.76,68.39,2.55,102.26-1.01,51.47,7.09,101.06,14.45,151.62,10.94,75.36,26.48,151.99,30.31,228.76,3.78,83.33-.97,167.59-20.71,248.92-4.44,18.83-9,37.64-14.92,56.07-11.62,36.82-30.56,71.91-46.25,107.23-10.39,23.25-18.91,47.23-25.98,71.64-7.22,24.4-13.31,49.09-18.46,74.02-5.13,25.24-9.86,50.86-15.51,76.03-5.08,21.96-10.88,44.33-18.39,65.58-6.71,14.66-15.25,28.45-23.15,42.49-21.2,36.16-44.54,70.9-67.69,105.76-5.29,8.03-10.8,15.94-16.05,23.99-1.71,2.71-3.16,5.59-4.08,8.81-.4,1.65-.84,3.27-1.22,4.94l-.98,5.1-1.73,10.41c-.51,3.53-.98,7.09-1.45,10.67l-.93,11.1c-1.16,13.39-2.04,32.29-3.31,45.58l-1.57,11.1-.4,2.78c-3.21,19.46-11.41,39.14-24.61,53.45-3.05,2.9-7.6,5.17-12.1,6.38-2.33,.43-4.08,1.14-6.47,1.2-1.51,.09-9.05,.65-10.9,.75l-8.06-.21c-10.12-.36-21.04-.09-31.12-.45-2.06,.34-4.53,.48-6.43,.91l-2.87,.74c-.93,.26-1.97,.44-2.78,.81-7.11,2.38-10.87,7.62-15.98,11.68-9.74,8.54-19.21,17.27-28.87,25.79-19.04,17.11-38.03,34.41-56.77,51.82-32.72,30.05-65.45,61.5-99.04,90.61-38.58,33.63-79.61,64.98-123.42,91.47-19.09,11.89-39.37,21.8-60.25,30.14-20.67,8.42-42.08,15.94-62.11,25.73-18.57,9.13-36.84,19.54-53.46,31.91-6.48,4.8-13.14,10.38-19.11,15.87l-3.78,3.33-3.68,3.6c-14.98,14.34-29.44,30.02-44.77,44.05-9.74,8.74-21.41,17.75-32.72,24.45-17.24,10.16-35.91,16.5-54.95,21.96-28.59,8.16-58.28,12.42-87.95,13.99-29.07,1.35-60.34,1.07-89.52,1.13-19.31,.3-39.12,.83-58.33,2.48-12.46,1-25.87,2.46-38.25,4.14-12.77,1.83-25.56,5.34-37.49,10.39-12.65,5.04-24.89,12.02-37.09,18.32l-9.37,4.74-4.7,2.37-2.36,1.19c-19.36,9.22-39.4,14.98-60.5,14.81-41.1,.22-79.2-14.51-116.9-32.22-8.94-3.8-19.17-8.94-28.3-12.61-2.24-1.04-6.95-2.72-9.37-3.68-6.23-2.54-12.46-4.66-18.68-6.64-38.92-11.94-74.71-13.99-114.5-5.34-26.55,5.5-53.6,13.48-80.85,15.68-19.84,1.89-39.58,.04-59-3.96-12.76-2.67-25.44-6.09-37.7-10.54-24.87-8.72-48.23-21.26-71.49-33.54-22.98-12.13-46.4-23.62-70.52-33.11-59.61-24.68-123.06-40.07-180.38-70.2-11.51-5.92-22.76-12.33-33.8-19.1-24.88-15.06-48.9-31.93-71.69-49.97-37.68-29.87-73.67-62.84-110.3-93.91-33.98-28.76-68.51-57.57-103.99-84.52-29.87-22.74-63.09-47.33-91.21-71.97-19.05-16.8-38.77-35.24-56.7-53.21-75.4-80.23-149.73-164.5-201.17-262.77-2.75-5.28-6.66-12.01-8.25-17.74-3.75-12.56-1.74-27.13-1.87-40.08-.14-7.74-1.34-15.55-4.42-22.06-5.21-10.01-11.76-19.44-18.27-28.67-19.76-27.4-44.33-51.36-65.89-77.51-18.08-22.23-32.65-46.87-41.79-73.87-11.15-31.07-17.15-64.63-18.92-97.95-1.82-30.05-.86-61.54-1.26-91.64-.15-14.98-.92-34.06-2.01-49.19-6.76-77.09-6.74-155.06-6.36-232.32,.11-29.73,.26-66.33,.7-96.17,.05-10.9,.48-27.45,.66-38.51,.44-12.89,.6-25.75-.13-38.67-1.51-33.41-8.71-66.36-12.84-99.5-5.38-39.44-3.18-80.39,10.22-118.02,6.62-19.01,16.39-37,27.55-53.78,20.62-30.76,44.78-59.25,60.84-92.73,11.18-23,19.67-47.22,26.43-71.87,7.09-25.57,13.16-59.71,19.65-85.47,6.21-25.21,14.82-49.86,26.46-73.05l2.19-4.32c.34-.73,1.14-1.24,1.97-1.72,2.75-1.05,5.53-1.13,8.62-1.06,2.72-.03,7.93,0,10.62,.01,1.64-.06,3.89,.2,5.02-.12,1.16-.3,2.74-.39,3.56-.86,.94-.41,1.64-.94,2.07-1.62l2.75-3.95c23.98-33.6,48.47-67.41,67.96-103.8,7.81-14.69,16.31-32.16,23.35-47.27l1.02-2.19c.32-.74,.76-1.4,.78-2.35-.08-1.01,.02-1.9-.71-3.36-.71-1.44-.8-2.46-2.01-4.24-2.3-3.48-4.55-6.94-6.78-10.4l-3.27-5.15c-.97-1.64-2.43-3.62-3.01-4.99-.44-1.28-.94-2.61-1.34-3.86-.02-1-.09-2.03,.3-2.75,3.62-5.39,7.8-10.4,12.37-15.12,3.21-3.38,7.51-7.01,11.25-9.9,3.89-3.02,8.43-6.22,12.6-8.84,25.48-15.91,54.99-28.39,72.09-53.63,3.21-4.84,5.06-11.14,5.6-17.08l.19-2.97,.38-5.95-.11-6.39c-.05-5.3-.29-10.63,0-15.87l.27-2.96,.56-5.94,.6-2.7c.22-.88,.35-1.84,.65-2.66l.87-2.48c2.37-7.23,7.81-12.53,12.79-17.98,13.01-14.43,26.8-28.51,40.78-41.99,46.82-45.08,100.05-83.15,154.84-117.89,46.17-29.03,93.27-57.02,140.1-84.7,46.76-26.92,91.54-57.67,139.04-83.27,6.19-3.65,12.89-6.27,19.59-8.84,5.82-2.26,11.01-5.59,15.81-9.75h0Z"/><g class="cls-1"><path class="cls-3" d="M1175.62,3058.7c4.75,3.12,10.19,4.47,15.8,4.95,6.14,.54,12.18,1.54,18.16,3,10.64,2.58,25.31,5.57,35.82,8,41.75,9.47,84.1,17.1,126.94,19.09,79.09,5,159.21-3.5,237.11-14.16,35.69-4.73,71.36-9.39,107.09-13.69,11.54-1.2,24.03-3.01,35.53-4.18l4.45-.48,4.44-.55c4.51-.75,9.33,.12,13.72,1.57,.78,.22,1.59,.65,2.38,.96l2.4,1.03,4.91,2.89,2.46,1.44c.82,.44,1.65,1.03,2.5,1.64,3.36,2.37,6.72,4.62,10.1,6.95l5.09,3.46,5.01,2.81c5.72,3.44,12.79,5.87,19.36,5.57,12.32-1.24,24.25-5.35,35.2-11.1,11.35-6.36,22.13-14.34,32.63-22.21,6.35-4.99,13.11-9.6,20.07-13.63,9.19-5.23,19.06-9.86,29.37-12.13,.74-.1,1.63,.35,2.49,.75,.98,.83,1.99,1.78,2.98,2.67,1.03,1.04,2.33,3.11,3.49,4.61l3.58,4.91,7.25,9.95c1.23,1.73,2.13,2.15,3.21,3.28,1.09,1.16,1.93,1.36,2.83,1.77,24.76-1.83,49.07-6.21,72.68-12.91,33.99-9.86,65.67-26.48,96.44-43.74,.69-.34,1.25-.98,1.73-1.86,.52-.76,.73-2.31,1.11-3.42,.39-1.08,.31-3.34,.49-4.95l.34-5.28,.36-5.19c.15-1.66,.17-3.62,.42-5.02,.37-1.11,.66-2.39,1.08-3.35,.5-.77,1.01-1.5,1.72-1.76,6.88-2.87,13.96-5.68,20.97-8.21,42.93-16.16,89.31-22.11,132.02-39.04,29.78-11.94,58.05-28.67,80.75-51.54,20.18-20.47,35.65-44.98,52.33-68.27,9.84-13.6,20.57-26.74,32.69-38.24,18.28-17.44,39.04-31.63,61.56-43.25,31.68-16.19,66.35-27.24,96.78-45.77,21.21-12.36,38.95-29.1,56.29-46.14,52.2-50.6,96.35-109.17,131.8-172.59,5.74-10.17,11.84-21.48,17.24-31.89,16.45-32.25,33.33-64.42,44.21-99.01,4.52-14.11,7.78-29.28,10.58-43.84,3.75-20.77,6.94-42.02,10.93-62.63,9.18-45.41,23.27-89.57,50.44-127.32,11.83-16.6,25.01-32.82,36.79-49.5,10.73-15.18,20.33-31.74,27.2-48.81,5.63-14.03,9.05-22.82,4.68-38.4-1.72-5.8-3.62-11.67-5.65-17.35-1.66-5.47-3.34-11.05-3.67-16.77-.39-3.78-.15-7.62,.51-11.29,5.49-32.12,11.47-64.68,17.19-96.75,12.91-70.68,25.75-141.81,28.78-213.82,3.08-42.26,5.23-84.9,6.63-127.26,.75-24.28,.78-49.14-1.12-73.36-2.84-36.49-9.86-72.69-19.9-107.87-20.12-70.33-55.78-134.89-85.4-201.42-10.15-21.78-19.65-43.95-28.52-66.29-13.17-33.44-25.44-68.39-42-100.33-8.35-16.1-17.52-31.82-27.85-46.74-10.52-14.88-22.49-28.89-35.21-42.03-12.65-13.09-26.15-25.86-38.69-39.04-16.52-17.38-31.42-36.14-44.09-56.49-14.36-22.63-23.52-50.96-31.53-78.8-3.41-10.97-6.87-22-11.16-32.59-10.97-28.11-29.08-51.65-53.22-69.76-10.05-7.53-21.06-14.18-32.47-19.46l-4.37-2.07-2.18-1.03-2.25-.96c-38.34-16.17-80.2-24.35-115.72-46.34-5.12-3.08-10.03-6.44-14.87-9.91-9.8-7.01-18.08-15.61-25.45-25.25-3.79-5.23-7.15-10.27-10.5-15.72-5.36-9.25-9.52-16.65-14.69-25.52-4.82-8.17-10.08-17.04-16.08-24.26l-2.99-3.65-1.5-1.82-1.57-1.73-1.57-1.73-1.62-1.66c-7.53-7.63-16.2-13.93-25.33-19.44-7.78-4.76-15.63-9.38-23.79-13.5-52.89-27.91-113.71-37.03-170.08-54.44-18.41-5.77-36.47-12.54-54.14-20.22-9.46-4.22-18.95-8.58-27.69-14.22-11.68-7.4-22.77-16.37-33.01-25.77-10.67-10.56-18.31-17.37-28.47-27.28l-1.8-1.72c-.61-.55-1.23-1.07-1.85-1.6l-3.71-3.18-7.45-6.37c-1.25-1.06-2.49-2.14-3.75-3.18l-3.84-2.91c-2.58-1.89-5.15-3.84-7.82-5.5l-3.97-2.6c-14.22-9.33-30.13-16.01-46.28-21.19-40.94-13.6-85.02-11.2-127.35-16.74-29.5-4.06-60.52-8.61-90.09-12.59-47.99-6.29-96.71-12.48-145.13-13.86-30.35-.67-60.95,.35-91.08,4.19-24.18,3-48.14,7.59-71.75,13.57-2.22,.57-6.65,1.65-8.84,2.3-2.95,.77-5.8,2.25-8.54,4.43-.7,.47-1.35,1.24-2.02,1.87l-2,1.98c-.94,1.04-2.9,3.63-3.86,4.85l-3.58,6.54c-3.65,6.83-7.06,13.09-10.42,20.08l-3.35,6.96-3.48,5.9c-1.1,1.76-2.25,4.15-3.5,5.55-2.89,4.09-7.17,8.21-11.53,9.7-2.75,.96-5.63,1.25-8.49,1.65-7.28,.86-14.76,1.16-22.06,.09-7.99-1.04-15.31-2.47-23.4-5.28l-9.72-3.26c-1.62-.5-3.29-1.21-4.93-1.81l-4.97-1.87-20.06-7.42-2.52-.88c-.84-.28-1.66-.51-2.5-.77l-5-1.5-10.05-2.99-4.97-1.18c-4.89-1.26-9.82-1.88-14.78-2.71l-4.89-.65c-4.63-.51-9.54-.65-13.91,.88-23.05,7.51-45.69,16.28-67.93,25.89-27.77,12.14-54.84,25.57-81.87,39.12-10.85,5.28-21.18,11.75-32.94,14.84-34.99,11.08-71.05,20.6-105.77,32.46-29.16,9.92-57.41,22.7-83.72,38.75-21.16,12.63-40.93,27.61-58.61,44.81-26.55,25.83-49.74,56.11-75.46,82.17-11.6,12.03-27.07,26.3-39.01,38.15-47,46.52-96.13,92.81-145.2,137.13-60.62,55.61-125.73,108.34-178.25,172.12-33.01,40.58-63.69,83.62-80.44,133.79-9.19,26.48-16.25,53.44-24.62,79.88-6.56,20.14-14.26,39.86-23.3,59-14.81,33.38-39.1,63.4-62.02,92.56-2.79,3.86-8.79,11.26-11.5,15.41-12.7,17.94-23.59,37.38-31,57.98-2.34,5.85-3.79,11.88-3.48,18.29,.13,1.64,.27,3.28,.45,4.92l1.09,5.08c.41,1.73,.72,3.48,1.31,5.13l1.71,5.21c2.71,8.34,6.05,16.71,7.24,25.42,.5,4.62,.62,9.45-.38,13.93-5.98,32.75-12.21,65.39-18.9,98.03-4.59,23.42-9.59,48-13.56,71.61-4.59,26.99-7.93,54.36-9.59,81.69-.73,15.16-1.14,30.57-.82,45.72,.1,6.13-.03,12.23,1.39,18.27,.31,1.52,.79,3.03,1.19,4.54l1.62,4.52c2.8,7.89,8.1,16.62,10.85,24.57,1.45,3.62,2.26,7.43,3.18,11.14l2.27,8.9,1.13,4.44c8.72,33.3,21.43,67.32,32.88,99.81,13.61,39.24,23.66,79.41,29.61,120.59,3.57,23.9,5.06,48.16,6.04,72.31,.64,17.82,1.09,38.34,2.43,56.13,1.97,37.09,8.47,74.34,22.52,108.84,30.47,80.91,89.82,93.5,138.82,151.75,15.22,18.56,27.16,39.46,35.05,62.18,2.45,7.29,4.97,14.74,6.98,22.3,4.46,16.99,8.63,34.28,13.87,51.04,16.68,56.7,56.43,95.43,106.99,123.24,11.11,6.17,21.99,12.53,33.11,18.64,6.77,3.81,13.31,8.1,19.88,12.1,19.2,12.23,36.9,26.6,56.33,38.5,30.02,19.4,61.9,37.05,89.17,60.24,9.14,7.49,17.68,15.69,26.05,24.02,9.24,9.56,19.25,19.31,25.69,31.82l2.32,4.26c.37,.73,.8,1.38,1.13,2.17l1.03,2.31c1.02,2.33,2.14,4.56,3.13,6.91l.9,2.49,1.81,4.99,3.66,10.01c.32,.82,.61,1.68,.86,2.59l.81,2.66,1.63,5.33,3.39,10.57,3.53,10.48,1.79,5.26c1.11,3.55,2.53,6.75,3.9,10.14l1.03,2.47,1.14,2.32,2.29,4.66c.39,.77,.75,1.57,1.16,2.31l1.28,2.15,2.56,4.31c.43,.71,.85,1.45,1.29,2.15l1.39,2.01,1.39,2.01,1.47,1.91,1.47,1.91c6.52,7.88,14.27,14.23,22.61,19.92,8.8,6.15,18.14,11.61,27.56,16.77,15.21,7.84,31.04,14.5,47.4,19.6,32.1,10.07,66.75,15.96,99.52,23.37,8.14,2.25,16.65,3.94,24.75,6.33,12.99,3.84,26.24,8,38.75,13.12,16.66,6.76,33.47,13.86,47.63,25.22,6.02,4.79,11.99,10.63,17.27,16.26,13.48,14.93,25.39,31.73,38.94,46.8l3.1,3.5,3.14,3.53c1.06,1.15,2.09,2.43,3.22,3.46,2.22,2.15,4.43,4.4,6.73,6.5l7.02,6.14h0Zm-17.03,51.96c-5.71-.6-14.92-1.41-20.73-1.62-7.11-.11-14.52-.23-21.59-.21-17.56,.86-35.52,2.14-53.09,1.82-8.33-.13-17.22-.88-25.41-2.48-7.92-1.64-16.12-3.79-23.55-6.81-35.84-15.48-67.82-39.19-95.87-66.76-13.79-13.32-28.29-29.45-41.4-43.39-14.03-15.55-29.24-31.54-44.58-45.5-12.75-11.68-26.62-22.77-40.81-32.62-10.55-7.12-20.74-14.46-32.91-18.84-4.63-1.7-9.43-3.4-14.27-4.39-15.78-3.84-32.92-4.4-49.29-5.17-13.16-.39-21.88-.96-34.34-2.52l-5.61-.66-2.81-.33c-2.69-.45-5.31-1.06-7.97-1.62l-2.63-.58c-.89-.18-1.68-.48-2.53-.72l-5.01-1.51c-17.87-5.12-32.83-15.95-47.91-26.27-15.91-11.53-30.84-24.38-44.36-38.65-27.11-28.52-49.33-62.19-72.57-93.92-5.68-7.81-11.93-15.93-17.22-23.95-2.02-2.98-6.11-9.55-8.01-12.49-16.45-26.95-28.39-56.9-42.24-85.22-21.49-44.05-51.19-81.42-92.21-109.99-21.89-15.6-45.32-30.51-65.07-48.68-32-29.68-51.87-68.91-59.6-111.6-4.11-21.84-6.82-57-9.78-79.36-1.62-10.29-3.52-21.43-6.14-31.46-4.64-18.57-11.93-36.12-20.24-53.28-5.58-11.39-11.26-22.69-17.67-33.67-11.12-19.74-23.62-38.78-36.51-57.43-10.9-15.81-22.7-33.65-33.11-49.79-15.66-25.31-29.61-51.82-39.49-79.9C6.9,1897.69-.75,1851.69,.06,1805.73c.42-32.14,4.19-66.74,7.51-98.71,.67-6.51,1.52-13.02,2.11-19.5,.76-7.28,1.17-14.66,2.98-21.85,.61-2.48,1.22-4.88,2.05-7.3l3.36-9.72,1.72-4.84c.58-1.61,1.19-3.22,1.6-4.83l1.38-4.81c2.08-7.82,1.6-15.89,1.7-23.83,.02-6.34,0-12.68-.08-19.02,.02-28.17-.08-57.56,.01-85.74,.14-66.97,4.4-134.54,22.09-199.42,1.69-6.16,2.9-12.44,6.08-18.24,1.2-2.11,2.55-4.46,4.05-6.39l1.56-2.07c.49-.7,1.19-1.34,1.77-2.02l1.84-1.99c1.27-1.32,2.44-2.66,3.79-3.95,2.75-2.57,5.55-5.11,8.25-7.66,2.49-2.36,5.64-5.16,7.72-7.72,4.61-4.73,8.7-10.34,10.83-16.51,2.79-8.98,4.42-18.31,5.99-27.59,2.51-14.21,3.73-28.64,4.74-43.03,1.9-34.4,1.81-69.55,10.47-103.11,4.8-18.71,11.96-36.77,20.67-53.99,19.89-40.75,50.62-75.15,79.65-109.4,33.51-38.77,58.88-81.84,85.51-125.16,39.73-64.54,76.92-132.97,123.33-193.8,31.11-40.58,65.29-78.63,102.17-114.01,37.48-35.11,78.45-66.57,121.77-94.14,32.89-20.29,69.53-34.49,104.55-50.87,14.29-6.75,28.42-14.21,42.05-22.19,24.37-14.43,48.12-30.31,70.94-47.1,30.95-22.7,60.76-47.92,92.37-69.74,13.34-9.09,26.85-18.01,40.91-25.93,8.7-4.14,17.98-6.98,26.98-10.37,11.95-4.2,24.48-8.38,36.59-12.17,27.09-8.7,55.81-16.16,83.24-23.75,15.23-4.06,31.13-8.23,46.33-12.26,6.37-1.69,11.96-5.87,17.1-9.96l8.15-6.63,8.1-7.04,8.01-7.68c9.65-9.27,21.14-20.95,30.44-30.01,.68-.7,1.38-1.32,2.09-1.91l8.5-7.25,2.14-1.81c.71-.6,1.42-1.24,2.16-1.74l4.39-3.21c11.15-7.98,23.9-13.95,37.26-17.07,3.27-.67,6.52-1.51,9.88-1.61,3.38-.05,6.86,.52,10.51,2.12,.91,.39,1.78,.55,2.72,1.15l2.78,1.54c.92,.46,1.86,1.04,2.83,1.85l2.88,2.22,5.74,4.46c5.82,5.45,11.67,11.03,17.4,16.08,2.94,2.6,8.49,7.8,11.35,10.45,1.76,1.12,3.69,2.65,5.39,3.6l2.62,1.36c7.18,4.15,14.97,2.97,22.21,3.14,12.89,.11,25.71-.12,38.52-.05,37.96-.2,76.63-.78,114.6-1.59,50.61-1.14,102.18-2.15,152.74,1.24,25.35,1.63,50.91,4.58,76.01,8.5,22.04,3.6,44.05,7.7,65.29,14.72,21.3,6.56,42.07,15.47,63.2,22.52,17.92,6.09,36.44,10.96,55.11,14.18,11.05,1.98,22.34,3.38,33.58,3.79,6.37,.39,13.51,.2,19.94,.23l5.11-.25,10.26-.51c13.85-.61,27.79-2,41.69-2.42,30.01-1.7,60.97,2.45,88.39,14.92,30.29,12.56,58.68,29.56,84.68,49.51,12.78,9.75,26.03,21.16,38.23,31.61,31.88,28.28,62.99,56.22,97.6,80.31,11.79,8.12,23.5,16.58,36.88,22.18,2.74,1.28,6.21,2.69,9.06,3.69l4.68,1.66,2.34,.83c.79,.26,1.61,.48,2.42,.73l4.86,1.43c10.06,2.97,20.09,5.09,30.19,7.47,3.89,.98,13.66,3.49,17.71,4.53,14.01,3.89,27.59,9.28,39.33,16.67,11.13,6.96,20.79,15.75,29.72,25.33,8.92,9.42,17.21,20.61,24.26,31.6,16.26,25.56,27.83,55.82,41.3,83.09,18.41,37.62,44.41,71.48,80.09,94.08,8.5,5.31,17.07,10.52,26.11,14.94,14.81,8.06,30.84,15.71,45.37,24.37,11.39,6.89,22.65,14.66,32.52,23.48,24.2,21.84,42.91,48.88,57.52,78.03,8.78,17.56,15.91,35.98,23.33,54.14,3.53,8.61,7.4,18.46,11.28,27,19.14,44.23,44.22,85.18,68.96,126.51,18.35,30.2,35.42,61.34,48.37,94.26,20.26,50.86,32.99,104.36,42.17,158.23,7.27,43.91,14.58,88.15,22.87,131.85,5.92,31.15,12.41,62.26,19.7,93.14,2.27,9.05,4.53,18.86,6.7,27.97,2.1,8.57,4.79,19.46,6.66,28.1,5.82,24.93,10.94,50.49,14.62,75.83,1.58,10.96,3.74,27.43,5.08,38.34,.77,6.41,1.61,12.82,2.07,19.24,7.7,109.26,11.94,221.03-10.42,329.1-1.2,5.77-2.45,13.47-4.84,18.86-.29,.77-.67,1.52-1.06,2.27l-1.15,2.24c-5.83,10.7-16.01,19.95-23.34,29.61-6.43,8.34-9.61,17.11-10.55,27.12-4.28,29.74-3.21,59.36-1.56,89.45,.92,21.86,1.88,44.51-.73,66.28-2.14,18.06-6.38,35.88-12.77,52.89-12.36,34.44-31.16,66.31-53.44,95.28-18.24,23.71-38.56,47.54-57.13,70.97-12.2,15.19-23.48,31.26-34.72,47.17-59.69,83.54-127.69,160.74-194.1,238.82-12.31,14.35-25.53,29.04-37.91,43.32-34.48,39.29-56.22,91.07-90.35,131.38-27.99,32.94-64.68,57.9-106.2,70.31-29.16,9.17-59.57,13.93-88.66,23.18-49.3,15.12-92.74,44.06-133.32,75.12-15.56,11.7-31.24,23.51-47.68,33.88-17.72,11.22-36.45,20.81-55.97,28.46-.74,.33-1.66,.18-2.6,0-1.02-.37-2.17-1.07-3.24-1.59-1.19-.81-2.62-2.21-3.91-3.29-2.06-1.76-5.96-5.24-7.97-7.03-1.27-1.03-2.79-2.72-3.84-3.22-1.07-.54-2.3-1.51-3.23-1.7-.97-.31-1.85-.36-2.61-.15l-4.66,1.13c-21.13,5.21-43.99,10.19-64.87,15.82-24.44,6.54-48.42,14.42-71.83,24-8.63,3.68-22.45,9.21-30.83,13.01l-2.2,.96c-.73,.34-1.49,.54-2.13,1.23-.61,.81-1.27,1.41-1.68,2.98-.42,1.54-1.02,2.37-1.29,4.5-.58,4.1-1.15,8.29-1.77,12.33l-.95,6.02c-.35,1.87-.56,4.32-1.04,5.72-.51,1.25-1.01,2.57-1.55,3.77-.64,.76-1.27,1.58-2.04,1.85-11.02,2.88-22.72,3.88-34.13,3.07-.84-.05-1.67-.07-2.51-.15l-2.54-.28-5.07-.56c-20.35-2.65-40.76-9.39-60.82-10.64-4.78-.47-9.75-.62-14.56-.43-6.35,.33-12.68,.91-18.84,2.52-4.69,1.36-9.42,3.92-13.31,7.19-.72,.53-1.44,1.11-2.13,1.86l-2.1,2.09-4.21,4.19-4.14,4.84c-2.77,3.21-5.55,6.48-8.36,9.64-.7,.8-1.4,1.59-2.13,2.23l-2.16,2.03-4.34,4.07-2.23,1.62c-.75,.51-1.48,1.14-2.24,1.55l-2.28,1.27c-6.54,3.81-14.1,4.17-21.41,4.93-6.44,.66-12.89,1.28-19.34,1.86-14.23,1.35-29.39,1.95-43.63,2.56-33.95,.8-68.04-.3-101.83-3.68-73.33-7.24-146.25-22.24-218.44-36.14-10.74-2.02-26.74-5.36-37.33-7.42-52.64-10.72-106.13-17.34-158.17-30.81-4.59-1.47-8.98-3.37-13.6-4.84-5.14-1.65-10.27-2.37-15.79-2.42h0Z"/></g></g></g></svg>