<?xml version="1.0" encoding="UTF-8"?><svg id="Layer_2" xmlns="http://www.w3.org/2000/svg" viewBox="0 0 3218.01 3190.68"><defs><style>.cls-1{fill:#4d4d4d;}.cls-2{opacity:.71;}</style></defs><g id="Layer_1-2"><g class="cls-2"><path class="cls-1" d="M2358.9,2899.02l1.8-.52,1.75-.63c.56-.25,1.14-.49,1.69-.75,3.41-1.8,6.67-4.22,9.57-6.81,4.73-4.22,9.67-8.13,14.99-11.53,30.95-21.01,63.26-40.05,93.23-62.3,23.66-17.61,45.87-37.13,66.46-58.26,14.04-14.37,27.42-29.99,40.06-45.64,30.45-38.17,59.24-78.55,92.48-114.02,16.21-17.94,33.13-34.74,52.64-49.3,19.98-15.05,41.56-28.13,61.86-42.78,15.14-11.06,29.44-23.22,41.82-37.31,8.08-9.28,15.81-18.88,21.7-29.73,6.07-11.18,9.38-23.69,11.56-36.2,3.66-25.34,4.46-51.68,16.15-74.25,3.97-8.17,9.19-15.58,15.58-22.09,6.7-7.15,14.69-12.78,22.61-18.84,9.92-7.49,22.17-16.43,29.94-26.2l2.96-3.71c.97-1.25,1.84-2.54,2.75-3.82,.85-1.3,1.74-2.59,2.56-3.91l2.44-3.97c6.49-10.58,12.28-21.57,17.04-33.02,7.16-17.23,11.67-35.34,15.81-53.54,2.99-12.29,5-24.68,5.07-37.49,.23-9.65-.41-19.82-.52-29.36-1.73-28.63,6.09-55.44,18.89-80.6,5.63-11.23,12.44-22.05,18.85-32.93,7.99-13.56,15.8-27.39,20.89-42.33,5.11-14.64,7.66-29.98,8.74-45.43,1.45-18.87,.37-38-2.21-56.76-3.22-24.96-9.64-50.82-12.65-75.82-5.79-43.11-1.29-84.65,10.86-125.69,5.09-17.81,11.92-35.76,17.72-53.39,6.01-17.57,11.56-36.14,14.91-54.43,3.47-18.13,4.53-36.66,4.37-55.03-.2-17.56-.41-37.5-1.68-55-3.39-59.37-14.28-118.39-31.17-175.37-9.05-30.09-19.89-61.02-31.52-90.21-7.96-19.45-15.81-39.41-26.01-57.82-2.8-5.07-5.58-10.44-8.86-15.24-14.81-22.14-33.22-43.09-50.7-63.38-19.62-22.76-38.14-46.86-53.04-72.48-12.61-20.78-21.94-42.62-28.5-66.28-8.47-30.29-13.41-62.83-25.05-92.18-4.51-11.61-10.01-22.7-16.34-33.37-8.01-14.52-20.45-19.06-35.19-24.93l-2.45-.97c-.83-.31-1.63-.65-2.38-1.03l-4.61-2.16c-2.92-1.3-5.87-3.01-8.44-4.9-3.85-2.53-7.09-5.9-9.94-9.44l-11.55-13.92c-62.39-73.93-120.36-152.19-190.4-219.56-17.47-17.03-34.49-34.65-52.34-51.36-35.2-33.47-71.31-69.63-110.73-98.05-39.97-28.98-83.86-52.23-129.82-70.17-53.28-20.76-120.87-37.94-175.47-55.25-16.11-5.06-36.06-11.24-51.85-16.98-39.4-13.35-80.46-31.57-121.18-40.43-26.75-6.22-54.2-10.08-81.72-9.62-21.34,.15-43.25,2.47-64.58,3.74-18.12,1.18-36.24,1.38-54.32-.11-18.18-1.3-36.15-4.03-53.65-9.49-12.2-3.85-24.21-8.67-35.94-13.81-23.65-10.68-48.39-22.18-73.84-26.58-31.17-5.46-62.99-.34-92.13,11.81-7.38,3.12-14.95,6.84-22.12,10.63-6.9,3.78-14.86,8.6-21.64,12.51-11.11,6.78-22.79,13.99-33.95,20.43-13.58,7.54-27.86,14.59-42.45,19.69-11.41,3.87-22.91,7.31-34.9,8.55-8.99,.88-18.49,1.04-27.58-.15l-4.72-.5-4.78-.69c-1.6-.25-3.18-.4-4.8-.74l-4.85-.93-9.74-1.85-19.6-3.52c-12.65-1.97-25.53-2.88-38.28-1.58-9.25,1-18.17,3.16-26.93,6.1-8.76,2.84-17.45,5.87-25.94,9.44-68.79,27.6-122.6,82.26-188.23,115.4-10.4,5.47-21.47,10.96-32.41,15.31-9.89,3.78-20.46,6.67-30.9,8.75-4.73,.77-9.34,1.68-14.15,2.28l-4.81,.63c-.8,.1-1.6,.22-2.41,.31l-2.47,.22-9.89,.9c-9.54,1.03-20.31,1.91-29.83,3.01l-19.59,2.97c-9.54,1.79-18.74,4.42-27.89,7.47-8.84,3.17-17.34,7.17-25.64,11.46-27.65,14.24-52.06,33.82-73.8,55.93-12.67,12.44-26.6,27.27-39.19,39.73-78.36,77.34-147.11,165.52-200.1,260-9.63,19-16.5,39.7-23.83,59.76-9.07,25.48-21.83,48.97-39.58,68.9-8.05,8.79-17.99,16.45-30.03,23.07l-4.32,2.61-4.68,2.41-9.37,4.88c-6.22,3.3-12.5,6.62-18.71,10.03l-9.35,5.14c-1.6,.84-2.98,1.81-4.4,2.75l-4.27,2.84c-2.69,1.99-5.39,3.98-7.95,6.05l-3.69,3.2c-1.22,1.08-2.52,2.11-3.58,3.27-6.58,6.55-13.05,13.86-18.56,21.35-17.1,22.08-26.4,48.56-36.26,74.34-4.5,11.45-8.91,22.9-11.88,34.88-3.91,14.8-6.21,30.49-9.55,45.46-2.12,8.92-3.64,18.07-7.73,26.35-16.12,33.36-34.41,66.2-50.48,99.63-26.99,55.96-44.31,117.59-41.97,180.12,.77,26.24,3.89,53.56,5.24,79.78,.58,10.58,.88,21.79,.97,32.3-.13,61.07,.55,120.89,.08,181.15-.11,4.41,.17,13.23,.17,17.64,3.17,110.38-4.61,223.23,23.73,331.17,7.71,31.72,19.05,62.5,35.69,90.72,12.95,22.4,29.13,45.36,43.04,67.12,11.48,17.99,21.81,36.83,30.78,56.15,5.11,11.05,9.73,22.35,13.49,33.94,4.95,14.79,8.41,30.3,11.5,45.62,3.35,17.21,6.64,35.2,11.07,52.18,2.77,10.52,6.53,21.66,10.66,31.71,3.08,7.23,6.49,14.3,10.24,21.2,2.34,4.07,4.52,8.24,7.79,11.68,3.12,3.61,7.58,6.67,12,8.8,9.62,5.12,20.41,8.06,30.12,12.85l2.2,1.25c2.07,1.11,4.24,2.69,6.08,4.11,3.69,2.86,6.52,6.57,9.45,10.13,28.99,35.62,56.88,71.83,85.18,108.09,15.11,18.98,31.21,38.62,47.6,56.43,18.72,20.4,38.82,39.66,60.05,57.46,2.33,2.01,4.73,3.95,7.36,5.61,3.46,2.51,8.85,4.5,12.94,6.11l4.74,1.49c6.18,1.86,12.87,3.54,18.91,5.92,5.95,2.25,11.18,5.5,16.8,8.33,5.48,2.91,11.04,5.69,16.58,8.48,24.71,11.99,51.2,23.06,76.53,33.76,58.65,24.67,113.97,57.51,161.9,99.49,21.5,18.52,42.1,38.19,64.01,56.27,5.52,4.93,12.82,10.22,18.64,14.74,18.79,14.05,39.02,26.05,60.36,35.74,8.51,3.73,17.15,7.17,25.92,10.24,18.05,5.92,36.42,8.87,55.76,8.94,20.58,.2,43.53-2.96,64.06-5.24,23.65-3.14,47.32-4.32,70.65-1.4,27.31,3.33,53.36,12.72,77.29,26.24l4.16,2.32c1.38,.78,2.78,1.51,4.15,2.38,10.68,6.71,22.78,13.49,33.41,19.87,5.11,3.04,11.65,6.51,17.06,9.16,4.54,2.1,12.55,6.11,17.4,7.76,38.02,14.84,79.83,15.56,119.3,6.22,9.17-2.09,18.95-4.46,27.9-7.05,16.67-4.47,33.52-9.54,50.41-13.09,19.39-4.22,39.1-6.5,58.51-10.67,11.89-2.63,23.76-5.16,35.58-8.04,34.81-8.66,69.92-15.82,105.87-15.99,10.18-.08,21.26-.38,31.38,.87,7.89,.84,15.3,2.78,23.18,5.35l4.76,1.77,2.39,.88c.79,.27,1.6,.62,2.41,1l9.72,4.4,4.89,2.2,2.45,1.1c8.97,4.65,22.93,11.76,32.54,16.13l2.53,1.2c.85,.41,1.69,.8,2.52,1.12l5.02,2.05c3.37,1.5,6.65,2.39,9.97,3.49l2.49,.8c.83,.25,1.64,.4,2.46,.61l4.91,1.16,2.46,.58c2.41,.43,4.87,.86,7.28,1.11,12.73,1.71,24.9-.49,37.2-3.12,12.06-2.85,24-6.18,35.59-10.68,41.81-15.63,77.68-43.13,113.87-68.58,25.05-17.71,51.51-33.57,79.46-45.74,8.23-3.66,16.64-6.87,25.38-9.14,29.95-7.93,62.61-1.44,93.71-1.58l4.71,.02h7.14c3.93-.08,7.83-.44,11.77-.76l9.32-1.16h0Zm27.58,47.21c-5.27,4.94-12.15,11.21-17.02,16.57l-1.84,2.05-3.72,4.12-3.76,4.13c-9.5,10.42-21.26,26.93-30.92,37.21l-7.17,7.93c-1.18,1.37-2.45,2.54-3.69,3.77l-3.75,3.67c-2.55,2.32-5.16,4.54-7.8,6.71-7.84,6.2-16.39,11.63-25.33,15.89-11.99,5.36-24.45,9.67-37.1,13.21-19.16,5.4-38.88,8.84-58.73,10.64-52.97,4.76-106.91-1.52-159.69,4.99-12.69,1.61-25.31,3.49-37.76,6.34-9.39,2.01-18.78,3.99-27.64,7.85-6.08,2.72-12.17,5.58-17.68,9.41l-4.34,2.91c-.72,.5-1.45,.94-2.17,1.48l-2.14,1.67c-12.16,9.06-22.9,20.04-34.08,30.4l-8.64,7.96-2.17,1.99-2.2,1.8-4.42,3.61c-11.7,10.35-24.04,17.73-36.7,23.1-6.33,2.69-12.8,4.41-19.3,5.9-12.95,3.18-26.07,5.51-39.29,7.08-33.12,4.16-66.82,1.51-99.73-3.39-19.85-2.84-39.66-6.25-59.43-9.45-16.27-2.36-33.14-5.09-48.98-9.41-35.76-9.26-69.49-25.57-104.93-35.82-18.61-5.24-37.65-8.81-56.9-10.51-52.15-5.93-107.02,15.91-159.85,13.96-13.18-.42-26.26-2.49-39.05-5.62-19.33-4.99-37.76-12.84-54.87-23.22-8.74-5.35-17.3-11.41-25.49-17.56-12.84-10.11-28.11-22.43-40.61-32.79-6.27-5.1-13.88-10.43-20.29-15.18-9.28-6.56-19.29-12.34-29.33-17.6-17.11-8.63-35.22-14.78-53.4-20.66-19.96-6.26-40.45-11.19-60.99-15.34-27.43-5.14-56.06-9.75-83.45-15.29-26-5.44-51.79-12.6-76.32-22.68-21.25-8.72-41.62-19.55-61.03-31.81-22.21-14.1-43-30.51-62.01-48.73-2.39-2.3-4.82-4.52-7.16-6.88l-6.96-7.14c-7.97-7.91-19.6-20.56-27.27-28.98-12.76-13.91-26.98-30.09-39.66-44.04-4.38-4.86-8.95-9.46-12.67-15.1l-2.79-4.21c-3.22-5.93-6.91-12.09-10.03-18.12l-2.68-4.28c-3.35-5.64-8.15-10.08-13.01-14.32-33.49-29.69-67.63-58.91-101.06-88.75-43.16-38.66-83.5-80.93-115.84-129.19-3.27-4.66-6.53-9.45-8.08-15.01l-.75-2.43c-.28-.79-.4-1.69-.6-2.54-.71-2.63-.82-5.37-1.16-8.03l-.3-2.73c-.12-.9-.19-1.82-.2-2.79l-.15-5.74-.37-11.36c-.31-2.3-.63-5.6-.96-7.99-.6-4.15-1.8-8.33-3.48-11.95-2.65-5.82-7-10.5-10.75-15.59-5.86-7.58-12.26-14.72-18.74-21.8-8.73-9.13-18.8-19.03-28.24-27.5-17.05-15.87-34.86-31.55-49.75-49.52-20.97-25.07-35.76-54.62-46.17-85.45-8.37-24.26-13.16-51.11-17.38-76.48-2.91-18.53-6.02-39.38-9.83-57.62-4.93-25.07-12.36-49.45-20.13-73.72-20.72-67.46-45.67-133.89-64.92-201.9-13.16-46.92-22.21-95.08-26.79-143.56-7.13-75-.56-150.87,15.27-223.96,2.36-9.49,4.94-18.93,7.89-28.26,10.75-33.82,25.14-67.27,35.06-101.32,10.69-36.85,17.33-74.34,22.46-112.3,5.67-44.95,8.73-90.58,18-135.06,2.2-9.46,3.56-19.23,7.22-28.27,9.19-20.8,22.19-40.05,33.5-59.63,3.25-5.62,6.26-11.32,9.15-17.07,13.24-29.32,30.61-56.54,41.31-87.02,4.29-12.36,7.88-25.23,10.42-38.08,.39-1.62,.57-3.35,.84-5.04l.76-5.1c.26-1.7,.34-3.49,.52-5.24l.49-5.27,.25-5.41c.08-1.81,.22-3.59,.12-5.5l-.16-11.29c-.1-7.55-.1-15.09-.08-22.69l.11-11.38c.02-1.9,.03-3.81,.09-5.7l.49-5.48c1.07-22.22,7.63-40.93,18.48-59.11,6.75-11.63,14.64-22.5,23.67-32.5,18.21-20.34,40.7-36.55,61.61-53.97,15.59-12.6,30.01-26.78,44.43-40.51,66.71-62.8,138.65-120.09,213.75-172.33,21.31-14.65,42.6-29.2,65.23-41.77,22.45-12.81,45.25-24.76,66.35-38.99,25.21-17.43,49.75-36.27,69.42-60.29,20.85-24.46,38.78-54.72,62.76-76.41,12.08-11.38,26.05-20.81,40.9-28.16,26.28-13.6,54.52-23.72,83.45-30.69,48.01-11.58,98.84-14.95,146.73-24.96,12.7-2.44,25.2-5.48,37.71-8.69,15.57-4.05,31.21-8.5,45.44-16.44,15.07-8.09,28.9-18.95,42.65-29.09l8.59-6.1,4.31-3.05c12.48-8.5,26.38-15.94,40.9-20.05,35.87-9.86,74.22-5.67,109.89,3.8,10.02,2.58,20.5,5.6,30.37,8.35,5.87,1.7,14.13,4.13,20,5.54,25.25,6.77,51.57,10.88,77.55,9.77,40.79-.58,76.04-17.61,114.67-32.75,18.84-7.02,39-12.9,59.08-14.51,39.41-3.48,79,4.23,116.45,16.74,4.67,1.41,13.95,4.78,18.84,6.41,27.87,9.7,55.72,18.96,84.43,25.29,34.24,8.09,70.15,14.25,104.76,20.7,28.72,5.36,57.28,12.26,84.89,21.85,33.66,11.88,66.32,26.54,97.72,43.52,11.19,5.92,23,12.75,33.89,19.19,66.13,39.94,130.37,82.07,198.1,119.09,39.49,21.85,80.26,41.69,119,64.96,22.28,13.31,43.83,27.82,65.26,42.46,20.87,14.8,41.73,31.47,61.98,47.24,71.82,56.08,140.79,117.28,196.48,189.87,3.12,3.79,5.82,8.04,7.69,12.62,1.13,2.36,1.8,4.83,2.6,7.27l.6,2.63,1.19,5.26c.9,4.78,1.86,11.46,2.69,16.35,.28,2.52,1.03,5.47,1.54,7.96l.7,2.51c1.38,4.76,3.26,9.51,5.96,13.66,5.46,8.04,12.65,14.69,19.35,21.75,23.82,24.01,52.13,43.14,78.3,64.48,15.8,12.65,30.65,27.11,42.97,42.93,20.25,26.37,35.1,56.54,46.05,87.89,11.1,32.24,17.27,65.77,23.81,99.21,3.35,17.38,9.78,48.81,13.47,65.47,1.69,7.25,3.73,16.68,5.68,23.99,4.2,18.25,8.92,39.13,12.41,57.59,8.02,41.15,14.18,83.63,19.64,125.18,8.05,63.95,15.48,128.03,21,192.23,1.8,26,5.3,51.86,11.21,77.28,2.77,12.71,6.37,26.49,9.58,39.11,3.34,12.8,6.36,26.63,9.16,39.56,10.53,52.19,8.05,106.58-12.78,156.3-7.19,18.18-17.93,37.63-27.07,54.91-6.49,11.68-12.9,23.89-18.68,35.85-2.02,4.43-4.25,8.99-6.2,13.48-10.83,25.28-19.73,51.11-22.12,78.59-.51,6.42-.95,13.04-1.01,19.51-.29,19.03,.78,40.62-1.11,59.53-1.22,12.97-3.8,25.67-7.67,38.06-3.93,12.46-9.84,24.31-17.35,35.06-7.27,10.69-16.92,21.82-24.66,32.3-8.14,10.71-14.62,21.92-20.36,33.38-5.34,10.33-12.56,23.94-17.38,34.26-7.48,15.86-13.54,32.41-18.36,49.3-2.56,8.53-4.91,17.27-6.27,26.11-.71,5.87-1.43,12.09-1.38,18.02-.47,12.19,.11,25.48-.78,37.65-.67,8.32-2.11,17.34-4.81,25.26-4.26,12.67-11.27,23.94-19.95,34.15-4.28,4.95-9.65,10.01-14.6,14.33-3.71,3.35-12.42,9.6-16.77,12.81-16.43,11.41-34.35,23.78-46.85,39.07-4.2,4.74-7.68,10.4-11.24,15.63-14.44,21.92-25.71,45.16-36.21,69.36-11.78,27.74-23.46,56.02-39.91,81.3-5.44,8.27-11.31,16.3-17.65,23.86-25.68,29.94-55.82,55.7-88.51,77.8-43.3,29.13-90.87,52.47-135.18,79.35-55.18,31.95-105.03,71.04-157.84,106.27-2.63,1.71-5.21,3.5-7.95,5.03-5.41,3.12-11.43,5.35-16.43,9.12-2.82,2.13-5.9,4.95-8.38,7.51h0Z"/></g></g></svg>