<?xml version="1.0" encoding="UTF-8"?><svg id="Layer_2" xmlns="http://www.w3.org/2000/svg" viewBox="0 0 3189.12 3245.19"><defs><style>.cls-1{fill:#940000;}</style></defs><g id="Layer_1-2"><path class="cls-1" d="M1052.49,223.39c-5.69,.92-10.99,3.57-15.78,6.76-5.28,3.45-10.47,7.1-16.14,9.88-55.42,28.68-113,53.56-163.44,90.78-15.2,10.62-29.94,22.97-43.93,35.23-18.75,16.58-36.51,34.7-54.23,52.38-26.01,26.43-53.17,51.39-82.45,73.51-24.19,18.5-49.41,35.34-75.61,50.93-31.58,19.08-65.53,36.27-96.08,57.05-20.63,13.89-40.38,29.03-58.3,45.98-4.36,4.35-8.12,9.26-11.48,14.5-6.61,10.54-11.74,22.26-18.52,32.61-3.41,5.11-7.17,9.9-11.19,14.49-6.04,6.84-12.42,13.59-19.09,19.85-11.05,10.51-22.86,21.06-32.33,33.04-18.76,24.14-35.89,49.67-51.5,75.95-19.99,34.59-37.55,70.74-52.37,107.86-5.1,13.37-9.99,30.47-13.97,44.37-6.77,23.8-14.41,47.13-25.24,69.37-10.61,22.22-24.99,43.22-33.61,66.4-9.99,26.39-13,54.8-13.06,82.99,.4,16.11,1.37,32.27,2.96,48.31,1.47,18.83,3.48,37.89,3.07,56.77-.4,27.2-4.87,54.13-12.92,80.08-4.51,14.58-10.48,28.98-16.72,42.93-5.49,11.41-10.76,22.88-16.16,34.37-5.15,11.09-10.53,23.51-14.68,35.03-4.11,11.75-7.67,23.69-10.08,35.9-2.54,12.07-3.71,24.28-5.05,36.51-5.61,54.94-6.29,110.43-.77,165.39,3.86,39.65,10.9,78.88,19.32,117.77,7.63,32.47,14.57,65.83,27.09,96.87,3.21,7.82,6.64,15.59,10.2,23.26,4.61,7,8.74,14.36,13.72,21.68,16.31,24.7,34.06,49.26,48.2,75.29,11.38,20.94,21.57,42.3,28.69,65.16,3.64,11.66,6.19,23.67,8.39,35.77,6.05,37.09,8.12,77.47,21.38,112.25,1.12,2.89,2.15,5.83,3.38,8.66l1.79,4.28c2.48,5.63,4.92,11.37,9.08,16,13.63,15.89,39.55,19.65,50.82,38.52,43.97,65.34,85.07,133.48,130.08,198.12,20.89,30.22,44.14,58.56,66.68,87.57,30.35,38,61.71,78.12,93.93,114.59,41.19,46.27,90.09,85.24,143.45,116.55,53.18,31.1,110.52,54.66,165.69,81.54,21.95,10.53,43.79,21.19,65.2,32.75,20.71,11.11,43.15,24.23,64.09,34.89,32.48,16.67,66.74,30.4,102.62,37.67,14.97,2.89,30.55,4.64,45.74,5.77,21.2,1.56,42.87,2.29,63.91,5.15,22.29,3.16,44.43,7.84,65.54,15.79,11.54,4.49,23.01,10.24,33.83,16.48,18.39,10.6,36.52,23.04,55.64,32.5,1.47,.71,2.93,1.47,4.41,2.13l4.45,1.92,4.46,1.92c2.23,.95,4.48,1.73,6.73,2.58l2.26,.73c30.66,10.27,64.19,9.36,95.11,.53l2.33-.72c5.75-1.82,13.07-4.28,18.57-6.45,14.5-5.86,31.54-13.67,45.58-20.36,5.84-2.61,11.96-5.5,17.88-7.9,6.57-2.81,13.27-5.13,19.96-7.61,16.47-5.46,33.78-9.42,50.93-10.47,12.16-.63,24.55,1.13,36.43,3.97,9.61,2.43,18.98,5.44,28.3,8.3l9.54,2.83,4.79,1.41c3.18,.84,6.37,1.65,9.56,2.43l4.76,.91c1.58,.28,3.18,.65,4.76,.85,4.16,.44,9.84,1.4,14.15,1.47,12.43,.63,24.55-1.36,36.57-4.16,27.13-5.95,53.38-15.61,78.28-27.91,16.68-7.99,33.12-17.71,49.34-26.62,7.62-4.35,16.53-9.66,24.18-13.78,21.04-11.85,42.82-22.75,65.22-31.73,13.8-5.49,27.99-11.18,42.55-14.32,9.01-2.11,18.29-3.32,27.55-3.93l4.76-.33,2.38-.17c.8-.04,1.62-.05,2.42-.07,9.76-.44,19.88,.1,29.68-.04,4.58-.02,15.23,.28,20.12,.13l19.86-.88c9.76-.76,19.17-2.41,28.62-4.47,24.14-6.21,47.05-16.64,68.3-29.54,29.06-18.1,54.36-41.63,81.18-62.68,95.68-75.65,183.43-162.71,254.2-262.02,4.96-7.03,10.72-14.96,15.61-22.13,4.54-6.29,7.85-13.65,9.72-21.23,2.17-7.66,3.9-16.05,6.85-23.43,2.4-5.7,5.78-10.52,10.22-14.46,5.2-4.38,10.92-8.23,16.62-12.03l2-1.22,4-2.46c2.75-1.6,5.55-3.14,8.38-4.65l8.87-4.32,4.42-2.19,4.69-2c3.14-1.33,6.26-2.69,9.37-4.07,18.92-7.78,38.6-15.59,56.34-25.93,3.8-1.94,7.28-4.18,10.87-6.36l2-1.4c3.99-2.52,7.04-6.27,9.41-10.26,9.9-15.53,19.25-31.42,28.05-47.59,20.54-37.52,37.88-77.09,56.1-115.72,1.46-2.67,3.16-5.23,4.93-7.74l5.22-7.61c13.79-20.12,28.98-40.94,42.93-60.98,36.11-50.72,65.27-107.51,74.89-169.51,5.65-37.15,5.16-75.17,9.26-112.39,2.52-23.95,6.78-48.85,9.65-72.7,8.96-72.17,21.58-141.53,27.6-214.2,10.45-104.06,19.71-211.65-6.05-314.34-5.63-21.09-13.75-41.74-22.98-61.52-9.26-19.79-19.28-39.55-28.55-59.31-11.59-25.18-21.19-50.92-28.28-77.66-5.61-21.19-8.62-42.47-10.54-64.51-2.14-24.65-3.33-52.48-8.15-76.8-2.23-12.61-5.57-24.8-9.47-36.78-1.98-5.96-4.14-11.87-7.57-17.17-7.04-11.16-18.4-18.86-27.78-27.96-4.77-4.53-8.76-9.43-11.98-14.73-6.37-10.62-12.5-21.36-18.87-31.96-15.63-26.59-31.45-53.18-47.52-79.51-27.38-44.71-56.89-88.61-91.35-128.2-5.94-6.78-12.39-14.2-18.55-20.72-2.15-2.22-4.43-4.34-6.96-6.23-3.7-2.86-8.18-5.53-12.38-7.61-3.8-2.02-11.7-5.61-15.51-7.78-3.41-1.91-6.87-4.1-10-6.42-30.66-23.67-64.3-44.15-96.9-64.59-51.19-32.4-97.81-72.16-136.05-119.27-7.83-8.98-16.14-20.04-23.63-29.33-10.73-13.48-24.99-31.17-36.7-43.83-16.82-18.41-35.76-35.42-56.51-49.28-15.56-10.27-31.64-19.61-49.48-25.56-9-2.86-18.36-5.36-27.78-6.76-16.77-2.87-37.19-3.22-54.27-3.73-5.67-.11-14.19-.09-19.83-.32-11-.44-22.57-1.01-33.32-2.59-23.98-3.29-47.11-10.58-68.33-22.21-16.52-9.07-30.97-20.44-45.83-32.65-19.61-16-40.17-32.91-63.31-43.11-34.29-15.48-72.57-18.54-109.71-13.31-12.41,1.54-25.51,3.7-37.92,5.65-15.73,2.67-30.86,4.4-46.39,5.62-15.15,.87-30.3,1.37-45.4,2.96-11.88,1.37-24.3,2.5-36.13,4.16-35.52,5-71.17,7.77-106.57,3.54-13.55-1.36-27.35-2.94-40.03-8.34l-4.5-1.87c-.75-.33-1.5-.58-2.26-.98l-2.27-1.16-4.54-2.33c-1.51-.68-3.04-1.68-4.57-2.59l-4.59-2.78-9.24-5.56-9.35-6.32c-1.57-1.07-3.13-2.08-4.7-3.11-1.57-1.03-3.14-2.06-4.72-3.05l-9.49-6-4.78-3c-1.6-1-3.18-1.79-4.77-2.7-1.59-.88-3.19-1.78-4.79-2.61l-4.77-2.18c-1.59-.7-3.19-1.51-4.78-2.12l-4.77-1.72-2.39-.86c-17.29-6.25-35.92-4.77-53.72-1.99-21.64,3.17-42.84,9.45-62.97,18.03-8.78,3.8-17.57,7.75-25.98,12.34-11.33,5.94-22.82,12.08-33.86,18.4-7.88,4.31-17.08,9.92-24.99,14.11-12.36,6.65-24.68,13.28-37.53,18.82-9.64,4.57-19.61,8.28-29.62,11.77-14.27,4.97-28.53,9.53-43.85,10.72-12.83,.96-25.91-.21-38.6-2.45-15.4-2.68-26.31-4.6-40.8-7.17-6.33-.71-12.93-1.77-19.29-2.42-3.12-.17-6.3-.4-9.46-.5h-9.43Zm-21.83-50.13c4.75-3.44,12.18-9.06,16.73-12.86,5.27-4.85,11.17-9.64,16.39-14.6,19.55-19.16,39.71-42.09,64.61-54.36,8.9-4.53,18.14-7.83,27.8-10.09,9.57-2.38,19.2-4.46,28.98-5.81,26.32-4.07,53.36-3.93,79.98-1.83,23.46,2.11,47.21,5.1,70.57,7.92,9.71,.94,19.88,2.1,29.65,2.6,25.7,1.62,51.47,.9,76.97-2.49,15.79-1.7,32.58-7.9,46.68-17.16,9.99-6.22,18.64-13.1,27.83-20.17,10.07-7.86,18.02-14.05,28.48-20.74l4.82-3.18c1.61-1.05,3.22-2.19,4.85-2.99,12.98-7.09,26.2-12.18,39.51-13.98,6.65-.91,13.32-1.75,19.99-2.36,19.99-1.76,40.1-1.54,60.06,.71,33.46,3.8,66.01,13.55,98.34,22.67,22.46,6.82,45.41,11.91,67.17,20.89,15.72,6.14,31.17,14.1,46.14,21.87,9.01,4.98,18,9.48,27.06,14.19,8.72,4.81,17.97,8.8,27.04,12.73,23.9,9.97,48.88,17.14,74.66,20.03,11.46,1.25,23.23,1.73,34.77,1.53,15.28-.05,31.17-1.43,46.44-1.61,9.5-.19,21.44-.64,31.02,.27,33.43,1.72,65.92,12.75,93.64,31.54,9.97,6.45,18.97,14.51,27.88,22.45,2.62,2.66,6.66,6.58,9.29,9.24,4.95,5.23,11.4,12.1,16.16,17.4,11.82,12.9,24.58,27.87,37.12,39.67,15.76,15.28,33.62,27.97,52.89,38.3,29.67,16.47,61.34,29.49,93.43,40.49,15.94,5.16,36.45,12.38,52.24,17.97,18.67,6.58,37.95,14.43,55.63,23.34,53.16,26.66,99.15,66.81,134.22,114.71,19.49,26.41,37.07,55.34,54.79,82.96,4.75,7.7,9.77,15.14,14.5,22.81,1.17,2.24,2.41,4.41,3.38,6.73,5.02,10.77,7.83,22.59,13.55,32.99,1.55,2.88,3.36,5.54,5.29,8.1,7.85,10.1,15.61,20.27,23.4,30.41,19.3,25.45,38.76,50.76,57.56,76.59,30.24,41.2,58.81,83.86,82.43,129.23,6.01,11.29,11.56,22.81,17.06,34.34,2.55,5.87,4.29,12.16,5.26,18.81,1.33,8.39,1.45,17,2.46,25.38,1.03,8.02,3.02,15.9,6.84,23.01,4.72,8.31,9.69,16.4,15.06,24.38,18.04,27.29,40.34,52.4,59.75,78.77,15.44,21.16,28.38,44.27,37.23,68.85,11.23,30.35,17.4,62.6,19.8,94.99,1.25,19.49,2.29,39.26,2.96,58.7,.85,19.14,2.22,38.7,4.78,57.64,10.54,69.24,27.09,137.8,41.49,206.79,11.03,52.62,19.89,105.84,21.55,159.74,2.27,77.56-10.06,154.49-32.98,228.24-3.76,12.45-7.67,24.84-12.44,36.96-9.42,24.38-21.71,47.75-34.19,70.7-12.28,22.65-24.39,45.68-33.96,69.55-9.53,23.68-17.59,47.76-24.82,72.26-14.48,49.38-23.79,101.45-41.62,150.1-1.94,4.91-4.6,13.41-7.09,18.18-1.45,2.9-3.16,5.65-4.83,8.43-8.37,13.76-17.15,27.65-26.1,41-24.18,36.89-53.18,74.41-78.91,110.29-2.43,3.23-4.68,6.62-5.98,10.54-.25,.8-.47,1.63-.71,2.45l-.7,2.46-.58,2.55c-.81,3.37-1.44,6.88-2.16,10.34l-2.13,10.42c-.18,.87-.38,1.72-.54,2.61-2.21,12.74-4.48,27.95-6.51,40.89l-1.83,11.03c-.7,3.62-1.42,7.23-2.17,10.84l-1.12,5.42-1.39,5.23-2.88,10.43c-.22,.89-.53,1.7-.81,2.55l-.86,2.51c-.6,1.66-1.13,3.36-1.78,4.98l-1.94,4.86-.97,2.44c-1.79,3.9-3.52,7.9-5.53,11.66-3.05,6.06-6.34,12.03-11.23,16.77-4.78,4.91-11.14,8.6-17.3,11.55-4.23,2.21-10.44,4.82-14.85,6.88-7.93,3.4-15.43,8.08-21.87,13.74-107.56,90.56-225.3,170.32-350.05,234.73-34.3,17.77-71.2,30.12-105.31,48.03-19.67,10.64-39.11,22.32-56.66,36.28-24.11,19.1-43.79,44.5-65.45,66.16-1.22,1.29-2.5,2.45-3.76,3.65l-3.8,3.58c-.64,.59-1.27,1.21-1.91,1.78l-1.95,1.68-3.92,3.37c-3.92,3.36-8.06,6.2-12.14,9.28-12.3,8.55-25.76,15.48-39.65,20.56-34.01,13.23-70.04,20.74-106.37,23.79-12.56,1-27.49,1.89-40.07,2.49-42.51,1.53-85.68,3.04-127.32,9.97-12.83,2.01-25.46,4.28-37.67,9.04-21.87,8.13-43.24,22.84-64.15,34.12-10.59,5.62-21.72,10.26-33.31,13.31-31.13,7.3-62.89,3.23-94.32-6.32-22.53-6.96-46.47-17.86-68.47-26.77-30.98-12.94-63.01-20.57-95.13-20.69-30.29-.4-59.51,8.6-88.95,16.17l-10.2,2.59c-3.4,.82-6.8,1.58-10.21,2.29l-2.55,.52-2.54,.44-5.1,.88c-9.98,1.62-20.27,2.83-30.39,2.87-20.07,.4-39.53-3.04-58.81-7.79-32.24-8.07-62.15-23.46-91.51-38.7-35.2-18.51-70.78-33.1-107.9-46.08-18.19-6.47-37.02-12.84-55.31-19.07-24.32-8.41-49.44-17.91-72.52-29.21-17.44-8.41-34.5-18.19-51.02-28.3-55.18-33.17-104.72-76.88-153.84-118.22-29.19-24.76-59.41-48.91-89.52-72.41-50.61-39.65-105.47-74.37-154.68-115.97-19.63-16.88-39.54-33.59-57.9-51.88-74.04-72.84-147.53-147.89-203.3-236.09-3.52-5.47-6.99-10.99-10.41-16.53-1.74-2.75-3.2-5.68-4.4-8.77-7.11-17.93-2.11-39.65-8.95-57.1-1.69-4.58-4.28-8.68-7.16-12.59-19.3-27.26-42.65-49.83-67.86-73.51-7.43-7.21-14.71-14.42-21.86-21.88-11.29-12.22-22.42-25.6-31.2-39.75-22.96-37.15-36.39-79.3-43.3-122.37-4.4-28.44-6.42-57.13-8.37-85.98l-.21-3.34,.02-2.52c.08-14.76-.5-30-1.12-44.77-.86-18.75-3.08-39.79-4.18-58.67-3.41-51.65-3.78-103.82-3.9-155.54-.06-53.67,.25-120.76,1.02-173.78,.22-11.61,.72-27.26,.3-38.71-.74-19.64-2.79-39.59-5.91-59.04-6.19-39.7-14.06-79.98-9.56-120.29,4.86-49.17,22.84-88.63,50.24-129.34,10.75-16.14,23.19-34.48,33.31-51.06,16.59-27.74,30.89-57.11,37.93-88.8,4.33-18.86,7.51-38.12,13.18-56.66,3.75-12.33,8.54-24.28,14.06-35.91,13.62-29.2,32.96-55.53,48.48-83.74,15.49-27.95,30.91-56.44,47.33-83.81,12.86-21.89,26.78-44.68,40.52-65.92,10.35-16.38,21.83-31.98,31.29-48.93,9.47-16.9,18.43-34.73,30.63-49.89,4.01-5.08,8.18-10.05,13-14.44,8.37-7.79,18.08-14.29,27.27-21.13,6.41-4.92,12.6-10.28,17.83-16.32,49.98-59.98,89.84-129.7,146.96-183.86,37.98-36.07,81.66-65.12,129.63-86.23,27.7-12.27,62.8-25.15,91.09-36.32,17.8-7.13,35.92-14.72,53.19-22.76,58.01-26.03,111.62-59.9,168.23-88.42,5.57-2.96,11.55-5.05,17.42-7.31,6.47-2.46,12.33-6.18,17.74-10.51h0Z"/></g></svg>