<?xml version="1.0" encoding="UTF-8"?><svg id="Layer_2" xmlns="http://www.w3.org/2000/svg" viewBox="0 0 3113.73 3236.19"><defs><style>.cls-1{fill:#940000;}</style></defs><g id="Layer_1-2"><path class="cls-1" d="M949.08,235.06c-4.1,.67-7.95,2.12-11.43,4.33-3.8,2.48-7.55,5.37-11.36,7.81-39.92,22.92-81.29,44.09-118.74,71-6.96,4.79-15.44,11.4-22.25,16.51-16.84,13.3-33.64,27.12-49.5,41.58-75.01,67.67-136.23,147.64-203.58,222.14-5.78,6.59-12.05,13.77-17.91,20.21-4.74,4.91-8.57,10.87-15.14,13.66l-2.21,1.06c-.73,.36-1.63,.58-2.43,.87l-2.48,.83-5.61,1.13-2.81,.57c-.9,.22-1.93,.34-2.96,.45-4.12,.45-8.13,1.02-12.22,1.55l-6.12,.81-5.63,1.25-2.82,.63c-.98,.18-1.83,.47-2.64,.78l-2.51,.91c-.88,.27-1.53,.72-2.31,1.07-9.05,3.9-13.82,12.39-18.92,20.21-1.58,2.63-3.08,5.49-4.42,8.24-5.52,11.49-8.7,24.84-11.45,37.42-.57,2.47-1.64,7.3-2.12,9.78-3.59,18.42-9.26,37.01-20.15,52.36-.5,.57-1.45,.82-2.37,1.11-1.29,.03-2.67,0-4.01,0-1.46-.09-3.81-.78-5.68-1.13l-5.94-1.29-12.08-2.66c-2.07-.47-3.02-.19-4.59-.32-1.59-.15-2.35,.27-3.29,.56-.84,.36-1.26,1.01-1.8,1.57l-1.56,1.73c-15.73,17.06-30.38,35.28-42.84,54.85-18.26,28.76-30.94,60.68-42.34,92.69l-1.56,4.38c-.29,.71-.3,1.57-.08,2.55,.1,.92,.96,2.22,1.4,3.31,.41,1.07,1.96,2.73,2.89,4.06,1.71,2.2,4.72,6.2,6.37,8.38,.98,1.35,2.26,2.85,2.99,4.07,.45,1.08,1.07,2.24,1.38,3.24,.13,.91,.21,1.8-.15,2.46-5.91,12.27-12.49,24.23-19.53,35.9-22.1,37-50.78,70.31-69.21,109.54-12.46,26.43-21.39,54.89-23.37,84.17-1.81,27.23,1.75,54.59,4.36,81.68,1.66,18.45,2.31,37.06,.44,55.45-2.81,26.75-10,53-20.61,77.7-13.39,31.59-31.65,61.35-42.38,94.13-10.15,29.05-12.31,59.88-14.82,90.31-1.95,25.71-2.55,51.91-1.92,77.67,1.71,63.96,12.55,127.34,27.46,189.43,6.12,24.8,12.36,50.49,22.21,74.09,4.62,11.08,9.85,22.58,15.46,33.14,8.39,16.08,18.01,31.9,26.85,47.67,14.9,25.89,27.83,52.72,37.41,80.94,5.92,16.86,10.05,34.48,12.19,52.24,3.69,31.03,2.21,63.76,6.55,94.67,2.17,15.61,5.76,30.49,10.96,45.09,2.4,7.38,6.24,14.2,12.09,19.45,9.53,8.53,21.7,13.74,31.38,22.06,1.69,1.48,3.51,3.32,5,4.99,3.74,3.9,6.8,10.52,9.58,15.27,35.78,62.49,69.21,126.64,106.84,188.13,18.81,31.08,40.25,60.39,61.34,89.96,13.6,19.57,29.01,39.85,43.2,58.98,29.15,39.36,59.49,78.71,96.25,111.29,27.34,24.59,57.24,46.51,88.84,65.32,36.64,21.98,76.08,39.96,114.71,58.07,32.79,15.54,65.76,30.85,97.87,47.76,21.36,11.24,42.57,23.4,63.8,34.9,37.43,20.14,76.91,37.27,118.68,45.84,42.03,8.47,85.27,6.86,127.05,15.73,23.91,4.96,46.78,11.57,68.59,23.36,16.88,8.46,33.54,20.47,50.08,30.39l8.5,5.1c2.85,1.67,5.68,3.49,8.56,4.97,28.94,15.72,57.5,22.63,90.6,20.43,35.72-1.94,69.54-17.01,102.29-30.65,4.16-1.81,9.37-3.55,13.61-5.36,2.26-.78,6.76-2.46,9.02-3.25,4.44-1.64,8.97-2.83,13.46-4.3,8.74-2.76,17.81-4.7,26.75-6.31,14.78-2.55,29.77-3.88,44.65-1.54,28.73,3.86,55.12,18.65,83.53,23.67l4.68,.76,2.34,.37,2.33,.26c15.31,1.88,30.72-.27,45.68-3.28,21.1-3.96,41.73-10.24,61.73-18,36.94-14.69,72.71-35.16,108.18-52.12,27.36-12.81,54.76-23.67,83.58-31.55,5.77-1.44,11.79-2.61,17.69-3.42,25.09-3.75,51.73-1.26,77.04-.66l2.5,.08c.83,0,1.63-.03,2.45-.04l4.9-.1,9.84-.21c9.55-.13,19.34-1.46,28.72-3.1,15.23-2.88,30.07-8.01,44.19-14.32,28.48-12.21,52.76-31.93,77.14-50.78,14.55-11.42,29.43-21.98,44.81-32.09,27.53-18.35,56.21-37.44,83.43-56.23,16.65-11.57,36.06-25.08,52.24-37.25l14.64-11.08,3.65-2.78c5.18-4.07,12.71-10.25,17.86-14.4,30.74-25.22,59.26-53.26,84.54-83.97,11.64-14.21,22.63-28.99,32.96-44.18,1.35-1.84,3.85-5.73,5.12-7.63,2.2-3.14,3.55-7.61,3.75-11.78l.19-2.82c.11-1.37-.29-4.68-.32-6.21-2.22-9.88-4.43-19.52-7.13-29.29l-2.1-7.45-1.3-6.75c-.32-2.03-1.08-4.63-1.04-6.49l-.2-2.97c-.08-4.21,.6-8.81,2.44-12.02,1.43-2.56,3.41-4.71,5.29-6.93,2.95-3.22,5.99-6.5,9.35-9.32,3.37-3.03,7.26-5.57,11.01-8.13,5.48-3.19,10.85-6.51,17.31-9.08l9.47-4.06c.78-.35,1.59-.68,2.44-.98l2.49-.95,4.97-1.92,20-7.85,2.5-1.01c.82-.35,1.59-.73,2.39-1.09l4.75-2.22,9.53-4.47c7.67-3.8,14.5-8.29,21.55-13.03,3.82-2.71,7.59-5.89,9.91-9.93,24.89-41.96,44.76-86.75,63.25-131.78,4.23-10.18,9.63-23.74,13.63-33.81,1.11-2.82,2.28-5.62,3.73-8.29,4.39-7.63,9.63-16.04,14.34-23.49,19.29-31.56,40.72-62.65,58.09-95.33,17.33-32.84,30.8-67.79,38.67-104.12,3.82-18.3,6-36.91,6.77-55.61,1.42-31.12,.45-62.87,2.59-93.45,4.13-48.51,8.45-97.01,13.52-145.36,7.34-66.16,16.16-134.2,25.66-200.28,7.25-51.96,13.43-104.47,13.02-157.06-.73-52.63-4.73-105.62-23.92-155.26-8.75-23.45-19.11-46.36-28.56-69.2-8.16-19.78-15.26-39.92-20.79-60.56-5.81-20.61-9.72-41.66-11.28-63.06-2.77-36.39,.02-73.7-7.18-109.74-1.47-7.62-3.35-15.42-5.65-22.83-1.9-5.93-3.56-11.99-6.38-17.55-3.03-5.75-7.64-10.8-12.95-14.65l-2.06-1.62c-.66-.55-1.4-1.07-2.19-1.56l-4.62-2.99c-7.36-4.82-15.3-9.21-21.73-15.27-3.32-3.29-6.45-6.99-8.51-11.13-34.35-61-64.21-124.76-100.99-184.67-12.85-20.81-27.02-41.04-42.2-60.22-3.83-4.78-7.71-9.53-11.62-14.26-4.85-5.94-9.97-11.86-16.47-16.16l-4.11-2.51c-1.33-.87-2.81-1.61-4.3-2.33l-4.45-2.19c-3.45-1.85-10.13-4.59-13.18-6.6-4.06-2.32-8.01-4.98-11.66-7.84-7.21-5.54-14.9-11.2-22.32-16.34-19.84-13.69-41.38-26.95-62.05-39.49-36.51-21.52-70.05-45.14-101.92-72.5-18.18-15.67-35.51-32.57-51.69-50.36-25.39-27.46-49.21-56.92-77.03-82.17-9.2-8.32-18.96-16.25-29.09-23.4-4.76-3.48-10.39-7.26-15.39-10.36-18.43-11.21-37.66-21.52-58.57-27.21-16.74-4.85-34.3-6.55-52.05-7.02-7.77-.09-16.97,.18-24.69,.22-15.78,.38-32.88,1.4-48.64,.86-30.63-.85-60.12-6.92-87.63-20.11-19.8-9.28-37.54-22.18-55.67-34.89-10.37-7-21.32-15.08-32.32-21.07l-4.15-2.33c-1.39-.78-2.77-1.58-4.17-2.27-21.88-11.54-46.12-18.17-70.71-20.25-6.87-.64-13.86-.82-20.8-.87-2.35,0-4.69,.14-7,.25l-9.36,.59-9.39,.94c-4.43,.44-14.03,2.14-18.85,2.88-24.84,4.15-49.44,10.43-74.43,13.41-12.02,1.87-24.35,2.39-36.35,3.67-7.18,.87-15.51,1.7-22.61,2.71-26.92,3.65-53.65,8.89-80.65,11.69-25.12,2.65-50.4,2.44-75.53,.11-9.83-.82-19.85-2.34-29.22-5.54l-2.28-.84-4.57-1.67c-.76-.3-1.52-.51-2.29-.88l-2.3-1.06-4.61-2.11c-.77-.37-1.54-.66-2.31-1.1l-2.33-1.28-4.67-2.55-9.38-5.1c-10.42-6.42-18.33-11.18-28.64-17.09-8.97-5.19-19.29-10.7-28.9-13.76l-4.79-1.54c-.8-.25-1.6-.53-2.4-.76l-2.38-.59-2.38-.59-2.37-.46-2.37-.46c-13.29-2.31-26.5-.71-39.46,1.13-15.29,2.3-30.5,5.89-45.17,10.84-20.54,6.62-41.65,16.77-60.64,27.17-16.16,8.44-34.14,19.12-50.1,27.91-32.37,17.79-66.01,33.14-101.5,41.32-33.61,7.63-68.4-3.67-102.34-7.33l-4.66-.55-4.7-.54c-1.57-.15-3.19-.42-4.72-.45-3.1-.13-6.26-.34-9.38-.38l-9.36,.09h0Zm-21.83-50.13c4.65-3.28,12.22-8.95,16.69-12.6,5.44-4.67,11.07-9.48,16.38-14.22,11.35-10.98,26.56-26.49,38.77-36.69,7.67-6.64,16.25-12.66,25.15-17.51,11.55-6.42,23.91-10.5,36.69-13.45,15.78-3.89,32.03-6.42,48.29-7.78,9.77-.71,19.92-1.21,29.71-1.12,9.4-.05,20.52,.57,30.01,1.06,3.35,.23,6.7,.5,10.05,.82l20.07,1.85c18.96,1.62,40.6,4.34,59.55,5.58,31.94,2.11,64.04,1.08,95.64-4.06,23.72-3.96,44.62-16.8,63.95-32.56l9.09-7.16c3.03-2.45,6.09-4.84,9.15-7.22l4.6-3.58,2.31-1.79c.77-.62,1.54-1.19,2.32-1.7l9.33-6.41,4.69-3.21,2.35-1.6c.78-.52,1.58-.89,2.37-1.35l4.75-2.61,2.38-1.3c.79-.46,1.6-.75,2.39-1.13l4.8-2.17,2.4-1.08c2.38-1.05,4.82-1.9,7.25-2.75l4.86-1.54,4.88-1.22c4.86-1.16,9.79-1.81,14.7-2.62C1529.13,1.33,1545.65,.03,1562.14,0c26.48-.02,52.93,3.75,78.82,9.28,26,5.41,51.84,12.13,77.67,17.88,19.5,4.3,38.57,10.13,57.15,17.54,14.01,5.9,27.94,11.97,41.68,18.49,5.11,2.27,13.22,5.85,18.33,8.12,22.1,9.91,45.55,17.56,69.27,22.25,20.57,4.16,41.73,5.63,62.73,4.66,23.68-1.09,47.48-4.38,71.27-5.66,41.81-2.57,83.62,7.01,118.95,29.34,11.2,6.76,22.72,15.91,32.73,24.45,3.78,3.31,11.41,10.45,15.38,14.19,8.33,7.81,18.13,17.27,26.28,25.19,2.96,2.65,6.5,5.92,9.39,8.64,3.56,3.16,9.67,8.43,13.35,11.36,13.76,11.12,28.69,20.92,44.49,28.84,37.54,18.76,76.63,32.71,117.62,44.07,9.36,2.65,19.33,5.74,28.75,8.51l4.82,1.42,4.78,1.51c5.94,2.01,17.81,5.48,23.96,7.71,64.75,21.66,122.85,60.08,167.67,111.42,17.21,19.63,33.27,42.2,47.79,63.9,12.63,18.52,25.72,39.16,38.03,57.86,1.78,2.65,3.64,5.57,5.1,8.43,1.45,3.03,2.94,6.11,4.11,9.28l3.53,9.73,1.78,4.83c1.62,4.54,3.7,9.56,6.08,13.74,3.16,5.65,7.54,10.28,11.5,15.32,14.12,17.09,34.18,42.29,48.29,59.39,46.54,57.02,92.16,116.07,123.07,183.31,2.13,4.32,5.94,13.17,7.98,17.53,2.06,4.38,3.05,9.42,3.61,14.27,1.2,11.82-1.95,23.78-2.93,35.51l-.12,2.65c-.92,9.05,.36,16.58,3.89,24.08,7.65,15.63,16.43,31.07,26.32,45.43,15.65,23.22,33.95,45.13,49.04,68.75,7.87,12.43,15.02,25.47,20.61,39.06,10.59,25.34,16.82,52.34,20.32,79.53,4.11,33.86,2.76,68.39,2.55,102.26-1.01,51.47,7.09,101.06,14.45,151.62,10.94,75.36,26.48,151.99,30.31,228.76,3.78,83.33-.97,167.59-20.71,248.92-4.44,18.83-9,37.64-14.92,56.07-11.62,36.82-30.56,71.91-46.25,107.23-10.39,23.25-18.91,47.23-25.98,71.64-7.22,24.4-13.31,49.09-18.46,74.02-5.13,25.24-9.86,50.86-15.51,76.03-5.08,21.96-10.88,44.33-18.39,65.58-6.71,14.66-15.25,28.45-23.15,42.49-21.2,36.16-44.54,70.9-67.69,105.76-5.29,8.03-10.8,15.94-16.05,23.99-1.71,2.71-3.16,5.59-4.08,8.81-.4,1.65-.84,3.27-1.22,4.94l-.98,5.1-1.73,10.41c-.51,3.53-.98,7.09-1.45,10.67l-.93,11.1c-1.16,13.39-2.04,32.29-3.31,45.58l-1.57,11.1-.4,2.78c-3.21,19.46-11.41,39.14-24.61,53.45-3.05,2.9-7.6,5.17-12.1,6.38-2.33,.43-4.08,1.14-6.47,1.2-1.51,.09-9.05,.65-10.9,.75l-8.06-.21c-10.12-.36-21.04-.09-31.12-.45-2.06,.34-4.53,.48-6.43,.91l-2.87,.74c-.93,.26-1.97,.44-2.78,.81-7.11,2.38-10.87,7.62-15.98,11.68-9.74,8.54-19.21,17.27-28.87,25.79-19.04,17.11-38.03,34.41-56.77,51.82-32.72,30.05-65.45,61.5-99.04,90.61-38.58,33.63-79.61,64.98-123.42,91.47-19.09,11.89-39.37,21.8-60.25,30.14-20.67,8.42-42.08,15.94-62.11,25.73-18.57,9.13-36.84,19.54-53.46,31.91-6.48,4.8-13.14,10.38-19.11,15.87l-3.78,3.33-3.68,3.6c-14.98,14.34-29.44,30.02-44.77,44.05-9.74,8.74-21.41,17.75-32.72,24.45-17.24,10.16-35.91,16.5-54.95,21.96-28.59,8.16-58.28,12.42-87.95,13.99-29.07,1.35-60.34,1.07-89.52,1.13-19.31,.3-39.12,.83-58.33,2.48-12.46,1-25.87,2.46-38.25,4.14-12.77,1.83-25.56,5.34-37.49,10.39-12.65,5.04-24.89,12.02-37.09,18.32l-9.37,4.74-4.7,2.37-2.36,1.19c-19.36,9.22-39.4,14.98-60.5,14.81-41.1,.22-79.2-14.51-116.9-32.22-8.94-3.8-19.17-8.94-28.3-12.61-2.24-1.04-6.95-2.72-9.37-3.68-6.23-2.54-12.46-4.66-18.68-6.64-38.92-11.94-74.71-13.99-114.5-5.34-26.55,5.5-53.6,13.48-80.85,15.68-19.84,1.89-39.58,.04-59-3.96-12.76-2.67-25.44-6.09-37.7-10.54-24.87-8.72-48.23-21.26-71.49-33.54-22.98-12.13-46.4-23.62-70.52-33.11-59.61-24.68-123.06-40.07-180.38-70.2-11.51-5.92-22.76-12.33-33.8-19.1-24.88-15.06-48.9-31.93-71.69-49.97-37.68-29.87-73.67-62.84-110.3-93.91-33.98-28.76-68.51-57.57-103.99-84.52-29.87-22.74-63.09-47.33-91.21-71.97-19.05-16.8-38.77-35.24-56.7-53.21-75.4-80.23-149.73-164.5-201.17-262.77-2.75-5.28-6.66-12.01-8.25-17.74-3.75-12.56-1.74-27.13-1.87-40.08-.14-7.74-1.34-15.55-4.42-22.06-5.21-10.01-11.76-19.44-18.27-28.67-19.76-27.4-44.33-51.36-65.89-77.51-18.08-22.23-32.65-46.87-41.79-73.87-11.15-31.07-17.15-64.63-18.92-97.95-1.82-30.05-.86-61.54-1.26-91.64-.15-14.98-.92-34.06-2.01-49.19-6.76-77.09-6.74-155.06-6.36-232.32,.11-29.73,.26-66.33,.7-96.17,.05-10.9,.48-27.45,.66-38.51,.44-12.89,.6-25.75-.13-38.67-1.51-33.41-8.71-66.36-12.84-99.5-5.38-39.44-3.18-80.39,10.22-118.02,6.62-19.01,16.39-37,27.55-53.78,20.62-30.76,44.78-59.25,60.84-92.73,11.18-23,19.67-47.22,26.43-71.87,7.09-25.57,13.16-59.71,19.65-85.47,6.21-25.21,14.82-49.86,26.46-73.05l2.19-4.32c.34-.73,1.14-1.24,1.97-1.72,2.75-1.05,5.53-1.13,8.62-1.06,2.72-.03,7.93,0,10.62,.01,1.64-.06,3.89,.2,5.02-.12,1.16-.3,2.74-.39,3.56-.86,.94-.41,1.64-.94,2.07-1.62l2.75-3.95c23.98-33.6,48.47-67.41,67.96-103.8,7.81-14.69,16.31-32.16,23.35-47.27l1.02-2.19c.32-.74,.76-1.4,.78-2.35-.08-1.01,.02-1.9-.71-3.36-.71-1.44-.8-2.46-2.01-4.24-2.3-3.48-4.55-6.94-6.78-10.4l-3.27-5.15c-.97-1.64-2.43-3.62-3.01-4.99-.44-1.28-.94-2.61-1.34-3.86-.02-1-.09-2.03,.3-2.75,3.62-5.39,7.8-10.4,12.37-15.12,3.21-3.38,7.51-7.01,11.25-9.9,3.89-3.02,8.43-6.22,12.6-8.84,25.48-15.91,54.99-28.39,72.09-53.63,3.21-4.84,5.06-11.14,5.6-17.08l.19-2.97,.38-5.95-.11-6.39c-.05-5.3-.29-10.63,0-15.87l.27-2.96,.56-5.94,.6-2.7c.22-.88,.35-1.84,.65-2.66l.87-2.48c2.37-7.23,7.81-12.53,12.79-17.98,13.01-14.43,26.8-28.51,40.78-41.99,46.82-45.08,100.05-83.15,154.84-117.89,46.17-29.03,93.27-57.02,140.1-84.7,46.76-26.92,91.54-57.67,139.04-83.27,6.19-3.65,12.89-6.27,19.59-8.84,5.82-2.26,11.01-5.59,15.81-9.75h0Z"/></g></svg>