<?xml version="1.0" encoding="UTF-8"?><svg id="Layer_2" xmlns="http://www.w3.org/2000/svg" viewBox="0 0 333.44 248.08"><defs><style>.cls-1{fill:#4d4d4d;}.cls-2{fill:#9b423f;}.cls-3{fill:#58595b;}</style></defs><g id="Layer_1-2"><g><g><path class="cls-3" d="M13.12,26.03l-7.09-8.01v8.01H2.04V6.94h3.99v7.65l6.2-7.65h5.21l-7.65,9.27,8.57,9.83h-5.24Z"/><path class="cls-3" d="M46.95,22.5v3.53h-13.12V6.94h13.12v3.56h-9.13v4.39h8.41v3.56h-8.41v4.06h9.13Z"/><path class="cls-3" d="M63.7,6.94h3.99V26.03h-3.99V6.94Z"/><path class="cls-3" d="M84.14,10.47v-3.53h15.86v3.53h-5.94v15.56h-3.99V10.47h-5.94Z"/><path class="cls-3" d="M128.23,19.21h-7.78v6.83h-3.99V6.94h3.99V15.64h7.78V6.94h3.99V26.03h-3.99v-6.83Z"/><path class="cls-3" d="M172.67,22.47h9.13v3.56h-13.12V6.94h3.99v15.53Z"/><path class="cls-3" d="M208.94,6.94l6.96,19.09h-4.35l-1.15-3.26h-7.88l-1.12,3.26h-4.35l6.96-19.09h4.95Zm-5.18,12.27h5.41l-2.7-7.75-2.7,7.75Z"/><path class="cls-3" d="M234.4,26.03l-6.96-19.09h4.35l5.08,14.57,5.08-14.57h4.35l-6.96,19.09h-4.95Z"/><path class="cls-3" d="M280.59,16.5c0,5.47-4.52,9.89-10.19,9.89s-10.19-4.42-10.19-9.89,4.52-9.89,10.19-9.89,10.19,4.42,10.19,9.89Zm-4.06,0c0-3.56-2.7-6.33-6.13-6.33s-6.13,2.77-6.13,6.33,2.7,6.33,6.13,6.33,6.13-2.87,6.13-6.33Z"/><path class="cls-3" d="M297.54,6.94h3.99V26.03h-3.99V6.94Z"/><path class="cls-3" d="M331.93,22.5v3.53h-13.12V6.94h13.12v3.56h-9.13v4.39h8.41v3.56h-8.41v4.06h9.13Z"/></g><g><path class="cls-2" d="M162.74,123.28c-.06,.11-.12,.22-.17,.33l-.15-.28c-10.61-19.26-27.01-34.7-46.88-44.14l-60.89-28.93c0,32.84,17.04,63.34,45.01,80.55l27.65,17.02c8.29,5.11,15.08,17.25,15.08,26.99v21.47l44.84-22.4c0-17.93,11.84-24.03,26.89-32.67l16.09-9c30.01-16.8,48.6-48.5,48.6-82.9l-62.72,25.64c-22.88,9.35-41.81,26.46-53.35,48.31Z"/><path class="cls-1" d="M267.84,199.08H65.61c-13.53,0-10.97,10.97-10.97,24.5s10.97,24.5,24.5,24.5H254.3c13.53,0,24.5-10.97,24.5-24.5s2.56-24.5-10.97-24.5Z"/></g></g></g></svg>