<?xml version="1.0" encoding="UTF-8"?><svg id="Layer_2" xmlns="http://www.w3.org/2000/svg" viewBox="0 0 41 64"><defs><style>.cls-1{fill:#333;}.cls-2{fill:gray;}.cls-3{fill:#b3b3b3;}</style></defs><g id="Layer_1-2"><path class="cls-1" d="M41,20.5C41,9.18,31.82,0,20.5,0S0,9.18,0,20.5c0,6.18,2.74,11.7,7.07,15.46,2.42,9.29,7,18.04,13.93,18.04,7.8,0,11.79-9.16,13.64-18.68,3.91-3.73,6.36-8.99,6.36-14.82Z"/><path class="cls-3" d="M14.86,64h12.79c1.02,0,1.86-.62,1.86-1.38v-13.8c.5-2.62-.83,.72-1.86,.72H14.86c-1.02,0-1.86-2.45-1.86-.72v13.8c0,.76,.83,1.38,1.86,1.38Z"/><rect class="cls-2" x="12.8" y="51" width="17" height="2" rx=".68" ry=".68"/><rect class="cls-2" x="12.7" y="54" width="17" height="2" rx=".68" ry=".68"/><rect class="cls-2" x="12.75" y="56.95" width="17" height="2" rx=".68" ry=".68"/><rect class="cls-2" x="12.65" y="59.95" width="17" height="2" rx=".68" ry=".68"/></g></svg>