<?xml version="1.0" encoding="UTF-8"?><svg id="Layer_2" xmlns="http://www.w3.org/2000/svg" viewBox="0 0 558.91 400"><defs><style>.cls-1{fill:#4d4d4d;}.cls-2{fill:#fbb013;}.cls-3{fill:#58595b;}</style></defs><g id="Layer_1-2"><g><path class="cls-3" d="M21.16,41.97l-11.43-12.92v12.92H3.3V11.19h6.43v12.33l9.99-12.33h8.4l-12.33,14.94,13.82,15.84h-8.45Z"/><path class="cls-3" d="M75.7,36.28v5.69h-21.16V11.19h21.16v5.74h-14.73v7.07h13.56v5.74h-13.56v6.54h14.73Z"/><path class="cls-3" d="M102.71,11.19h6.43v30.78h-6.43V11.19Z"/><path class="cls-3" d="M135.67,16.88v-5.69h25.57v5.69h-9.57v25.09h-6.43V16.88h-9.57Z"/><path class="cls-3" d="M206.75,30.97h-12.55v11h-6.43V11.19h6.43v14.03h12.55V11.19h6.43v30.78h-6.43v-11Z"/><path class="cls-3" d="M278.42,36.23h14.73v5.74h-21.16V11.19h6.43v25.04Z"/><path class="cls-3" d="M336.9,11.19l11.22,30.78h-7.02l-1.86-5.26h-12.71l-1.81,5.26h-7.02l11.22-30.78h7.97Zm-8.35,19.78h8.72l-4.36-12.49-4.36,12.49Z"/><path class="cls-3" d="M377.94,41.97l-11.22-30.78h7.02l8.19,23.5,8.19-23.5h7.02l-11.22,30.78h-7.97Z"/><path class="cls-3" d="M452.42,26.61c0,8.82-7.28,15.95-16.43,15.95s-16.43-7.12-16.43-15.95,7.28-15.95,16.43-15.95,16.43,7.12,16.43,15.95Zm-6.54,0c0-5.74-4.36-10.21-9.89-10.21s-9.89,4.47-9.89,10.21,4.36,10.21,9.89,10.21,9.89-4.62,9.89-10.21Z"/><path class="cls-3" d="M479.75,11.19h6.43v30.78h-6.43V11.19Z"/><path class="cls-3" d="M535.2,36.28v5.69h-21.16V11.19h21.16v5.74h-14.73v7.07h13.56v5.74h-13.56v6.54h14.73Z"/></g><g><path class="cls-2" d="M262.4,198.78c-.09,.18-.19,.36-.28,.53l-.25-.45c-17.11-31.06-43.55-55.95-75.58-71.17l-98.18-46.64c0,52.96,27.47,102.13,72.57,129.88l44.59,27.45c13.37,8.23,24.32,27.82,24.32,43.52v34.61l72.3-36.12c0-28.91,19.1-38.75,43.36-52.67l25.94-14.52c48.39-27.08,78.37-78.21,78.37-133.66l-101.13,41.34c-36.89,15.08-67.41,42.66-86.03,77.9Z"/><path class="cls-1" d="M431.86,320.99H105.79c-21.82,0-17.69,17.69-17.69,39.5s17.69,39.5,39.5,39.5H410.04c21.82,0,39.5-17.69,39.5-39.5s4.13-39.5-17.69-39.5Z"/></g></g></svg>