<?xml version="1.0" encoding="UTF-8"?><svg id="Layer_2" xmlns="http://www.w3.org/2000/svg" viewBox="0 0 531.9 389.34"><defs><style>.cls-1{fill:#e6e6e6;}.cls-2{fill:#fcc013;}.cls-3{fill:#999;}</style></defs><g id="Layer_1-2"><g><path class="cls-1" d="M17.86,31.31L6.43,18.39v12.92H0V.53H6.43V12.86L16.43,.53h8.4L12.49,15.47l13.82,15.84h-8.45Z"/><path class="cls-1" d="M72.41,25.62v5.69h-21.16V.53h21.16V6.27h-14.73v7.07h13.56v5.74h-13.56v6.54h14.73Z"/><path class="cls-1" d="M99.42,.53h6.43V31.31h-6.43V.53Z"/><path class="cls-1" d="M132.38,6.22V.53h25.57V6.22h-9.57V31.31h-6.43V6.22h-9.57Z"/><path class="cls-1" d="M203.46,20.31h-12.55v11h-6.43V.53h6.43V14.57h12.55V.53h6.43V31.31h-6.43v-11Z"/><path class="cls-1" d="M275.12,25.57h14.73v5.74h-21.16V.53h6.43V25.57Z"/><path class="cls-1" d="M333.6,.53l11.22,30.78h-7.02l-1.86-5.26h-12.71l-1.81,5.26h-7.02L325.63,.53h7.97Zm-8.35,19.78h8.72l-4.36-12.49-4.36,12.49Z"/><path class="cls-1" d="M374.64,31.31L363.43,.53h7.02l8.19,23.5L386.82,.53h7.02l-11.22,30.78h-7.97Z"/><path class="cls-1" d="M449.13,15.95c0,8.82-7.28,15.95-16.43,15.95s-16.43-7.12-16.43-15.95,7.28-15.95,16.43-15.95,16.43,7.12,16.43,15.95Zm-6.54,0c0-5.74-4.36-10.21-9.89-10.21s-9.89,4.47-9.89,10.21,4.36,10.21,9.89,10.21,9.89-4.62,9.89-10.21Z"/><path class="cls-1" d="M476.45,.53h6.43V31.31h-6.43V.53Z"/><path class="cls-1" d="M531.9,25.62v5.69h-21.16V.53h21.16V6.27h-14.73v7.07h13.56v5.74h-13.56v6.54h14.73Z"/></g><g><path class="cls-2" d="M259.1,188.12c-.09,.18-.19,.36-.28,.53l-.25-.45c-17.11-31.06-43.55-55.95-75.58-71.17l-98.18-46.64c0,52.96,27.47,102.13,72.57,129.88l44.59,27.45c13.37,8.23,24.32,27.82,24.32,43.52v34.61l72.3-36.12c0-28.91,19.1-38.75,43.36-52.67l25.94-14.52c48.39-27.08,78.37-78.21,78.37-133.66l-101.13,41.34c-36.89,15.08-67.41,42.66-86.03,77.9Z"/><path class="cls-3" d="M428.57,310.33H102.49c-21.82,0-17.69,17.69-17.69,39.5s17.69,39.5,39.5,39.5H406.75c21.82,0,39.5-17.69,39.5-39.5s4.13-39.5-17.69-39.5Z"/></g></g></svg>